%TF.GenerationSoftware,KiCad,Pcbnew,6.0.7-f9a2dced07~116~ubuntu20.04.1*%
%TF.CreationDate,2023-02-12T14:19:42-08:00*%
%TF.ProjectId,CAN_Controller,43414e5f-436f-46e7-9472-6f6c6c65722e,rev?*%
%TF.SameCoordinates,Original*%
%TF.FileFunction,Legend,Top*%
%TF.FilePolarity,Positive*%
%FSLAX46Y46*%
G04 Gerber Fmt 4.6, Leading zero omitted, Abs format (unit mm)*
G04 Created by KiCad (PCBNEW 6.0.7-f9a2dced07~116~ubuntu20.04.1) date 2023-02-12 14:19:42*
%MOMM*%
%LPD*%
G01*
G04 APERTURE LIST*
%ADD10C,0.150000*%
%ADD11C,0.127000*%
%ADD12C,0.050800*%
%ADD13C,0.120000*%
%ADD14C,0.200000*%
G04 APERTURE END LIST*
D10*
X182714285Y-101702380D02*
X182238095Y-101702380D01*
X182238095Y-100702380D01*
X183238095Y-100702380D02*
X183428571Y-100702380D01*
X183523809Y-100750000D01*
X183619047Y-100845238D01*
X183666666Y-101035714D01*
X183666666Y-101369047D01*
X183619047Y-101559523D01*
X183523809Y-101654761D01*
X183428571Y-101702380D01*
X183238095Y-101702380D01*
X183142857Y-101654761D01*
X183047619Y-101559523D01*
X183000000Y-101369047D01*
X183000000Y-101035714D01*
X183047619Y-100845238D01*
X183142857Y-100750000D01*
X183238095Y-100702380D01*
X184000000Y-100702380D02*
X184238095Y-101702380D01*
X184428571Y-100988095D01*
X184619047Y-101702380D01*
X184857142Y-100702380D01*
X167714285Y-100047619D02*
X167761904Y-100000000D01*
X167857142Y-99952380D01*
X168095238Y-99952380D01*
X168190476Y-100000000D01*
X168238095Y-100047619D01*
X168285714Y-100142857D01*
X168285714Y-100238095D01*
X168238095Y-100380952D01*
X167666666Y-100952380D01*
X168285714Y-100952380D01*
X168190476Y-95285714D02*
X168190476Y-95952380D01*
X167952380Y-94904761D02*
X167714285Y-95619047D01*
X168333333Y-95619047D01*
X168190476Y-89952380D02*
X168000000Y-89952380D01*
X167904761Y-90000000D01*
X167857142Y-90047619D01*
X167761904Y-90190476D01*
X167714285Y-90380952D01*
X167714285Y-90761904D01*
X167761904Y-90857142D01*
X167809523Y-90904761D01*
X167904761Y-90952380D01*
X168095238Y-90952380D01*
X168190476Y-90904761D01*
X168238095Y-90857142D01*
X168285714Y-90761904D01*
X168285714Y-90523809D01*
X168238095Y-90428571D01*
X168190476Y-90380952D01*
X168095238Y-90333333D01*
X167904761Y-90333333D01*
X167809523Y-90380952D01*
X167761904Y-90428571D01*
X167714285Y-90523809D01*
X168285714Y-103452380D02*
X167714285Y-103452380D01*
X168000000Y-103452380D02*
X168000000Y-102452380D01*
X167904761Y-102595238D01*
X167809523Y-102690476D01*
X167714285Y-102738095D01*
X167666666Y-87452380D02*
X168333333Y-87452380D01*
X167904761Y-88452380D01*
X167666666Y-97452380D02*
X168285714Y-97452380D01*
X167952380Y-97833333D01*
X168095238Y-97833333D01*
X168190476Y-97880952D01*
X168238095Y-97928571D01*
X168285714Y-98023809D01*
X168285714Y-98261904D01*
X168238095Y-98357142D01*
X168190476Y-98404761D01*
X168095238Y-98452380D01*
X167809523Y-98452380D01*
X167714285Y-98404761D01*
X167666666Y-98357142D01*
X168238095Y-92452380D02*
X167761904Y-92452380D01*
X167714285Y-92928571D01*
X167761904Y-92880952D01*
X167857142Y-92833333D01*
X168095238Y-92833333D01*
X168190476Y-92880952D01*
X168238095Y-92928571D01*
X168285714Y-93023809D01*
X168285714Y-93261904D01*
X168238095Y-93357142D01*
X168190476Y-93404761D01*
X168095238Y-93452380D01*
X167857142Y-93452380D01*
X167761904Y-93404761D01*
X167714285Y-93357142D01*
X179976190Y-101702380D02*
X179976190Y-100702380D01*
X179976190Y-101178571D02*
X180547619Y-101178571D01*
X180547619Y-101702380D02*
X180547619Y-100702380D01*
X181023809Y-101702380D02*
X181023809Y-100702380D01*
X167904761Y-85130952D02*
X167809523Y-85083333D01*
X167761904Y-85035714D01*
X167714285Y-84940476D01*
X167714285Y-84892857D01*
X167761904Y-84797619D01*
X167809523Y-84750000D01*
X167904761Y-84702380D01*
X168095238Y-84702380D01*
X168190476Y-84750000D01*
X168238095Y-84797619D01*
X168285714Y-84892857D01*
X168285714Y-84940476D01*
X168238095Y-85035714D01*
X168190476Y-85083333D01*
X168095238Y-85130952D01*
X167904761Y-85130952D01*
X167809523Y-85178571D01*
X167761904Y-85226190D01*
X167714285Y-85321428D01*
X167714285Y-85511904D01*
X167761904Y-85607142D01*
X167809523Y-85654761D01*
X167904761Y-85702380D01*
X168095238Y-85702380D01*
X168190476Y-85654761D01*
X168238095Y-85607142D01*
X168285714Y-85511904D01*
X168285714Y-85321428D01*
X168238095Y-85226190D01*
X168190476Y-85178571D01*
X168095238Y-85130952D01*
%TO.C,R3*%
X191333333Y-86702380D02*
X191000000Y-86226190D01*
X190761904Y-86702380D02*
X190761904Y-85702380D01*
X191142857Y-85702380D01*
X191238095Y-85750000D01*
X191285714Y-85797619D01*
X191333333Y-85892857D01*
X191333333Y-86035714D01*
X191285714Y-86130952D01*
X191238095Y-86178571D01*
X191142857Y-86226190D01*
X190761904Y-86226190D01*
X191666666Y-85702380D02*
X192285714Y-85702380D01*
X191952380Y-86083333D01*
X192095238Y-86083333D01*
X192190476Y-86130952D01*
X192238095Y-86178571D01*
X192285714Y-86273809D01*
X192285714Y-86511904D01*
X192238095Y-86607142D01*
X192190476Y-86654761D01*
X192095238Y-86702380D01*
X191809523Y-86702380D01*
X191714285Y-86654761D01*
X191666666Y-86607142D01*
%TO.C,J3*%
X181666666Y-105202380D02*
X181666666Y-105916666D01*
X181619047Y-106059523D01*
X181523809Y-106154761D01*
X181380952Y-106202380D01*
X181285714Y-106202380D01*
X182047619Y-105202380D02*
X182666666Y-105202380D01*
X182333333Y-105583333D01*
X182476190Y-105583333D01*
X182571428Y-105630952D01*
X182619047Y-105678571D01*
X182666666Y-105773809D01*
X182666666Y-106011904D01*
X182619047Y-106107142D01*
X182571428Y-106154761D01*
X182476190Y-106202380D01*
X182190476Y-106202380D01*
X182095238Y-106154761D01*
X182047619Y-106107142D01*
D11*
%TO.C,C5*%
X195083333Y-84357142D02*
X195035714Y-84404761D01*
X194892857Y-84452380D01*
X194797619Y-84452380D01*
X194654761Y-84404761D01*
X194559523Y-84309523D01*
X194511904Y-84214285D01*
X194464285Y-84023809D01*
X194464285Y-83880952D01*
X194511904Y-83690476D01*
X194559523Y-83595238D01*
X194654761Y-83500000D01*
X194797619Y-83452380D01*
X194892857Y-83452380D01*
X195035714Y-83500000D01*
X195083333Y-83547619D01*
X195988095Y-83452380D02*
X195511904Y-83452380D01*
X195464285Y-83928571D01*
X195511904Y-83880952D01*
X195607142Y-83833333D01*
X195845238Y-83833333D01*
X195940476Y-83880952D01*
X195988095Y-83928571D01*
X196035714Y-84023809D01*
X196035714Y-84261904D01*
X195988095Y-84357142D01*
X195940476Y-84404761D01*
X195845238Y-84452380D01*
X195607142Y-84452380D01*
X195511904Y-84404761D01*
X195464285Y-84357142D01*
D12*
%TO.C,D1*%
X187625047Y-91779809D02*
X187625047Y-91271809D01*
X187746000Y-91271809D01*
X187818571Y-91296000D01*
X187866952Y-91344380D01*
X187891142Y-91392761D01*
X187915333Y-91489523D01*
X187915333Y-91562095D01*
X187891142Y-91658857D01*
X187866952Y-91707238D01*
X187818571Y-91755619D01*
X187746000Y-91779809D01*
X187625047Y-91779809D01*
X188399142Y-91779809D02*
X188108857Y-91779809D01*
X188254000Y-91779809D02*
X188254000Y-91271809D01*
X188205619Y-91344380D01*
X188157238Y-91392761D01*
X188108857Y-91416952D01*
D10*
%TO.C,J1*%
X194416666Y-88202380D02*
X194416666Y-88916666D01*
X194369047Y-89059523D01*
X194273809Y-89154761D01*
X194130952Y-89202380D01*
X194035714Y-89202380D01*
X195416666Y-89202380D02*
X194845238Y-89202380D01*
X195130952Y-89202380D02*
X195130952Y-88202380D01*
X195035714Y-88345238D01*
X194940476Y-88440476D01*
X194845238Y-88488095D01*
%TO.C,R2*%
X191333333Y-84702380D02*
X191000000Y-84226190D01*
X190761904Y-84702380D02*
X190761904Y-83702380D01*
X191142857Y-83702380D01*
X191238095Y-83750000D01*
X191285714Y-83797619D01*
X191333333Y-83892857D01*
X191333333Y-84035714D01*
X191285714Y-84130952D01*
X191238095Y-84178571D01*
X191142857Y-84226190D01*
X190761904Y-84226190D01*
X191714285Y-83797619D02*
X191761904Y-83750000D01*
X191857142Y-83702380D01*
X192095238Y-83702380D01*
X192190476Y-83750000D01*
X192238095Y-83797619D01*
X192285714Y-83892857D01*
X192285714Y-83988095D01*
X192238095Y-84130952D01*
X191666666Y-84702380D01*
X192285714Y-84702380D01*
%TO.C,R1*%
X184083333Y-84702380D02*
X183750000Y-84226190D01*
X183511904Y-84702380D02*
X183511904Y-83702380D01*
X183892857Y-83702380D01*
X183988095Y-83750000D01*
X184035714Y-83797619D01*
X184083333Y-83892857D01*
X184083333Y-84035714D01*
X184035714Y-84130952D01*
X183988095Y-84178571D01*
X183892857Y-84226190D01*
X183511904Y-84226190D01*
X185035714Y-84702380D02*
X184464285Y-84702380D01*
X184750000Y-84702380D02*
X184750000Y-83702380D01*
X184654761Y-83845238D01*
X184559523Y-83940476D01*
X184464285Y-83988095D01*
%TO.C,U2*%
X178028095Y-84392380D02*
X178028095Y-85201904D01*
X178075714Y-85297142D01*
X178123333Y-85344761D01*
X178218571Y-85392380D01*
X178409047Y-85392380D01*
X178504285Y-85344761D01*
X178551904Y-85297142D01*
X178599523Y-85201904D01*
X178599523Y-84392380D01*
X179028095Y-84487619D02*
X179075714Y-84440000D01*
X179170952Y-84392380D01*
X179409047Y-84392380D01*
X179504285Y-84440000D01*
X179551904Y-84487619D01*
X179599523Y-84582857D01*
X179599523Y-84678095D01*
X179551904Y-84820952D01*
X178980476Y-85392380D01*
X179599523Y-85392380D01*
%TO.C,L1*%
X190676666Y-100257619D02*
X191152857Y-100257619D01*
X191152857Y-101257619D01*
X189819523Y-100257619D02*
X190390952Y-100257619D01*
X190105238Y-100257619D02*
X190105238Y-101257619D01*
X190200476Y-101114761D01*
X190295714Y-101019523D01*
X190390952Y-100971904D01*
%TO.C,Y1*%
X175336190Y-103956190D02*
X175812380Y-103956190D01*
X174812380Y-104289523D02*
X175336190Y-103956190D01*
X174812380Y-103622857D01*
X175812380Y-102765714D02*
X175812380Y-103337142D01*
X175812380Y-103051428D02*
X174812380Y-103051428D01*
X174955238Y-103146666D01*
X175050476Y-103241904D01*
X175098095Y-103337142D01*
%TO.C,U4*%
X193238095Y-90002380D02*
X193238095Y-90811904D01*
X193285714Y-90907142D01*
X193333333Y-90954761D01*
X193428571Y-91002380D01*
X193619047Y-91002380D01*
X193714285Y-90954761D01*
X193761904Y-90907142D01*
X193809523Y-90811904D01*
X193809523Y-90002380D01*
X194714285Y-90335714D02*
X194714285Y-91002380D01*
X194476190Y-89954761D02*
X194238095Y-90669047D01*
X194857142Y-90669047D01*
%TO.C,J2*%
X169166666Y-104702380D02*
X169166666Y-105416666D01*
X169119047Y-105559523D01*
X169023809Y-105654761D01*
X168880952Y-105702380D01*
X168785714Y-105702380D01*
X169595238Y-104797619D02*
X169642857Y-104750000D01*
X169738095Y-104702380D01*
X169976190Y-104702380D01*
X170071428Y-104750000D01*
X170119047Y-104797619D01*
X170166666Y-104892857D01*
X170166666Y-104988095D01*
X170119047Y-105130952D01*
X169547619Y-105702380D01*
X170166666Y-105702380D01*
D13*
%TO.C,R3*%
X187402500Y-84962742D02*
X187402500Y-85437258D01*
X188447500Y-84962742D02*
X188447500Y-85437258D01*
%TO.C,J3*%
X182005000Y-102170000D02*
X179405000Y-102170000D01*
X183275000Y-102170000D02*
X184605000Y-102170000D01*
X182005000Y-102170000D02*
X182005000Y-104830000D01*
X182005000Y-104830000D02*
X179405000Y-104830000D01*
X184605000Y-102170000D02*
X184605000Y-103500000D01*
X179405000Y-102170000D02*
X179405000Y-104830000D01*
D14*
%TO.C,D1*%
X191200000Y-92750000D02*
X191100000Y-92750000D01*
X191100000Y-92750000D02*
X191100000Y-92750000D01*
X191200000Y-92750000D02*
X191200000Y-92750000D01*
X191100000Y-92750000D02*
G75*
G03*
X191200000Y-92750000I50000J0D01*
G01*
X191200000Y-92750000D02*
G75*
G03*
X191100000Y-92750000I-50000J0D01*
G01*
D13*
%TO.C,J1*%
X190980000Y-87420000D02*
X190980000Y-90080000D01*
X192250000Y-87420000D02*
X193580000Y-87420000D01*
X185840000Y-87420000D02*
X185840000Y-90080000D01*
X190980000Y-87420000D02*
X185840000Y-87420000D01*
X190980000Y-90080000D02*
X185840000Y-90080000D01*
X193580000Y-87420000D02*
X193580000Y-88750000D01*
%TO.C,R2*%
X190272500Y-84902742D02*
X190272500Y-85377258D01*
X189227500Y-84902742D02*
X189227500Y-85377258D01*
%TO.C,R1*%
X186697500Y-85437258D02*
X186697500Y-84962742D01*
X185652500Y-85437258D02*
X185652500Y-84962742D01*
%TO.C,U2*%
X178790000Y-97545000D02*
X174930000Y-97545000D01*
X174930000Y-85775000D02*
X174930000Y-86020000D01*
X178790000Y-85775000D02*
X174930000Y-85775000D01*
X182650000Y-97545000D02*
X182650000Y-97300000D01*
X178790000Y-85775000D02*
X182650000Y-85775000D01*
X182650000Y-85775000D02*
X182650000Y-86020000D01*
X174930000Y-97545000D02*
X174930000Y-97300000D01*
X174930000Y-86020000D02*
X173115000Y-86020000D01*
X178790000Y-97545000D02*
X182650000Y-97545000D01*
%TO.C,L1*%
X196085000Y-106420000D02*
X185415000Y-106420000D01*
X185415000Y-106420000D02*
X185415000Y-94980000D01*
X185415000Y-94980000D02*
X196085000Y-94980000D01*
X196085000Y-94980000D02*
X196085000Y-106420000D01*
%TO.C,Y1*%
X178450000Y-101550000D02*
X171900000Y-101550000D01*
X171900000Y-105450000D02*
X178450000Y-105450000D01*
X171900000Y-101550000D02*
X171900000Y-105450000D01*
%TO.C,U4*%
X194000000Y-91440000D02*
X193200000Y-91440000D01*
X194000000Y-94560000D02*
X195800000Y-94560000D01*
X194000000Y-94560000D02*
X193200000Y-94560000D01*
X194000000Y-91440000D02*
X194800000Y-91440000D01*
%TO.C,J2*%
X171230000Y-101805000D02*
X168570000Y-101805000D01*
X171230000Y-83965000D02*
X168570000Y-83965000D01*
X171230000Y-103075000D02*
X171230000Y-104405000D01*
X168570000Y-101805000D02*
X168570000Y-83965000D01*
X171230000Y-104405000D02*
X169900000Y-104405000D01*
X171230000Y-101805000D02*
X171230000Y-83965000D01*
%TD*%
M02*
