%TF.GenerationSoftware,KiCad,Pcbnew,6.0.7-f9a2dced07~116~ubuntu20.04.1*%
%TF.CreationDate,2023-02-12T14:19:42-08:00*%
%TF.ProjectId,CAN_Controller,43414e5f-436f-46e7-9472-6f6c6c65722e,rev?*%
%TF.SameCoordinates,Original*%
%TF.FileFunction,Copper,L1,Top*%
%TF.FilePolarity,Positive*%
%FSLAX46Y46*%
G04 Gerber Fmt 4.6, Leading zero omitted, Abs format (unit mm)*
G04 Created by KiCad (PCBNEW 6.0.7-f9a2dced07~116~ubuntu20.04.1) date 2023-02-12 14:19:42*
%MOMM*%
%LPD*%
G01*
G04 APERTURE LIST*
G04 Aperture macros list*
%AMRoundRect*
0 Rectangle with rounded corners*
0 $1 Rounding radius*
0 $2 $3 $4 $5 $6 $7 $8 $9 X,Y pos of 4 corners*
0 Add a 4 corners polygon primitive as box body*
4,1,4,$2,$3,$4,$5,$6,$7,$8,$9,$2,$3,0*
0 Add four circle primitives for the rounded corners*
1,1,$1+$1,$2,$3*
1,1,$1+$1,$4,$5*
1,1,$1+$1,$6,$7*
1,1,$1+$1,$8,$9*
0 Add four rect primitives between the rounded corners*
20,1,$1+$1,$2,$3,$4,$5,0*
20,1,$1+$1,$4,$5,$6,$7,0*
20,1,$1+$1,$6,$7,$8,$9,0*
20,1,$1+$1,$8,$9,$2,$3,0*%
G04 Aperture macros list end*
%TA.AperFunction,SMDPad,CuDef*%
%ADD10RoundRect,0.200000X-0.275000X0.200000X-0.275000X-0.200000X0.275000X-0.200000X0.275000X0.200000X0*%
%TD*%
%TA.AperFunction,ComponentPad*%
%ADD11R,1.700000X1.700000*%
%TD*%
%TA.AperFunction,ComponentPad*%
%ADD12O,1.700000X1.700000*%
%TD*%
%TA.AperFunction,SMDPad,CuDef*%
%ADD13R,0.780000X0.990000*%
%TD*%
%TA.AperFunction,SMDPad,CuDef*%
%ADD14R,2.200000X1.400000*%
%TD*%
%TA.AperFunction,SMDPad,CuDef*%
%ADD15R,0.900000X1.400000*%
%TD*%
%TA.AperFunction,SMDPad,CuDef*%
%ADD16RoundRect,0.200000X0.275000X-0.200000X0.275000X0.200000X-0.275000X0.200000X-0.275000X-0.200000X0*%
%TD*%
%TA.AperFunction,SMDPad,CuDef*%
%ADD17RoundRect,0.150000X-0.875000X-0.150000X0.875000X-0.150000X0.875000X0.150000X-0.875000X0.150000X0*%
%TD*%
%TA.AperFunction,SMDPad,CuDef*%
%ADD18RoundRect,0.445000X1.335000X0.445000X-1.335000X0.445000X-1.335000X-0.445000X1.335000X-0.445000X0*%
%TD*%
%TA.AperFunction,SMDPad,CuDef*%
%ADD19R,1.900000X2.500000*%
%TD*%
%TA.AperFunction,SMDPad,CuDef*%
%ADD20RoundRect,0.150000X0.512500X0.150000X-0.512500X0.150000X-0.512500X-0.150000X0.512500X-0.150000X0*%
%TD*%
%TA.AperFunction,ViaPad*%
%ADD21C,0.800000*%
%TD*%
%TA.AperFunction,Conductor*%
%ADD22C,0.250000*%
%TD*%
%TA.AperFunction,Conductor*%
%ADD23C,0.825500*%
%TD*%
%TA.AperFunction,Conductor*%
%ADD24C,0.254000*%
%TD*%
%TA.AperFunction,Conductor*%
%ADD25C,0.508000*%
%TD*%
%TA.AperFunction,Conductor*%
%ADD26C,0.711200*%
%TD*%
%TA.AperFunction,Conductor*%
%ADD27C,0.635000*%
%TD*%
%TA.AperFunction,Conductor*%
%ADD28C,1.016000*%
%TD*%
G04 APERTURE END LIST*
D10*
%TO.P,R3,1*%
%TO.N,Vos*%
X187925000Y-84375000D03*
%TO.P,R3,2*%
%TO.N,Net-(R2-Pad2)*%
X187925000Y-86025000D03*
%TD*%
D11*
%TO.P,J3,1,Pin_1*%
%TO.N,CAN L*%
X183275000Y-103500000D03*
D12*
%TO.P,J3,2,Pin_2*%
%TO.N,CAN H*%
X180735000Y-103500000D03*
%TD*%
D13*
%TO.P,C5,1*%
%TO.N,Net-(C5-Pad1)*%
X195950000Y-85250000D03*
%TO.P,C5,2*%
%TO.N,Net-(C5-Pad2)*%
X194550000Y-85250000D03*
%TD*%
D14*
%TO.P,D1,1,K*%
%TO.N,Net-(D1-Pad1)*%
X189450000Y-92750000D03*
D15*
%TO.P,D1,2,A*%
%TO.N,GND*%
X186900000Y-92750000D03*
%TD*%
D11*
%TO.P,J1,1,Pin_1*%
%TO.N,GND*%
X192250000Y-88750000D03*
D12*
%TO.P,J1,2,Pin_2*%
%TO.N,Vdd*%
X189710000Y-88750000D03*
%TO.P,J1,3,Pin_3*%
%TO.N,Vos*%
X187170000Y-88750000D03*
%TD*%
D10*
%TO.P,R2,1*%
%TO.N,GND*%
X189750000Y-84315000D03*
%TO.P,R2,2*%
%TO.N,Net-(R2-Pad2)*%
X189750000Y-85965000D03*
%TD*%
D16*
%TO.P,R1,1*%
%TO.N,Net-(R1-Pad1)*%
X186175000Y-86025000D03*
%TO.P,R1,2*%
%TO.N,Vos*%
X186175000Y-84375000D03*
%TD*%
D17*
%TO.P,U2,1,TXCAN*%
%TO.N,Net-(U2-Pad1)*%
X174140000Y-86580000D03*
%TO.P,U2,2,RXCAN*%
%TO.N,Net-(U2-Pad2)*%
X174140000Y-87850000D03*
%TO.P,U2,3,CLKOUT/SOF*%
%TO.N,unconnected-(U2-Pad3)*%
X174140000Y-89120000D03*
%TO.P,U2,4,~{TX0RTS}*%
%TO.N,unconnected-(U2-Pad4)*%
X174140000Y-90390000D03*
%TO.P,U2,5,~{TX1RTS}*%
%TO.N,unconnected-(U2-Pad5)*%
X174140000Y-91660000D03*
%TO.P,U2,6,~{TX2RTS}*%
%TO.N,unconnected-(U2-Pad6)*%
X174140000Y-92930000D03*
%TO.P,U2,7,OSC2*%
%TO.N,Net-(C2-Pad1)*%
X174140000Y-94200000D03*
%TO.P,U2,8,OSC1*%
%TO.N,Net-(C1-Pad1)*%
X174140000Y-95470000D03*
%TO.P,U2,9,VSS*%
%TO.N,GND*%
X174140000Y-96740000D03*
%TO.P,U2,10,~{RX1BF}*%
%TO.N,unconnected-(U2-Pad10)*%
X183440000Y-96740000D03*
%TO.P,U2,11,~{RX0BF}*%
%TO.N,unconnected-(U2-Pad11)*%
X183440000Y-95470000D03*
%TO.P,U2,12,~{INT}*%
%TO.N,Net-(U1-Pad2)*%
X183440000Y-94200000D03*
%TO.P,U2,13,SCK*%
%TO.N,Net-(U1-Pad13)*%
X183440000Y-92930000D03*
%TO.P,U2,14,SI*%
%TO.N,Net-(U1-Pad11)*%
X183440000Y-91660000D03*
%TO.P,U2,15,SO*%
%TO.N,Net-(U1-Pad12)*%
X183440000Y-90390000D03*
%TO.P,U2,16,~{CS}*%
%TO.N,Net-(J2-Pad8)*%
X183440000Y-89120000D03*
%TO.P,U2,17,~{RESET}*%
%TO.N,Net-(R1-Pad1)*%
X183440000Y-87850000D03*
%TO.P,U2,18,VDD*%
%TO.N,Vos*%
X183440000Y-86580000D03*
%TD*%
D18*
%TO.P,L1,1,A*%
%TO.N,Net-(D1-Pad1)*%
X190750000Y-95950000D03*
%TO.P,L1,2,B*%
%TO.N,Vos*%
X190750000Y-105350000D03*
%TD*%
D19*
%TO.P,Y1,1,1*%
%TO.N,Net-(C1-Pad1)*%
X173050000Y-103500000D03*
%TO.P,Y1,2,2*%
%TO.N,Net-(C2-Pad1)*%
X177450000Y-103500000D03*
%TD*%
D20*
%TO.P,U4,1,BOOST*%
%TO.N,Net-(C5-Pad1)*%
X195137500Y-93950000D03*
%TO.P,U4,2,GND*%
%TO.N,GND*%
X195137500Y-93000000D03*
%TO.P,U4,3,VFB*%
%TO.N,Net-(R2-Pad2)*%
X195137500Y-92050000D03*
%TO.P,U4,4,EN*%
%TO.N,unconnected-(U4-Pad4)*%
X192862500Y-92050000D03*
%TO.P,U4,5,VIN*%
%TO.N,Vdd*%
X192862500Y-93000000D03*
%TO.P,U4,6,SW*%
%TO.N,Net-(D1-Pad1)*%
X192862500Y-93950000D03*
%TD*%
D11*
%TO.P,J2,1,Pin_1*%
%TO.N,Net-(J2-Pad1)*%
X169900000Y-103075000D03*
D12*
%TO.P,J2,2,Pin_2*%
%TO.N,Net-(J2-Pad2)*%
X169900000Y-100535000D03*
%TO.P,J2,3,Pin_3*%
%TO.N,Net-(J2-Pad3)*%
X169900000Y-97995000D03*
%TO.P,J2,4,Pin_4*%
%TO.N,Net-(J2-Pad4)*%
X169900000Y-95455000D03*
%TO.P,J2,5,Pin_5*%
%TO.N,Net-(J2-Pad5)*%
X169900000Y-92915000D03*
%TO.P,J2,6,Pin_6*%
%TO.N,Net-(J2-Pad6)*%
X169900000Y-90375000D03*
%TO.P,J2,7,Pin_7*%
%TO.N,Net-(J2-Pad7)*%
X169900000Y-87835000D03*
%TO.P,J2,8,Pin_8*%
%TO.N,Net-(J2-Pad8)*%
X169900000Y-85295000D03*
%TD*%
D21*
%TO.N,GND*%
X194050000Y-94650000D03*
X188450000Y-89850000D03*
X186250000Y-97450000D03*
X185450000Y-104050000D03*
X195050000Y-102250000D03*
X193850000Y-102250000D03*
X192650000Y-102250000D03*
X188850000Y-102250000D03*
X184250000Y-99850000D03*
X174850000Y-99450000D03*
X179850000Y-98050000D03*
X179850000Y-95450000D03*
X181050000Y-100050000D03*
%TO.N,Net-(C1-Pad1)*%
X173000000Y-101050000D03*
%TO.N,GND*%
X195850000Y-103250000D03*
X186250000Y-94650000D03*
X195850000Y-106050000D03*
X181050000Y-101250000D03*
X195850000Y-100250000D03*
X174500000Y-98250000D03*
X175650000Y-104050000D03*
X176050000Y-101250000D03*
X192000000Y-84250000D03*
X195850000Y-95450000D03*
X187250000Y-98450000D03*
X195975500Y-90500000D03*
X194050000Y-106050000D03*
X194250000Y-87850000D03*
X185450000Y-88850000D03*
X185650000Y-101650000D03*
X195850000Y-101850000D03*
X193250000Y-84050000D03*
X189050000Y-98450000D03*
X192450000Y-98450000D03*
X190850000Y-87050000D03*
X176050000Y-100050000D03*
X185450000Y-102850000D03*
X195850000Y-97050000D03*
X190650000Y-98450000D03*
X194050000Y-98450000D03*
X195850000Y-98450000D03*
X175650000Y-102450000D03*
X179250000Y-101250000D03*
X188450000Y-87250000D03*
X195850000Y-104650000D03*
X194250000Y-89650000D03*
X184250000Y-101650000D03*
X187850000Y-94450000D03*
X179250000Y-100050000D03*
X193250000Y-87050000D03*
X187450000Y-102250000D03*
%TO.N,Net-(C2-Pad1)*%
X177500000Y-101050000D03*
%TO.N,Vdd*%
X194000000Y-91250000D03*
%TO.N,Vos*%
X184250000Y-84750000D03*
X191250000Y-101000000D03*
X190000000Y-101000000D03*
X173250000Y-99250000D03*
%TO.N,Net-(U1-Pad2)*%
X178790000Y-92930000D03*
%TO.N,Net-(U1-Pad11)*%
X178790000Y-89120000D03*
%TO.N,Net-(U1-Pad12)*%
X179750000Y-90390000D03*
%TO.N,Net-(U1-Pad13)*%
X178790000Y-91660000D03*
%TO.N,Net-(U2-Pad1)*%
X178224500Y-98500000D03*
%TO.N,Net-(U2-Pad2)*%
X178205073Y-94394977D03*
%TO.N,Net-(J2-Pad7)*%
X178790000Y-86580000D03*
%TO.N,Net-(J2-Pad8)*%
X178790000Y-87850000D03*
%TO.N,Net-(C5-Pad2)*%
X191000000Y-85238500D03*
%TD*%
D22*
%TO.N,Net-(C1-Pad1)*%
X173050000Y-100550000D02*
X173000000Y-100500000D01*
X172500000Y-95750000D02*
X172780000Y-95470000D01*
X172500000Y-100000000D02*
X172500000Y-95750000D01*
X173000000Y-100500000D02*
X172500000Y-100000000D01*
X172780000Y-95470000D02*
X174140000Y-95470000D01*
X173050000Y-102950000D02*
X173050000Y-100550000D01*
%TO.N,GND*%
X192000000Y-84250000D02*
X191935000Y-84315000D01*
D23*
X187500000Y-90750000D02*
X192000000Y-90750000D01*
X192250000Y-90500000D02*
X192250000Y-88950000D01*
X186900000Y-91350000D02*
X187500000Y-90750000D01*
D24*
X174500000Y-98250000D02*
X174140000Y-97890000D01*
D22*
X196250000Y-90774500D02*
X196250000Y-92271751D01*
X195550000Y-93200000D02*
X194887500Y-93200000D01*
D23*
X192000000Y-90750000D02*
X192250000Y-90500000D01*
D24*
X174140000Y-97890000D02*
X174140000Y-96740000D01*
D22*
X195975500Y-90500000D02*
X196250000Y-90774500D01*
X191935000Y-84315000D02*
X189750000Y-84315000D01*
D23*
X186900000Y-92950000D02*
X186900000Y-91350000D01*
D22*
X195521751Y-93000000D02*
X195137500Y-93000000D01*
X196250000Y-92271751D02*
X195521751Y-93000000D01*
%TO.N,Net-(C2-Pad1)*%
X177500000Y-100500000D02*
X177500000Y-96000000D01*
X177500000Y-96000000D02*
X175700000Y-94200000D01*
X177450000Y-102950000D02*
X177450000Y-100550000D01*
X175700000Y-94200000D02*
X174140000Y-94200000D01*
X177450000Y-100550000D02*
X177500000Y-100500000D01*
X177500000Y-100500000D02*
X177500000Y-100550000D01*
%TO.N,Vdd*%
X194000000Y-92246751D02*
X193246751Y-93000000D01*
X193246751Y-93000000D02*
X192862500Y-93000000D01*
X194000000Y-91250000D02*
X194000000Y-92246751D01*
D23*
%TO.N,Vos*%
X190000000Y-101000000D02*
X190250000Y-101250000D01*
X191250000Y-101000000D02*
X190750000Y-101000000D01*
D22*
X174750000Y-104250000D02*
X174750000Y-100750000D01*
D25*
X190750000Y-105350000D02*
X190750000Y-101000000D01*
D22*
X186175000Y-84375000D02*
X186000000Y-84375000D01*
X175850000Y-105350000D02*
X174750000Y-104250000D01*
D24*
X184250000Y-84750000D02*
X184250000Y-85770000D01*
D23*
X190750000Y-101000000D02*
X190000000Y-101000000D01*
D24*
X184625000Y-84375000D02*
X186000000Y-84375000D01*
D22*
X174750000Y-100750000D02*
X173250000Y-99250000D01*
D24*
X184250000Y-85770000D02*
X183440000Y-86580000D01*
D22*
X190750000Y-105350000D02*
X175850000Y-105350000D01*
D23*
X190250000Y-101250000D02*
X190250000Y-104850000D01*
D22*
X190250000Y-101000000D02*
X190000000Y-101000000D01*
D24*
X184250000Y-84750000D02*
X184625000Y-84375000D01*
D22*
X190750000Y-105350000D02*
X191250000Y-104850000D01*
D26*
X191250000Y-104850000D02*
X191250000Y-101000000D01*
D24*
X186175000Y-84375000D02*
X187925000Y-84375000D01*
D23*
X190250000Y-104850000D02*
X190750000Y-105350000D01*
D24*
%TO.N,Net-(R1-Pad1)*%
X183440000Y-87850000D02*
X184650000Y-87850000D01*
X184650000Y-87850000D02*
X185000000Y-87500000D01*
X185000000Y-87500000D02*
X185000000Y-86250000D01*
X185225000Y-86025000D02*
X186175000Y-86025000D01*
X185000000Y-86250000D02*
X185225000Y-86025000D01*
D22*
%TO.N,Net-(U1-Pad2)*%
X183440000Y-94200000D02*
X180060000Y-94200000D01*
X180060000Y-94200000D02*
X178790000Y-92930000D01*
%TO.N,Net-(U1-Pad11)*%
X178790000Y-90634695D02*
X179815305Y-91660000D01*
X179815305Y-91660000D02*
X183440000Y-91660000D01*
X178790000Y-89120000D02*
X178790000Y-90634695D01*
%TO.N,Net-(U1-Pad12)*%
X179750000Y-90390000D02*
X183440000Y-90390000D01*
%TO.N,Net-(U1-Pad13)*%
X180060000Y-92930000D02*
X178790000Y-91660000D01*
X183440000Y-92930000D02*
X180060000Y-92930000D01*
%TO.N,Net-(U2-Pad1)*%
X176830000Y-86580000D02*
X174140000Y-86580000D01*
X178065000Y-87815000D02*
X176830000Y-86580000D01*
X178065000Y-93230305D02*
X178065000Y-87815000D01*
X178930073Y-94095378D02*
X178065000Y-93230305D01*
X178224500Y-98500000D02*
X178930073Y-97794427D01*
X178930073Y-97794427D02*
X178930073Y-94095378D01*
%TO.N,Net-(U2-Pad2)*%
X178205073Y-94006774D02*
X177615000Y-93416701D01*
X177615000Y-93416701D02*
X177615000Y-88115000D01*
X178205073Y-94394977D02*
X178205073Y-94006774D01*
X177350000Y-87850000D02*
X174140000Y-87850000D01*
X177615000Y-88115000D02*
X177350000Y-87850000D01*
%TO.N,Net-(J2-Pad7)*%
X178790000Y-86580000D02*
X175960000Y-83750000D01*
X168250000Y-86185000D02*
X169900000Y-87835000D01*
X169000000Y-83750000D02*
X168250000Y-84500000D01*
X168250000Y-84500000D02*
X168250000Y-86185000D01*
X175960000Y-83750000D02*
X169000000Y-83750000D01*
%TO.N,Net-(J2-Pad8)*%
X178790000Y-87850000D02*
X176235000Y-85295000D01*
X178790000Y-87850000D02*
X180695000Y-87850000D01*
X181965000Y-89120000D02*
X183440000Y-89120000D01*
X176235000Y-85295000D02*
X169900000Y-85295000D01*
X180695000Y-87850000D02*
X181965000Y-89120000D01*
D27*
%TO.N,Net-(D1-Pad1)*%
X192862500Y-93950000D02*
X191800000Y-93950000D01*
D28*
X189450000Y-95950000D02*
X190750000Y-95950000D01*
D27*
X190750000Y-95000000D02*
X190750000Y-95950000D01*
D28*
X189450000Y-92750000D02*
X189450000Y-95950000D01*
D22*
X190750000Y-95250000D02*
X190750000Y-95950000D01*
D27*
X191800000Y-93950000D02*
X190750000Y-95000000D01*
D22*
%TO.N,Net-(R2-Pad2)*%
X195250500Y-87382500D02*
X194368000Y-86500000D01*
X195137500Y-92050000D02*
X195250500Y-91937000D01*
D24*
X189690000Y-86025000D02*
X189750000Y-85965000D01*
X193833000Y-85965000D02*
X194368000Y-86500000D01*
X187925000Y-86025000D02*
X189690000Y-86025000D01*
X189750000Y-85965000D02*
X193833000Y-85965000D01*
D22*
X195250500Y-91937000D02*
X195250500Y-87382500D01*
%TO.N,Net-(C5-Pad1)*%
X195950000Y-85250000D02*
X196700000Y-86000000D01*
X196700000Y-92771751D02*
X195521751Y-93950000D01*
X196700000Y-86000000D02*
X196700000Y-92771751D01*
D24*
X195600000Y-94150000D02*
X194887500Y-94150000D01*
D22*
X195521751Y-93950000D02*
X195137500Y-93950000D01*
%TO.N,Net-(C5-Pad2)*%
X191000000Y-85238500D02*
X191011500Y-85250000D01*
X191011500Y-85250000D02*
X194550000Y-85250000D01*
%TD*%
%TA.AperFunction,Conductor*%
%TO.N,GND*%
G36*
X193585699Y-86620502D02*
G01*
X193606673Y-86637405D01*
X193946906Y-86977638D01*
X193953258Y-86982565D01*
X193965119Y-86993023D01*
X194580095Y-87607999D01*
X194614121Y-87670311D01*
X194617000Y-87697094D01*
X194617000Y-90336206D01*
X194596998Y-90404327D01*
X194543342Y-90450820D01*
X194473068Y-90460924D01*
X194439753Y-90451314D01*
X194282288Y-90381206D01*
X194188888Y-90361353D01*
X194101944Y-90342872D01*
X194101939Y-90342872D01*
X194095487Y-90341500D01*
X193904513Y-90341500D01*
X193898061Y-90342872D01*
X193898056Y-90342872D01*
X193811113Y-90361353D01*
X193717712Y-90381206D01*
X193711682Y-90383891D01*
X193711681Y-90383891D01*
X193549278Y-90456197D01*
X193549276Y-90456198D01*
X193543248Y-90458882D01*
X193388747Y-90571134D01*
X193384326Y-90576044D01*
X193384325Y-90576045D01*
X193310588Y-90657939D01*
X193260960Y-90713056D01*
X193165473Y-90878444D01*
X193106458Y-91060072D01*
X193105768Y-91066635D01*
X193105768Y-91066636D01*
X193099248Y-91128671D01*
X193072235Y-91194327D01*
X193014013Y-91234957D01*
X192973938Y-91241500D01*
X192283498Y-91241500D01*
X192281050Y-91241693D01*
X192281042Y-91241693D01*
X192252579Y-91243933D01*
X192252574Y-91243934D01*
X192246169Y-91244438D01*
X192146231Y-91273472D01*
X192094012Y-91288643D01*
X192094010Y-91288644D01*
X192086399Y-91290855D01*
X192079572Y-91294892D01*
X192079573Y-91294892D01*
X191950020Y-91371509D01*
X191950017Y-91371511D01*
X191943193Y-91375547D01*
X191825547Y-91493193D01*
X191821511Y-91500017D01*
X191821509Y-91500020D01*
X191764609Y-91596233D01*
X191740855Y-91636399D01*
X191694438Y-91796169D01*
X191691500Y-91833498D01*
X191691500Y-92266502D01*
X191691693Y-92268950D01*
X191691693Y-92268958D01*
X191693743Y-92295000D01*
X191694438Y-92303831D01*
X191740855Y-92463601D01*
X191744887Y-92470419D01*
X191746853Y-92474962D01*
X191755549Y-92545424D01*
X191746853Y-92575038D01*
X191744887Y-92579581D01*
X191740855Y-92586399D01*
X191694438Y-92746169D01*
X191691500Y-92783498D01*
X191691500Y-93023045D01*
X191671498Y-93091166D01*
X191617842Y-93137659D01*
X191602373Y-93143038D01*
X191601810Y-93143113D01*
X191528404Y-93169831D01*
X191525569Y-93170824D01*
X191451489Y-93195754D01*
X191445639Y-93199269D01*
X191443427Y-93200291D01*
X191442922Y-93200499D01*
X191442239Y-93200825D01*
X191441723Y-93201106D01*
X191439582Y-93202160D01*
X191433166Y-93204495D01*
X191427401Y-93208153D01*
X191427402Y-93208153D01*
X191367241Y-93246331D01*
X191364623Y-93247948D01*
X191297656Y-93288186D01*
X191292699Y-93292874D01*
X191290763Y-93294343D01*
X191289840Y-93294984D01*
X191285995Y-93297892D01*
X191281636Y-93300658D01*
X191277536Y-93304323D01*
X191273595Y-93308264D01*
X191211283Y-93342290D01*
X191140468Y-93337225D01*
X191083632Y-93294678D01*
X191058821Y-93228158D01*
X191058500Y-93219169D01*
X191058500Y-92001866D01*
X191051745Y-91939684D01*
X191000615Y-91803295D01*
X190913261Y-91686739D01*
X190796705Y-91599385D01*
X190660316Y-91548255D01*
X190598134Y-91541500D01*
X188301866Y-91541500D01*
X188239684Y-91548255D01*
X188103295Y-91599385D01*
X187986739Y-91686739D01*
X187960561Y-91721669D01*
X187950514Y-91735074D01*
X187893655Y-91777589D01*
X187822836Y-91782615D01*
X187760543Y-91748555D01*
X187748862Y-91735075D01*
X187718283Y-91694274D01*
X187705724Y-91681715D01*
X187603649Y-91605214D01*
X187588054Y-91596676D01*
X187467606Y-91551522D01*
X187452351Y-91547895D01*
X187401486Y-91542369D01*
X187394672Y-91542000D01*
X187172115Y-91542000D01*
X187156876Y-91546475D01*
X187155671Y-91547865D01*
X187154000Y-91555548D01*
X187154000Y-93939884D01*
X187158475Y-93955123D01*
X187159865Y-93956328D01*
X187167548Y-93957999D01*
X187394669Y-93957999D01*
X187401490Y-93957629D01*
X187452352Y-93952105D01*
X187467604Y-93948479D01*
X187588054Y-93903324D01*
X187603649Y-93894786D01*
X187705724Y-93818285D01*
X187718283Y-93805726D01*
X187748862Y-93764925D01*
X187805722Y-93722411D01*
X187876540Y-93717386D01*
X187938834Y-93751446D01*
X187950513Y-93764925D01*
X187986739Y-93813261D01*
X188103295Y-93900615D01*
X188239684Y-93951745D01*
X188301866Y-93958500D01*
X188307500Y-93958500D01*
X188308002Y-93958647D01*
X188308680Y-93958684D01*
X188308671Y-93958844D01*
X188375621Y-93978502D01*
X188422114Y-94032158D01*
X188433500Y-94084500D01*
X188433500Y-95889709D01*
X188432810Y-95902879D01*
X188428607Y-95942869D01*
X188430299Y-95961453D01*
X188433213Y-95993477D01*
X188433500Y-95997578D01*
X188433500Y-96000157D01*
X188433800Y-96003213D01*
X188433800Y-96003220D01*
X188437927Y-96045308D01*
X188438009Y-96046183D01*
X188444376Y-96116139D01*
X188446674Y-96141395D01*
X188447686Y-96144833D01*
X188448035Y-96148394D01*
X188456123Y-96175181D01*
X188461501Y-96211600D01*
X188461501Y-96450094D01*
X188471730Y-96564721D01*
X188473382Y-96570482D01*
X188515373Y-96716921D01*
X188525123Y-96750925D01*
X188528083Y-96756587D01*
X188551652Y-96801669D01*
X188614868Y-96922590D01*
X188618899Y-96927533D01*
X188618902Y-96927537D01*
X188673108Y-96994000D01*
X188737297Y-97072703D01*
X188742237Y-97076732D01*
X188882463Y-97191098D01*
X188882467Y-97191101D01*
X188887410Y-97195132D01*
X189059075Y-97284877D01*
X189245279Y-97338270D01*
X189251251Y-97338803D01*
X189357112Y-97348251D01*
X189357118Y-97348251D01*
X189359905Y-97348500D01*
X190749504Y-97348500D01*
X192140094Y-97348499D01*
X192222274Y-97341165D01*
X192248750Y-97338803D01*
X192248752Y-97338803D01*
X192254721Y-97338270D01*
X192440925Y-97284877D01*
X192612590Y-97195132D01*
X192617533Y-97191101D01*
X192617537Y-97191098D01*
X192757763Y-97076732D01*
X192762703Y-97072703D01*
X192826892Y-96994000D01*
X192881098Y-96927537D01*
X192881101Y-96927533D01*
X192885132Y-96922590D01*
X192948349Y-96801669D01*
X192971917Y-96756587D01*
X192974877Y-96750925D01*
X192984628Y-96716921D01*
X193026617Y-96570485D01*
X193026618Y-96570482D01*
X193028270Y-96564721D01*
X193034120Y-96499171D01*
X193038251Y-96452888D01*
X193038251Y-96452882D01*
X193038500Y-96450095D01*
X193038499Y-95449906D01*
X193028270Y-95335279D01*
X193004560Y-95252593D01*
X192976638Y-95155216D01*
X192976638Y-95155215D01*
X192974877Y-95149075D01*
X192919512Y-95043172D01*
X192888090Y-94983068D01*
X192885132Y-94977410D01*
X192881098Y-94972464D01*
X192877583Y-94967133D01*
X192879188Y-94966075D01*
X192855160Y-94909008D01*
X192867358Y-94839067D01*
X192915432Y-94786824D01*
X192966749Y-94769546D01*
X192985492Y-94767510D01*
X193034136Y-94762226D01*
X193034139Y-94762225D01*
X193040917Y-94761489D01*
X193042662Y-94760902D01*
X193064767Y-94758500D01*
X193441502Y-94758500D01*
X193443950Y-94758307D01*
X193443958Y-94758307D01*
X193472421Y-94756067D01*
X193472426Y-94756066D01*
X193478831Y-94755562D01*
X193612989Y-94716586D01*
X193630988Y-94711357D01*
X193630990Y-94711356D01*
X193638601Y-94709145D01*
X193684080Y-94682249D01*
X193774980Y-94628491D01*
X193774983Y-94628489D01*
X193781807Y-94624453D01*
X193899453Y-94506807D01*
X193901706Y-94502998D01*
X193957996Y-94462345D01*
X194028888Y-94458494D01*
X194090609Y-94493582D01*
X194097276Y-94501276D01*
X194100547Y-94506807D01*
X194218193Y-94624453D01*
X194225017Y-94628489D01*
X194225020Y-94628491D01*
X194315920Y-94682249D01*
X194361399Y-94709145D01*
X194369010Y-94711356D01*
X194369012Y-94711357D01*
X194387011Y-94716586D01*
X194521169Y-94755562D01*
X194527574Y-94756066D01*
X194527579Y-94756067D01*
X194556042Y-94758307D01*
X194556050Y-94758307D01*
X194558498Y-94758500D01*
X194686144Y-94758500D01*
X194717480Y-94762459D01*
X194807218Y-94785500D01*
X195639983Y-94785500D01*
X195704094Y-94777401D01*
X195751434Y-94771421D01*
X195751437Y-94771420D01*
X195759299Y-94770427D01*
X195766665Y-94767510D01*
X195766667Y-94767510D01*
X195901223Y-94714235D01*
X195908588Y-94711319D01*
X195910234Y-94710123D01*
X195913601Y-94709145D01*
X195959080Y-94682249D01*
X196049980Y-94628491D01*
X196049983Y-94628489D01*
X196056807Y-94624453D01*
X196174453Y-94506807D01*
X196178489Y-94499983D01*
X196178491Y-94499980D01*
X196255108Y-94370427D01*
X196259145Y-94363601D01*
X196272654Y-94317104D01*
X196279067Y-94295027D01*
X196305562Y-94203831D01*
X196306187Y-94195897D01*
X196308307Y-94168958D01*
X196308307Y-94168950D01*
X196308500Y-94166502D01*
X196308500Y-94111345D01*
X196328502Y-94043224D01*
X196345405Y-94022250D01*
X196526405Y-93841250D01*
X196588717Y-93807224D01*
X196659532Y-93812289D01*
X196716368Y-93854836D01*
X196741179Y-93921356D01*
X196741500Y-93930345D01*
X196741500Y-106615500D01*
X196721498Y-106683621D01*
X196667842Y-106730114D01*
X196615500Y-106741500D01*
X192786975Y-106741500D01*
X192718854Y-106721498D01*
X192672361Y-106667842D01*
X192662257Y-106597568D01*
X192691751Y-106532988D01*
X192707339Y-106517857D01*
X192757763Y-106476732D01*
X192762703Y-106472703D01*
X192766732Y-106467763D01*
X192881098Y-106327537D01*
X192881101Y-106327533D01*
X192885132Y-106322590D01*
X192974877Y-106150925D01*
X193028270Y-105964721D01*
X193032303Y-105919533D01*
X193038251Y-105852888D01*
X193038251Y-105852882D01*
X193038500Y-105850095D01*
X193038499Y-104849906D01*
X193028270Y-104735279D01*
X192996714Y-104625230D01*
X192976638Y-104555216D01*
X192976638Y-104555215D01*
X192974877Y-104549075D01*
X192935596Y-104473938D01*
X192888090Y-104383068D01*
X192885132Y-104377410D01*
X192881101Y-104372467D01*
X192881098Y-104372463D01*
X192766732Y-104232237D01*
X192762703Y-104227297D01*
X192731780Y-104202077D01*
X192617537Y-104108902D01*
X192617533Y-104108899D01*
X192612590Y-104104868D01*
X192458860Y-104024499D01*
X192446587Y-104018083D01*
X192440925Y-104015123D01*
X192254721Y-103961730D01*
X192248749Y-103961197D01*
X192228897Y-103959425D01*
X192162825Y-103933445D01*
X192121286Y-103875869D01*
X192114100Y-103833924D01*
X192114100Y-101350962D01*
X192124993Y-101299714D01*
X192128301Y-101292285D01*
X192128304Y-101292277D01*
X192130987Y-101286250D01*
X192159675Y-101151285D01*
X192169878Y-101103284D01*
X192169878Y-101103280D01*
X192171250Y-101096827D01*
X192171250Y-100903173D01*
X192155277Y-100828023D01*
X192142256Y-100766768D01*
X192130987Y-100713750D01*
X192100039Y-100644240D01*
X192054906Y-100542868D01*
X192054905Y-100542866D01*
X192052221Y-100536838D01*
X192034943Y-100513056D01*
X191942273Y-100385507D01*
X191938394Y-100380168D01*
X191929162Y-100371855D01*
X191799388Y-100255006D01*
X191799387Y-100255005D01*
X191794480Y-100250587D01*
X191658832Y-100172271D01*
X191632493Y-100157064D01*
X191632489Y-100157062D01*
X191626770Y-100153760D01*
X191442594Y-100093917D01*
X191436033Y-100093227D01*
X191436031Y-100093227D01*
X191381277Y-100087472D01*
X191298286Y-100078750D01*
X190027424Y-100078750D01*
X190020830Y-100078577D01*
X189958111Y-100075290D01*
X189958107Y-100075290D01*
X189951519Y-100074945D01*
X189945003Y-100075977D01*
X189945002Y-100075977D01*
X189928586Y-100078577D01*
X189882969Y-100085802D01*
X189876441Y-100086661D01*
X189849630Y-100089479D01*
X189813969Y-100093227D01*
X189813967Y-100093227D01*
X189807406Y-100093917D01*
X189801130Y-100095956D01*
X189801126Y-100095957D01*
X189793710Y-100098367D01*
X189774480Y-100102984D01*
X189766774Y-100104204D01*
X189766768Y-100104206D01*
X189760250Y-100105238D01*
X189754085Y-100107604D01*
X189754083Y-100107605D01*
X189695461Y-100130108D01*
X189689243Y-100132310D01*
X189623230Y-100153760D01*
X189610755Y-100160963D01*
X189592909Y-100169475D01*
X189585624Y-100172271D01*
X189585617Y-100172274D01*
X189579457Y-100174639D01*
X189573918Y-100178236D01*
X189521253Y-100212437D01*
X189515629Y-100215883D01*
X189461242Y-100247283D01*
X189461241Y-100247284D01*
X189455520Y-100250587D01*
X189450609Y-100255009D01*
X189450606Y-100255011D01*
X189444808Y-100260231D01*
X189429124Y-100272266D01*
X189425549Y-100274588D01*
X189417045Y-100280111D01*
X189367989Y-100329167D01*
X189363205Y-100333708D01*
X189320839Y-100371855D01*
X189311606Y-100380168D01*
X189307727Y-100385507D01*
X189303133Y-100391830D01*
X189290292Y-100406864D01*
X189280111Y-100417045D01*
X189263801Y-100442160D01*
X189242319Y-100475239D01*
X189238584Y-100480673D01*
X189197779Y-100536837D01*
X189195094Y-100542867D01*
X189195093Y-100542869D01*
X189191916Y-100550005D01*
X189182483Y-100567378D01*
X189178238Y-100573914D01*
X189178236Y-100573918D01*
X189174639Y-100579457D01*
X189172272Y-100585624D01*
X189149771Y-100644240D01*
X189147247Y-100650333D01*
X189121700Y-100707713D01*
X189121698Y-100707719D01*
X189119013Y-100713750D01*
X189116016Y-100727849D01*
X189110402Y-100746798D01*
X189105239Y-100760249D01*
X189094505Y-100828023D01*
X189094382Y-100828799D01*
X189093180Y-100835285D01*
X189078750Y-100903173D01*
X189078750Y-100917577D01*
X189077199Y-100937287D01*
X189074945Y-100951519D01*
X189075290Y-100958107D01*
X189075290Y-100958111D01*
X189078577Y-101020830D01*
X189078750Y-101027424D01*
X189078750Y-101096827D01*
X189081744Y-101110912D01*
X189084325Y-101130517D01*
X189085079Y-101144910D01*
X189086787Y-101151283D01*
X189086787Y-101151285D01*
X189103046Y-101211965D01*
X189104585Y-101218378D01*
X189117638Y-101279784D01*
X189117640Y-101279789D01*
X189119013Y-101286250D01*
X189121700Y-101292285D01*
X189124872Y-101299410D01*
X189131470Y-101318041D01*
X189135201Y-101331965D01*
X189138198Y-101337846D01*
X189138201Y-101337855D01*
X189166713Y-101393813D01*
X189169553Y-101399766D01*
X189181803Y-101427279D01*
X189197779Y-101463162D01*
X189206249Y-101474821D01*
X189216574Y-101491671D01*
X189223118Y-101504513D01*
X189227269Y-101509639D01*
X189266801Y-101558457D01*
X189270815Y-101563689D01*
X189304685Y-101610306D01*
X189328544Y-101677173D01*
X189328750Y-101684368D01*
X189328750Y-103842847D01*
X189308748Y-103910968D01*
X189255092Y-103957461D01*
X189237480Y-103963966D01*
X189065216Y-104013362D01*
X189059075Y-104015123D01*
X189053413Y-104018083D01*
X189041141Y-104024499D01*
X188887410Y-104104868D01*
X188882467Y-104108899D01*
X188882463Y-104108902D01*
X188768220Y-104202077D01*
X188737297Y-104227297D01*
X188733268Y-104232237D01*
X188618902Y-104372463D01*
X188618899Y-104372467D01*
X188614868Y-104377410D01*
X188611910Y-104383068D01*
X188564404Y-104473938D01*
X188525123Y-104549075D01*
X188523362Y-104555215D01*
X188523362Y-104555216D01*
X188503286Y-104625230D01*
X188465282Y-104685199D01*
X188400890Y-104715101D01*
X188382167Y-104716500D01*
X184712504Y-104716500D01*
X184644383Y-104696498D01*
X184597890Y-104642842D01*
X184587786Y-104572568D01*
X184594522Y-104546270D01*
X184623971Y-104467715D01*
X184626745Y-104460316D01*
X184633500Y-104398134D01*
X184633500Y-102601866D01*
X184626745Y-102539684D01*
X184575615Y-102403295D01*
X184488261Y-102286739D01*
X184371705Y-102199385D01*
X184235316Y-102148255D01*
X184173134Y-102141500D01*
X182376866Y-102141500D01*
X182314684Y-102148255D01*
X182178295Y-102199385D01*
X182061739Y-102286739D01*
X181974385Y-102403295D01*
X181971233Y-102411703D01*
X181929919Y-102521907D01*
X181887277Y-102578671D01*
X181820716Y-102603371D01*
X181751367Y-102588163D01*
X181718743Y-102562476D01*
X181668151Y-102506875D01*
X181668142Y-102506866D01*
X181664670Y-102503051D01*
X181660619Y-102499852D01*
X181660615Y-102499848D01*
X181493414Y-102367800D01*
X181493410Y-102367798D01*
X181489359Y-102364598D01*
X181293789Y-102256638D01*
X181288920Y-102254914D01*
X181288916Y-102254912D01*
X181088087Y-102183795D01*
X181088083Y-102183794D01*
X181083212Y-102182069D01*
X181078119Y-102181162D01*
X181078116Y-102181161D01*
X180868373Y-102143800D01*
X180868367Y-102143799D01*
X180863284Y-102142894D01*
X180789452Y-102141992D01*
X180645081Y-102140228D01*
X180645079Y-102140228D01*
X180639911Y-102140165D01*
X180419091Y-102173955D01*
X180206756Y-102243357D01*
X180008607Y-102346507D01*
X180004474Y-102349610D01*
X180004471Y-102349612D01*
X179834100Y-102477530D01*
X179829965Y-102480635D01*
X179790525Y-102521907D01*
X179736280Y-102578671D01*
X179675629Y-102642138D01*
X179549743Y-102826680D01*
X179455688Y-103029305D01*
X179395989Y-103244570D01*
X179372251Y-103466695D01*
X179385110Y-103689715D01*
X179386247Y-103694761D01*
X179386248Y-103694767D01*
X179410304Y-103801508D01*
X179434222Y-103907639D01*
X179479068Y-104018083D01*
X179513107Y-104101910D01*
X179518266Y-104114616D01*
X179520965Y-104119020D01*
X179620276Y-104281081D01*
X179634987Y-104305088D01*
X179781250Y-104473938D01*
X179804113Y-104492919D01*
X179804880Y-104493556D01*
X179844515Y-104552459D01*
X179846013Y-104623439D01*
X179808898Y-104683962D01*
X179744954Y-104714811D01*
X179724395Y-104716500D01*
X179034500Y-104716500D01*
X178966379Y-104696498D01*
X178919886Y-104642842D01*
X178908500Y-104590500D01*
X178908500Y-102201866D01*
X178901745Y-102139684D01*
X178850615Y-102003295D01*
X178763261Y-101886739D01*
X178646705Y-101799385D01*
X178510316Y-101748255D01*
X178448134Y-101741500D01*
X178368045Y-101741500D01*
X178299924Y-101721498D01*
X178253431Y-101667842D01*
X178243327Y-101597568D01*
X178258926Y-101552500D01*
X178259557Y-101551408D01*
X178334527Y-101421556D01*
X178393542Y-101239928D01*
X178413504Y-101050000D01*
X178398072Y-100903173D01*
X178394232Y-100866635D01*
X178394232Y-100866633D01*
X178393542Y-100860072D01*
X178334527Y-100678444D01*
X178239040Y-100513056D01*
X178165863Y-100431785D01*
X178135147Y-100367779D01*
X178133500Y-100347476D01*
X178133500Y-99534500D01*
X178153502Y-99466379D01*
X178207158Y-99419886D01*
X178259500Y-99408500D01*
X178319987Y-99408500D01*
X178326439Y-99407128D01*
X178326444Y-99407128D01*
X178413387Y-99388647D01*
X178506788Y-99368794D01*
X178602088Y-99326364D01*
X178675222Y-99293803D01*
X178675224Y-99293802D01*
X178681252Y-99291118D01*
X178835753Y-99178866D01*
X178936806Y-99066635D01*
X178959121Y-99041852D01*
X178959122Y-99041851D01*
X178963540Y-99036944D01*
X179059027Y-98871556D01*
X179118042Y-98689928D01*
X179135407Y-98524708D01*
X179162420Y-98459051D01*
X179171622Y-98448782D01*
X179236514Y-98383891D01*
X179322331Y-98298074D01*
X179330610Y-98290540D01*
X179337091Y-98286427D01*
X179383717Y-98236775D01*
X179386471Y-98233934D01*
X179406208Y-98214197D01*
X179408688Y-98211000D01*
X179416393Y-98201978D01*
X179441232Y-98175527D01*
X179446659Y-98169748D01*
X179450478Y-98162802D01*
X179450480Y-98162799D01*
X179456421Y-98151993D01*
X179467272Y-98135474D01*
X179474831Y-98125728D01*
X179479687Y-98119468D01*
X179482832Y-98112199D01*
X179482835Y-98112195D01*
X179497247Y-98078890D01*
X179502464Y-98068240D01*
X179523768Y-98029487D01*
X179528806Y-98009864D01*
X179535210Y-97991161D01*
X179540106Y-97979847D01*
X179540106Y-97979846D01*
X179543254Y-97972572D01*
X179544493Y-97964749D01*
X179544496Y-97964739D01*
X179550172Y-97928903D01*
X179552578Y-97917283D01*
X179561601Y-97882138D01*
X179561601Y-97882137D01*
X179563573Y-97874457D01*
X179563573Y-97854203D01*
X179565124Y-97834492D01*
X179567053Y-97822313D01*
X179568293Y-97814484D01*
X179564132Y-97770465D01*
X179563573Y-97758608D01*
X179563573Y-94867264D01*
X179583575Y-94799143D01*
X179637231Y-94752650D01*
X179707505Y-94742546D01*
X179739611Y-94751626D01*
X179775543Y-94767176D01*
X179786173Y-94772383D01*
X179824940Y-94793695D01*
X179832617Y-94795666D01*
X179832622Y-94795668D01*
X179844558Y-94798732D01*
X179863266Y-94805137D01*
X179881855Y-94813181D01*
X179889683Y-94814421D01*
X179889690Y-94814423D01*
X179925524Y-94820099D01*
X179937144Y-94822505D01*
X179972289Y-94831528D01*
X179979970Y-94833500D01*
X180000224Y-94833500D01*
X180019934Y-94835051D01*
X180039943Y-94838220D01*
X180047835Y-94837474D01*
X180083961Y-94834059D01*
X180095819Y-94833500D01*
X181866776Y-94833500D01*
X181934897Y-94853502D01*
X181981390Y-94907158D01*
X181991494Y-94977432D01*
X181975231Y-95023636D01*
X181955855Y-95056399D01*
X181909438Y-95216169D01*
X181908934Y-95222574D01*
X181908933Y-95222579D01*
X181906693Y-95251042D01*
X181906500Y-95253498D01*
X181906500Y-95686502D01*
X181906693Y-95688950D01*
X181906693Y-95688958D01*
X181907574Y-95700142D01*
X181909438Y-95723831D01*
X181955855Y-95883601D01*
X182040547Y-96026807D01*
X182043229Y-96029489D01*
X182068502Y-96093861D01*
X182054600Y-96163484D01*
X182044428Y-96179312D01*
X182040547Y-96183193D01*
X181955855Y-96326399D01*
X181953644Y-96334010D01*
X181953643Y-96334012D01*
X181951283Y-96342137D01*
X181909438Y-96486169D01*
X181908934Y-96492574D01*
X181908933Y-96492579D01*
X181906693Y-96521042D01*
X181906500Y-96523498D01*
X181906500Y-96956502D01*
X181906693Y-96958950D01*
X181906693Y-96958958D01*
X181908006Y-96975635D01*
X181909438Y-96993831D01*
X181914541Y-97011395D01*
X181953586Y-97145790D01*
X181955855Y-97153601D01*
X181959892Y-97160427D01*
X182036509Y-97289980D01*
X182036511Y-97289983D01*
X182040547Y-97296807D01*
X182158193Y-97414453D01*
X182165017Y-97418489D01*
X182165020Y-97418491D01*
X182272589Y-97482107D01*
X182301399Y-97499145D01*
X182309010Y-97501356D01*
X182309012Y-97501357D01*
X182361231Y-97516528D01*
X182461169Y-97545562D01*
X182467574Y-97546066D01*
X182467579Y-97546067D01*
X182496042Y-97548307D01*
X182496050Y-97548307D01*
X182498498Y-97548500D01*
X184381502Y-97548500D01*
X184383950Y-97548307D01*
X184383958Y-97548307D01*
X184412421Y-97546067D01*
X184412426Y-97546066D01*
X184418831Y-97545562D01*
X184518769Y-97516528D01*
X184570988Y-97501357D01*
X184570990Y-97501356D01*
X184578601Y-97499145D01*
X184607411Y-97482107D01*
X184714980Y-97418491D01*
X184714983Y-97418489D01*
X184721807Y-97414453D01*
X184839453Y-97296807D01*
X184843489Y-97289983D01*
X184843491Y-97289980D01*
X184920108Y-97160427D01*
X184924145Y-97153601D01*
X184926415Y-97145790D01*
X184965459Y-97011395D01*
X184970562Y-96993831D01*
X184971995Y-96975635D01*
X184973307Y-96958958D01*
X184973307Y-96958950D01*
X184973500Y-96956502D01*
X184973500Y-96523498D01*
X184973307Y-96521042D01*
X184971067Y-96492579D01*
X184971066Y-96492574D01*
X184970562Y-96486169D01*
X184928717Y-96342137D01*
X184926357Y-96334012D01*
X184926356Y-96334010D01*
X184924145Y-96326399D01*
X184839453Y-96183193D01*
X184836771Y-96180511D01*
X184811498Y-96116139D01*
X184825400Y-96046516D01*
X184835572Y-96030688D01*
X184839453Y-96026807D01*
X184924145Y-95883601D01*
X184970562Y-95723831D01*
X184972427Y-95700142D01*
X184973307Y-95688958D01*
X184973307Y-95688950D01*
X184973500Y-95686502D01*
X184973500Y-95253498D01*
X184973307Y-95251042D01*
X184971067Y-95222579D01*
X184971066Y-95222574D01*
X184970562Y-95216169D01*
X184924145Y-95056399D01*
X184839453Y-94913193D01*
X184836771Y-94910511D01*
X184811498Y-94846139D01*
X184825400Y-94776516D01*
X184835572Y-94760688D01*
X184839453Y-94756807D01*
X184924145Y-94613601D01*
X184927687Y-94601411D01*
X184953541Y-94512417D01*
X184970562Y-94453831D01*
X184971995Y-94435635D01*
X184973307Y-94418958D01*
X184973307Y-94418950D01*
X184973500Y-94416502D01*
X184973500Y-93983498D01*
X184973107Y-93978502D01*
X184971067Y-93952579D01*
X184971066Y-93952574D01*
X184970562Y-93946169D01*
X184929760Y-93805726D01*
X184926357Y-93794012D01*
X184926356Y-93794010D01*
X184924145Y-93786399D01*
X184839453Y-93643193D01*
X184836771Y-93640511D01*
X184811498Y-93576139D01*
X184825400Y-93506516D01*
X184833014Y-93494669D01*
X185942001Y-93494669D01*
X185942371Y-93501490D01*
X185947895Y-93552352D01*
X185951521Y-93567604D01*
X185996676Y-93688054D01*
X186005214Y-93703649D01*
X186081715Y-93805724D01*
X186094276Y-93818285D01*
X186196351Y-93894786D01*
X186211946Y-93903324D01*
X186332394Y-93948478D01*
X186347649Y-93952105D01*
X186398514Y-93957631D01*
X186405328Y-93958000D01*
X186627885Y-93958000D01*
X186643124Y-93953525D01*
X186644329Y-93952135D01*
X186646000Y-93944452D01*
X186646000Y-93022115D01*
X186641525Y-93006876D01*
X186640135Y-93005671D01*
X186632452Y-93004000D01*
X185960116Y-93004000D01*
X185944877Y-93008475D01*
X185943672Y-93009865D01*
X185942001Y-93017548D01*
X185942001Y-93494669D01*
X184833014Y-93494669D01*
X184835572Y-93490688D01*
X184839453Y-93486807D01*
X184924145Y-93343601D01*
X184970562Y-93183831D01*
X184971586Y-93170832D01*
X184973307Y-93148958D01*
X184973307Y-93148950D01*
X184973500Y-93146502D01*
X184973500Y-92713498D01*
X184972243Y-92697522D01*
X184971067Y-92682579D01*
X184971066Y-92682574D01*
X184970562Y-92676169D01*
X184941181Y-92575038D01*
X184926357Y-92524012D01*
X184926356Y-92524010D01*
X184924145Y-92516399D01*
X184901368Y-92477885D01*
X185942000Y-92477885D01*
X185946475Y-92493124D01*
X185947865Y-92494329D01*
X185955548Y-92496000D01*
X186627885Y-92496000D01*
X186643124Y-92491525D01*
X186644329Y-92490135D01*
X186646000Y-92482452D01*
X186646000Y-91560116D01*
X186641525Y-91544877D01*
X186640135Y-91543672D01*
X186632452Y-91542001D01*
X186405331Y-91542001D01*
X186398510Y-91542371D01*
X186347648Y-91547895D01*
X186332396Y-91551521D01*
X186211946Y-91596676D01*
X186196351Y-91605214D01*
X186094276Y-91681715D01*
X186081715Y-91694276D01*
X186005214Y-91796351D01*
X185996676Y-91811946D01*
X185951522Y-91932394D01*
X185947895Y-91947649D01*
X185942369Y-91998514D01*
X185942000Y-92005328D01*
X185942000Y-92477885D01*
X184901368Y-92477885D01*
X184839453Y-92373193D01*
X184836771Y-92370511D01*
X184811498Y-92306139D01*
X184825400Y-92236516D01*
X184835572Y-92220688D01*
X184839453Y-92216807D01*
X184924145Y-92073601D01*
X184927687Y-92061411D01*
X184944986Y-92001866D01*
X184970562Y-91913831D01*
X184971995Y-91895635D01*
X184973307Y-91878958D01*
X184973307Y-91878950D01*
X184973500Y-91876502D01*
X184973500Y-91443498D01*
X184973307Y-91441042D01*
X184971067Y-91412579D01*
X184971066Y-91412574D01*
X184970562Y-91406169D01*
X184928717Y-91262137D01*
X184926357Y-91254012D01*
X184926356Y-91254010D01*
X184924145Y-91246399D01*
X184839453Y-91103193D01*
X184836771Y-91100511D01*
X184811498Y-91036139D01*
X184825400Y-90966516D01*
X184835572Y-90950688D01*
X184839453Y-90946807D01*
X184924145Y-90803601D01*
X184970562Y-90643831D01*
X184973500Y-90606502D01*
X184973500Y-90173498D01*
X184972243Y-90157522D01*
X184971067Y-90142579D01*
X184971066Y-90142574D01*
X184970562Y-90136169D01*
X184924145Y-89976399D01*
X184839453Y-89833193D01*
X184836771Y-89830511D01*
X184811498Y-89766139D01*
X184825400Y-89696516D01*
X184835572Y-89680688D01*
X184839453Y-89676807D01*
X184924145Y-89533601D01*
X184927687Y-89521411D01*
X184955654Y-89425144D01*
X184970562Y-89373831D01*
X184971288Y-89364616D01*
X184973307Y-89338958D01*
X184973307Y-89338950D01*
X184973500Y-89336502D01*
X184973500Y-88903498D01*
X184973307Y-88901042D01*
X184971067Y-88872579D01*
X184971066Y-88872574D01*
X184970562Y-88866169D01*
X184936360Y-88748444D01*
X184927136Y-88716695D01*
X185807251Y-88716695D01*
X185807548Y-88721848D01*
X185807548Y-88721851D01*
X185812760Y-88812240D01*
X185820110Y-88939715D01*
X185821247Y-88944761D01*
X185821248Y-88944767D01*
X185835606Y-89008475D01*
X185869222Y-89157639D01*
X185953266Y-89364616D01*
X186004942Y-89448944D01*
X186067291Y-89550688D01*
X186069987Y-89555088D01*
X186216250Y-89723938D01*
X186388126Y-89866632D01*
X186581000Y-89979338D01*
X186789692Y-90059030D01*
X186794760Y-90060061D01*
X186794763Y-90060062D01*
X186902017Y-90081883D01*
X187008597Y-90103567D01*
X187013772Y-90103757D01*
X187013774Y-90103757D01*
X187226673Y-90111564D01*
X187226677Y-90111564D01*
X187231837Y-90111753D01*
X187236957Y-90111097D01*
X187236959Y-90111097D01*
X187448288Y-90084025D01*
X187448289Y-90084025D01*
X187453416Y-90083368D01*
X187458366Y-90081883D01*
X187662429Y-90020661D01*
X187662434Y-90020659D01*
X187667384Y-90019174D01*
X187867994Y-89920896D01*
X188049860Y-89791173D01*
X188084655Y-89756500D01*
X188171479Y-89669978D01*
X188208096Y-89633489D01*
X188267594Y-89550689D01*
X188338453Y-89452077D01*
X188339776Y-89453028D01*
X188386645Y-89409857D01*
X188456580Y-89397625D01*
X188522026Y-89425144D01*
X188549875Y-89456994D01*
X188609987Y-89555088D01*
X188756250Y-89723938D01*
X188928126Y-89866632D01*
X189121000Y-89979338D01*
X189329692Y-90059030D01*
X189334760Y-90060061D01*
X189334763Y-90060062D01*
X189442017Y-90081883D01*
X189548597Y-90103567D01*
X189553772Y-90103757D01*
X189553774Y-90103757D01*
X189766673Y-90111564D01*
X189766677Y-90111564D01*
X189771837Y-90111753D01*
X189776957Y-90111097D01*
X189776959Y-90111097D01*
X189988288Y-90084025D01*
X189988289Y-90084025D01*
X189993416Y-90083368D01*
X189998366Y-90081883D01*
X190202429Y-90020661D01*
X190202434Y-90020659D01*
X190207384Y-90019174D01*
X190407994Y-89920896D01*
X190589860Y-89791173D01*
X190624655Y-89756500D01*
X190698479Y-89682933D01*
X190760851Y-89649017D01*
X190831658Y-89654205D01*
X190888419Y-89696851D01*
X190905401Y-89727954D01*
X190946676Y-89838054D01*
X190955214Y-89853649D01*
X191031715Y-89955724D01*
X191044276Y-89968285D01*
X191146351Y-90044786D01*
X191161946Y-90053324D01*
X191282394Y-90098478D01*
X191297649Y-90102105D01*
X191348514Y-90107631D01*
X191355328Y-90108000D01*
X191977885Y-90108000D01*
X191993124Y-90103525D01*
X191994329Y-90102135D01*
X191996000Y-90094452D01*
X191996000Y-90089884D01*
X192504000Y-90089884D01*
X192508475Y-90105123D01*
X192509865Y-90106328D01*
X192517548Y-90107999D01*
X193144669Y-90107999D01*
X193151490Y-90107629D01*
X193202352Y-90102105D01*
X193217604Y-90098479D01*
X193338054Y-90053324D01*
X193353649Y-90044786D01*
X193455724Y-89968285D01*
X193468285Y-89955724D01*
X193544786Y-89853649D01*
X193553324Y-89838054D01*
X193598478Y-89717606D01*
X193602105Y-89702351D01*
X193607631Y-89651486D01*
X193608000Y-89644672D01*
X193608000Y-89022115D01*
X193603525Y-89006876D01*
X193602135Y-89005671D01*
X193594452Y-89004000D01*
X192522115Y-89004000D01*
X192506876Y-89008475D01*
X192505671Y-89009865D01*
X192504000Y-89017548D01*
X192504000Y-90089884D01*
X191996000Y-90089884D01*
X191996000Y-88477885D01*
X192504000Y-88477885D01*
X192508475Y-88493124D01*
X192509865Y-88494329D01*
X192517548Y-88496000D01*
X193589884Y-88496000D01*
X193605123Y-88491525D01*
X193606328Y-88490135D01*
X193607999Y-88482452D01*
X193607999Y-87855331D01*
X193607629Y-87848510D01*
X193602105Y-87797648D01*
X193598479Y-87782396D01*
X193553324Y-87661946D01*
X193544786Y-87646351D01*
X193468285Y-87544276D01*
X193455724Y-87531715D01*
X193353649Y-87455214D01*
X193338054Y-87446676D01*
X193217606Y-87401522D01*
X193202351Y-87397895D01*
X193151486Y-87392369D01*
X193144672Y-87392000D01*
X192522115Y-87392000D01*
X192506876Y-87396475D01*
X192505671Y-87397865D01*
X192504000Y-87405548D01*
X192504000Y-88477885D01*
X191996000Y-88477885D01*
X191996000Y-87410116D01*
X191991525Y-87394877D01*
X191990135Y-87393672D01*
X191982452Y-87392001D01*
X191355331Y-87392001D01*
X191348510Y-87392371D01*
X191297648Y-87397895D01*
X191282396Y-87401521D01*
X191161946Y-87446676D01*
X191146351Y-87455214D01*
X191044276Y-87531715D01*
X191031715Y-87544276D01*
X190955214Y-87646351D01*
X190946676Y-87661946D01*
X190905297Y-87772322D01*
X190862655Y-87829087D01*
X190796093Y-87853786D01*
X190726744Y-87838578D01*
X190694121Y-87812891D01*
X190643151Y-87756876D01*
X190643145Y-87756870D01*
X190639670Y-87753051D01*
X190635619Y-87749852D01*
X190635615Y-87749848D01*
X190468414Y-87617800D01*
X190468410Y-87617798D01*
X190464359Y-87614598D01*
X190268789Y-87506638D01*
X190263920Y-87504914D01*
X190263916Y-87504912D01*
X190063087Y-87433795D01*
X190063083Y-87433794D01*
X190058212Y-87432069D01*
X190053119Y-87431162D01*
X190053116Y-87431161D01*
X189843373Y-87393800D01*
X189843367Y-87393799D01*
X189838284Y-87392894D01*
X189764452Y-87391992D01*
X189620081Y-87390228D01*
X189620079Y-87390228D01*
X189614911Y-87390165D01*
X189394091Y-87423955D01*
X189181756Y-87493357D01*
X189151443Y-87509137D01*
X189016143Y-87579570D01*
X188983607Y-87596507D01*
X188979474Y-87599610D01*
X188979471Y-87599612D01*
X188849637Y-87697094D01*
X188804965Y-87730635D01*
X188765128Y-87772322D01*
X188708437Y-87831646D01*
X188650629Y-87892138D01*
X188543201Y-88049621D01*
X188488293Y-88094621D01*
X188417768Y-88102792D01*
X188354021Y-88071538D01*
X188333324Y-88047054D01*
X188252822Y-87922617D01*
X188252820Y-87922614D01*
X188250014Y-87918277D01*
X188099670Y-87753051D01*
X188095619Y-87749852D01*
X188095615Y-87749848D01*
X187928414Y-87617800D01*
X187928410Y-87617798D01*
X187924359Y-87614598D01*
X187728789Y-87506638D01*
X187723920Y-87504914D01*
X187723916Y-87504912D01*
X187523087Y-87433795D01*
X187523083Y-87433794D01*
X187518212Y-87432069D01*
X187513119Y-87431162D01*
X187513116Y-87431161D01*
X187303373Y-87393800D01*
X187303367Y-87393799D01*
X187298284Y-87392894D01*
X187224452Y-87391992D01*
X187080081Y-87390228D01*
X187080079Y-87390228D01*
X187074911Y-87390165D01*
X186854091Y-87423955D01*
X186641756Y-87493357D01*
X186611443Y-87509137D01*
X186476143Y-87579570D01*
X186443607Y-87596507D01*
X186439474Y-87599610D01*
X186439471Y-87599612D01*
X186309637Y-87697094D01*
X186264965Y-87730635D01*
X186225128Y-87772322D01*
X186168437Y-87831646D01*
X186110629Y-87892138D01*
X186107720Y-87896403D01*
X186107714Y-87896411D01*
X186089838Y-87922617D01*
X185984743Y-88076680D01*
X185937715Y-88177993D01*
X185897978Y-88263601D01*
X185890688Y-88279305D01*
X185830989Y-88494570D01*
X185807251Y-88716695D01*
X184927136Y-88716695D01*
X184926357Y-88714012D01*
X184926356Y-88714010D01*
X184924145Y-88706399D01*
X184865509Y-88607251D01*
X184848049Y-88538435D01*
X184870566Y-88471104D01*
X184909816Y-88434662D01*
X184921901Y-88427514D01*
X184939664Y-88418812D01*
X184951215Y-88414239D01*
X184951221Y-88414235D01*
X184958588Y-88411319D01*
X184994491Y-88385234D01*
X185004410Y-88378719D01*
X185035768Y-88360174D01*
X185035772Y-88360171D01*
X185042598Y-88356134D01*
X185056982Y-88341750D01*
X185072016Y-88328909D01*
X185082073Y-88321602D01*
X185088487Y-88316942D01*
X185116772Y-88282751D01*
X185124762Y-88273970D01*
X185393483Y-88005250D01*
X185401805Y-87997677D01*
X185408303Y-87993553D01*
X185455087Y-87943733D01*
X185457841Y-87940892D01*
X185477639Y-87921094D01*
X185480063Y-87917969D01*
X185480071Y-87917960D01*
X185480137Y-87917874D01*
X185487845Y-87908849D01*
X185499525Y-87896411D01*
X185518217Y-87876506D01*
X185528023Y-87858669D01*
X185538873Y-87842153D01*
X185551350Y-87826067D01*
X185568976Y-87785334D01*
X185574193Y-87774686D01*
X185586087Y-87753051D01*
X185595569Y-87735803D01*
X185597540Y-87728128D01*
X185597542Y-87728122D01*
X185600631Y-87716089D01*
X185607034Y-87697387D01*
X185615117Y-87678708D01*
X185620476Y-87644872D01*
X185622060Y-87634873D01*
X185624467Y-87623251D01*
X185626689Y-87614598D01*
X185635500Y-87580282D01*
X185635500Y-87559935D01*
X185637051Y-87540224D01*
X185638995Y-87527950D01*
X185640235Y-87520121D01*
X185636059Y-87475944D01*
X185635500Y-87464086D01*
X185635500Y-87052508D01*
X185655502Y-86984387D01*
X185709158Y-86937894D01*
X185773029Y-86927037D01*
X185843365Y-86933500D01*
X185846263Y-86933500D01*
X186175860Y-86933499D01*
X186506634Y-86933499D01*
X186509492Y-86933236D01*
X186509501Y-86933236D01*
X186545004Y-86929974D01*
X186580062Y-86926753D01*
X186586447Y-86924752D01*
X186736450Y-86877744D01*
X186736452Y-86877743D01*
X186743699Y-86875472D01*
X186890381Y-86786639D01*
X186960905Y-86716115D01*
X187023217Y-86682089D01*
X187094032Y-86687154D01*
X187139095Y-86716115D01*
X187209619Y-86786639D01*
X187356301Y-86875472D01*
X187363548Y-86877743D01*
X187363550Y-86877744D01*
X187414128Y-86893594D01*
X187519938Y-86926753D01*
X187593365Y-86933500D01*
X187596263Y-86933500D01*
X187925860Y-86933499D01*
X188256634Y-86933499D01*
X188259492Y-86933236D01*
X188259501Y-86933236D01*
X188295004Y-86929974D01*
X188330062Y-86926753D01*
X188336447Y-86924752D01*
X188486450Y-86877744D01*
X188486452Y-86877743D01*
X188493699Y-86875472D01*
X188640381Y-86786639D01*
X188729615Y-86697405D01*
X188791927Y-86663379D01*
X188818710Y-86660500D01*
X188916290Y-86660500D01*
X188984411Y-86680502D01*
X189005385Y-86697405D01*
X189034619Y-86726639D01*
X189181301Y-86815472D01*
X189188548Y-86817743D01*
X189188550Y-86817744D01*
X189253350Y-86838051D01*
X189344938Y-86866753D01*
X189418365Y-86873500D01*
X189421263Y-86873500D01*
X189750860Y-86873499D01*
X190081634Y-86873499D01*
X190084492Y-86873236D01*
X190084501Y-86873236D01*
X190120004Y-86869974D01*
X190155062Y-86866753D01*
X190161447Y-86864752D01*
X190311450Y-86817744D01*
X190311452Y-86817743D01*
X190318699Y-86815472D01*
X190465381Y-86726639D01*
X190554615Y-86637405D01*
X190616927Y-86603379D01*
X190643710Y-86600500D01*
X193517578Y-86600500D01*
X193585699Y-86620502D01*
G37*
%TD.AperFunction*%
%TA.AperFunction,Conductor*%
G36*
X175882012Y-95278370D02*
G01*
X175888595Y-95284499D01*
X176829595Y-96225499D01*
X176863621Y-96287811D01*
X176866500Y-96314594D01*
X176866500Y-100267854D01*
X176858164Y-100311559D01*
X176856305Y-100314940D01*
X176851486Y-100333708D01*
X176851267Y-100334562D01*
X176844863Y-100353266D01*
X176836819Y-100371855D01*
X176835579Y-100379684D01*
X176835578Y-100379687D01*
X176831710Y-100404103D01*
X176800899Y-100468699D01*
X176766547Y-100506851D01*
X176760960Y-100513056D01*
X176757659Y-100518774D01*
X176757657Y-100518777D01*
X176725824Y-100573914D01*
X176665473Y-100678444D01*
X176606458Y-100860072D01*
X176605768Y-100866633D01*
X176605768Y-100866635D01*
X176601928Y-100903173D01*
X176586496Y-101050000D01*
X176606458Y-101239928D01*
X176665473Y-101421556D01*
X176740444Y-101551408D01*
X176741074Y-101552500D01*
X176757812Y-101621495D01*
X176734592Y-101688587D01*
X176678785Y-101732474D01*
X176631955Y-101741500D01*
X176451866Y-101741500D01*
X176389684Y-101748255D01*
X176253295Y-101799385D01*
X176136739Y-101886739D01*
X176049385Y-102003295D01*
X175998255Y-102139684D01*
X175991500Y-102201866D01*
X175991500Y-104291405D01*
X175971498Y-104359526D01*
X175917842Y-104406019D01*
X175847568Y-104416123D01*
X175782988Y-104386629D01*
X175776404Y-104380500D01*
X175687310Y-104291405D01*
X175420404Y-104024499D01*
X175386379Y-103962187D01*
X175383500Y-103935404D01*
X175383500Y-100828763D01*
X175384027Y-100817579D01*
X175385701Y-100810091D01*
X175383562Y-100742032D01*
X175383500Y-100738075D01*
X175383500Y-100710144D01*
X175382994Y-100706138D01*
X175382061Y-100694292D01*
X175381761Y-100684724D01*
X175380673Y-100650110D01*
X175375022Y-100630658D01*
X175371014Y-100611306D01*
X175369467Y-100599063D01*
X175368474Y-100591203D01*
X175361629Y-100573914D01*
X175352200Y-100550097D01*
X175348355Y-100538870D01*
X175346213Y-100531497D01*
X175336018Y-100496407D01*
X175331984Y-100489585D01*
X175331981Y-100489579D01*
X175325706Y-100478968D01*
X175317010Y-100461218D01*
X175312472Y-100449756D01*
X175312469Y-100449751D01*
X175309552Y-100442383D01*
X175287749Y-100412373D01*
X175283573Y-100406625D01*
X175277057Y-100396707D01*
X175262359Y-100371855D01*
X175254542Y-100358637D01*
X175240218Y-100344313D01*
X175227376Y-100329278D01*
X175215472Y-100312893D01*
X175181406Y-100284711D01*
X175172627Y-100276722D01*
X174197122Y-99301217D01*
X174163096Y-99238905D01*
X174160907Y-99225292D01*
X174144232Y-99066635D01*
X174144232Y-99066633D01*
X174143542Y-99060072D01*
X174084527Y-98878444D01*
X173989040Y-98713056D01*
X173974653Y-98697077D01*
X173865675Y-98576045D01*
X173865674Y-98576044D01*
X173861253Y-98571134D01*
X173706752Y-98458882D01*
X173700724Y-98456198D01*
X173700722Y-98456197D01*
X173538319Y-98383891D01*
X173538318Y-98383891D01*
X173532288Y-98381206D01*
X173438888Y-98361353D01*
X173351944Y-98342872D01*
X173351939Y-98342872D01*
X173345487Y-98341500D01*
X173259500Y-98341500D01*
X173191379Y-98321498D01*
X173144886Y-98267842D01*
X173133500Y-98215500D01*
X173133500Y-97674000D01*
X173153502Y-97605879D01*
X173207158Y-97559386D01*
X173259500Y-97548000D01*
X173867885Y-97548000D01*
X173883124Y-97543525D01*
X173884329Y-97542135D01*
X173886000Y-97534452D01*
X173886000Y-97529884D01*
X174394000Y-97529884D01*
X174398475Y-97545123D01*
X174399865Y-97546328D01*
X174407548Y-97547999D01*
X175078984Y-97547999D01*
X175083920Y-97547805D01*
X175112336Y-97545570D01*
X175124931Y-97543270D01*
X175270790Y-97500893D01*
X175285221Y-97494648D01*
X175414678Y-97418089D01*
X175427104Y-97408449D01*
X175533449Y-97302104D01*
X175543089Y-97289678D01*
X175619648Y-97160221D01*
X175625893Y-97145790D01*
X175664939Y-97011395D01*
X175664899Y-96997294D01*
X175657630Y-96994000D01*
X174412115Y-96994000D01*
X174396876Y-96998475D01*
X174395671Y-96999865D01*
X174394000Y-97007548D01*
X174394000Y-97529884D01*
X173886000Y-97529884D01*
X173886000Y-96612000D01*
X173906002Y-96543879D01*
X173959658Y-96497386D01*
X174012000Y-96486000D01*
X175651878Y-96486000D01*
X175665409Y-96482027D01*
X175666544Y-96474129D01*
X175625893Y-96334210D01*
X175619648Y-96319779D01*
X175543089Y-96190323D01*
X175537129Y-96182640D01*
X175511180Y-96116556D01*
X175525078Y-96046933D01*
X175535421Y-96030839D01*
X175539453Y-96026807D01*
X175624145Y-95883601D01*
X175670562Y-95723831D01*
X175672427Y-95700142D01*
X175673307Y-95688958D01*
X175673307Y-95688950D01*
X175673500Y-95686502D01*
X175673500Y-95373594D01*
X175693502Y-95305473D01*
X175747158Y-95258980D01*
X175817432Y-95248876D01*
X175882012Y-95278370D01*
G37*
%TD.AperFunction*%
%TA.AperFunction,Conductor*%
G36*
X196683621Y-83528502D02*
G01*
X196730114Y-83582158D01*
X196741500Y-83634500D01*
X196741500Y-84180617D01*
X196721498Y-84248738D01*
X196667842Y-84295231D01*
X196597568Y-84305335D01*
X196571273Y-84298600D01*
X196450316Y-84253255D01*
X196388134Y-84246500D01*
X195511866Y-84246500D01*
X195449684Y-84253255D01*
X195402414Y-84270976D01*
X195321699Y-84301234D01*
X195321696Y-84301236D01*
X195313295Y-84304385D01*
X195308836Y-84307727D01*
X195241152Y-84322530D01*
X195191439Y-84307933D01*
X195186705Y-84304385D01*
X195178304Y-84301236D01*
X195178301Y-84301234D01*
X195097586Y-84270976D01*
X195050316Y-84253255D01*
X194988134Y-84246500D01*
X194111866Y-84246500D01*
X194049684Y-84253255D01*
X193913295Y-84304385D01*
X193796739Y-84391739D01*
X193791358Y-84398919D01*
X193714767Y-84501113D01*
X193714765Y-84501116D01*
X193709385Y-84508295D01*
X193699475Y-84534731D01*
X193656832Y-84591495D01*
X193590271Y-84616194D01*
X193581493Y-84616500D01*
X191718554Y-84616500D01*
X191650433Y-84596498D01*
X191624918Y-84574811D01*
X191611253Y-84559634D01*
X191576978Y-84534731D01*
X191462094Y-84451263D01*
X191462093Y-84451262D01*
X191456752Y-84447382D01*
X191450724Y-84444698D01*
X191450722Y-84444697D01*
X191288319Y-84372391D01*
X191288318Y-84372391D01*
X191282288Y-84369706D01*
X191188888Y-84349853D01*
X191101944Y-84331372D01*
X191101939Y-84331372D01*
X191095487Y-84330000D01*
X190904513Y-84330000D01*
X190885192Y-84334107D01*
X190814405Y-84328705D01*
X190757773Y-84285888D01*
X190733279Y-84219251D01*
X190732999Y-84210860D01*
X190732999Y-84061295D01*
X190732736Y-84055546D01*
X190726868Y-83991685D01*
X190724257Y-83978649D01*
X190677285Y-83828757D01*
X190671077Y-83815008D01*
X190601287Y-83699771D01*
X190583108Y-83631142D01*
X190604918Y-83563578D01*
X190659794Y-83518532D01*
X190709063Y-83508500D01*
X196615500Y-83508500D01*
X196683621Y-83528502D01*
G37*
%TD.AperFunction*%
%TD*%
M02*
