M48
; DRILL file {KiCad 7.0.1-3b83917a11~172~ubuntu22.04.1} date Sat 18 Mar 2023 10:58:01 PM PDT
; FORMAT={-:-/ absolute / inch / decimal}
; #@! TF.CreationDate,2023-03-18T22:58:01-07:00
; #@! TF.GenerationSoftware,Kicad,Pcbnew,7.0.1-3b83917a11~172~ubuntu22.04.1
; #@! TF.FileFunction,Plated,1,2,PTH
FMAT,2
INCH
; #@! TA.AperFunction,Plated,PTH,ViaDrill
T1C0.0110
; #@! TA.AperFunction,Plated,PTH,ViaDrill
T2C0.0157
; #@! TA.AperFunction,Plated,PTH,ComponentDrill
T3C0.0315
%
G90
G05
T1
X4.7697Y-2.9094
X4.7697Y-3.0094
X4.7697Y-3.1094
X4.7697Y-3.2094
X4.7697Y-3.3094
X4.7697Y-3.4094
X4.7697Y-3.5094
X4.7697Y-3.6094
X4.7697Y-3.7094
X4.7697Y-3.8094
X4.7697Y-3.8701
X4.8327Y-3.6457
X4.8697Y-2.9094
X4.8713Y-3.8701
X4.9469Y-3.7165
X4.9697Y-2.9094
X4.9713Y-3.8701
X5.0098Y-3.563
X5.0335Y-3.626
X5.0697Y-2.9094
X5.0713Y-3.8701
X5.1697Y-2.9094
X5.1713Y-3.8701
X5.2697Y-2.9094
X5.2713Y-3.1732
X5.2713Y-3.8701
X5.2736Y-3.5236
X5.2752Y-3.2795
X5.2752Y-3.4016
X5.3697Y-2.9094
X5.3713Y-3.1732
X5.3713Y-3.8701
X5.3752Y-3.2795
X5.3752Y-3.4016
X5.4697Y-2.9094
X5.4713Y-3.1732
X5.4713Y-3.8701
X5.4752Y-3.2795
X5.4752Y-3.4016
X5.5689Y-3.0094
X5.5697Y-2.9094
X5.5713Y-3.1732
X5.5713Y-3.8701
X5.5752Y-3.2795
X5.5752Y-3.4016
X5.6689Y-3.0094
X5.6697Y-2.9094
X5.6713Y-3.1732
X5.6713Y-3.7638
X5.6713Y-3.8701
X5.6752Y-3.2795
X5.6752Y-3.4016
X5.6752Y-3.5079
X5.6752Y-3.6299
X5.6815Y-3.6886
T2
X4.9122Y-3.7157
X4.9204Y-3.4578
X4.9272Y-3.7638
X4.978Y-3.6466
X4.9993Y-3.1867
X5.0217Y-3.4685
X5.0305Y-3.2775
X5.0415Y-3.4005
X5.0418Y-3.2249
X5.0504Y-3.3216
X5.3846Y-3.1015
X5.4728Y-3.6661
X5.5736Y-3.1015
X5.5899Y-3.5056
T3
X4.8344Y-2.9874
X4.9131Y-2.9874
X4.9919Y-2.9874
X5.0706Y-2.9874
X5.1494Y-2.9874
X5.2198Y-3.7689
X5.2281Y-2.9874
X5.2986Y-3.7689
X5.3069Y-2.9874
X5.3773Y-3.7689
X5.3856Y-2.9874
X5.4561Y-3.7689
X5.4643Y-2.9874
T0
M30
