M48
; DRILL file {KiCad 6.0.7-f9a2dced07~116~ubuntu20.04.1} date Sun 12 Feb 2023 02:19:46 PM PST
; FORMAT={-:-/ absolute / inch / decimal}
; #@! TF.CreationDate,2023-02-12T14:19:46-08:00
; #@! TF.GenerationSoftware,Kicad,Pcbnew,6.0.7-f9a2dced07~116~ubuntu20.04.1
; #@! TF.FileFunction,Plated,1,2,PTH
FMAT,2
INCH
; #@! TA.AperFunction,Plated,PTH,ViaDrill
T1C0.0157
; #@! TA.AperFunction,Plated,PTH,ComponentDrill
T2C0.0394
%
G90
G05
T1
X6.811Y-3.9783
X6.8209Y-3.9075
X6.8701Y-3.8681
X6.8839Y-3.9154
X6.9154Y-4.0335
X6.9154Y-4.0965
X6.9311Y-3.939
X6.9311Y-3.9862
X6.9882Y-3.9783
X7.0159Y-3.7163
X7.0167Y-3.878
X7.039Y-3.4087
X7.039Y-3.4587
X7.039Y-3.5087
X7.039Y-3.6087
X7.039Y-3.6587
X7.0571Y-3.939
X7.0571Y-3.9862
X7.0768Y-3.5587
X7.0807Y-3.7579
X7.0807Y-3.8602
X7.128Y-3.939
X7.128Y-3.9862
X7.2539Y-3.3366
X7.2539Y-3.9311
X7.2539Y-4.002
X7.3012Y-3.498
X7.3012Y-4.0492
X7.3012Y-4.0965
X7.3091Y-4.002
X7.3327Y-3.7264
X7.3327Y-3.8366
X7.372Y-3.876
X7.3799Y-4.0256
X7.3957Y-3.7185
X7.4193Y-3.435
X7.4193Y-3.5374
X7.435Y-4.0256
X7.4429Y-3.876
X7.4803Y-3.9764
X7.5059Y-3.876
X7.5138Y-3.4272
X7.5197Y-3.3558
X7.5295Y-3.9764
X7.5591Y-3.3169
X7.5768Y-3.876
X7.5846Y-4.0256
X7.6083Y-3.3091
X7.6083Y-3.4272
X7.6319Y-4.0256
X7.6378Y-3.5925
X7.6398Y-3.7264
X7.6398Y-3.876
X7.6398Y-4.1752
X7.6476Y-3.4587
X7.6476Y-3.5295
X7.6791Y-4.0256
X7.7106Y-3.7579
X7.7106Y-3.8209
X7.7106Y-3.876
X7.7106Y-3.9469
X7.7106Y-4.0098
X7.7106Y-4.065
X7.7106Y-4.1201
X7.7106Y-4.1752
X7.7156Y-3.563
T2
X6.689Y-3.3581
X6.689Y-3.4581
X6.689Y-3.5581
X6.689Y-3.6581
X6.689Y-3.7581
X6.689Y-3.8581
X6.689Y-3.9581
X6.689Y-4.0581
X7.1156Y-4.0748
X7.2156Y-4.0748
X7.3689Y-3.4941
X7.4689Y-3.4941
X7.5689Y-3.4941
T0
M30
