%TF.GenerationSoftware,KiCad,Pcbnew,7.0.1-3b83917a11~172~ubuntu22.04.1*%
%TF.CreationDate,2023-03-19T17:12:07-07:00*%
%TF.ProjectId,CAN_Controller,43414e5f-436f-46e7-9472-6f6c6c65722e,rev?*%
%TF.SameCoordinates,Original*%
%TF.FileFunction,Soldermask,Top*%
%TF.FilePolarity,Negative*%
%FSLAX46Y46*%
G04 Gerber Fmt 4.6, Leading zero omitted, Abs format (unit mm)*
G04 Created by KiCad (PCBNEW 7.0.1-3b83917a11~172~ubuntu22.04.1) date 2023-03-19 17:12:07*
%MOMM*%
%LPD*%
G01*
G04 APERTURE LIST*
G04 Aperture macros list*
%AMRoundRect*
0 Rectangle with rounded corners*
0 $1 Rounding radius*
0 $2 $3 $4 $5 $6 $7 $8 $9 X,Y pos of 4 corners*
0 Add a 4 corners polygon primitive as box body*
4,1,4,$2,$3,$4,$5,$6,$7,$8,$9,$2,$3,0*
0 Add four circle primitives for the rounded corners*
1,1,$1+$1,$2,$3*
1,1,$1+$1,$4,$5*
1,1,$1+$1,$6,$7*
1,1,$1+$1,$8,$9*
0 Add four rect primitives between the rounded corners*
20,1,$1+$1,$2,$3,$4,$5,0*
20,1,$1+$1,$4,$5,$6,$7,0*
20,1,$1+$1,$6,$7,$8,$9,0*
20,1,$1+$1,$8,$9,$2,$3,0*%
G04 Aperture macros list end*
%ADD10R,1.350000X1.350000*%
%ADD11O,1.350000X1.350000*%
%ADD12RoundRect,0.150000X-0.875000X-0.150000X0.875000X-0.150000X0.875000X0.150000X-0.875000X0.150000X0*%
%ADD13R,1.900000X2.400000*%
%ADD14RoundRect,0.445000X-1.335000X-0.445000X1.335000X-0.445000X1.335000X0.445000X-1.335000X0.445000X0*%
%ADD15RoundRect,0.150000X0.150000X-0.512500X0.150000X0.512500X-0.150000X0.512500X-0.150000X-0.512500X0*%
%ADD16R,2.200000X1.400000*%
%ADD17R,0.900000X1.400000*%
G04 APERTURE END LIST*
D10*
%TO.C,J1*%
X138584000Y-95729000D03*
D11*
X136584000Y-95729000D03*
X134584000Y-95729000D03*
X132584000Y-95729000D03*
%TD*%
D10*
%TO.C,J5*%
X122794000Y-75879000D03*
D11*
X124794000Y-75879000D03*
X126794000Y-75879000D03*
X128794000Y-75879000D03*
X130794000Y-75879000D03*
X132794000Y-75879000D03*
X134794000Y-75879000D03*
X136794000Y-75879000D03*
X138794000Y-75879000D03*
%TD*%
D12*
%TO.C,U2*%
X122669000Y-80559000D03*
X122669000Y-81829000D03*
X122669000Y-83099000D03*
X122669000Y-84369000D03*
X122669000Y-85639000D03*
X122669000Y-86909000D03*
X122669000Y-88179000D03*
X122669000Y-89449000D03*
X122669000Y-90719000D03*
X131969000Y-90719000D03*
X131969000Y-89449000D03*
X131969000Y-88179000D03*
X131969000Y-86909000D03*
X131969000Y-85639000D03*
X131969000Y-84369000D03*
X131969000Y-83099000D03*
X131969000Y-81829000D03*
X131969000Y-80559000D03*
%TD*%
D13*
%TO.C,Y1*%
X127250000Y-95100000D03*
X123150000Y-95100000D03*
%TD*%
D14*
%TO.C,L1*%
X139204000Y-88179000D03*
X139204000Y-78779000D03*
%TD*%
D15*
%TO.C,U4*%
X141194000Y-92591500D03*
X142144000Y-92591500D03*
X143094000Y-92591500D03*
X143094000Y-90316500D03*
X142144000Y-90316500D03*
X141194000Y-90316500D03*
%TD*%
D16*
%TO.C,D1*%
X135930000Y-91280000D03*
D17*
X138480000Y-91280000D03*
%TD*%
M02*
