%TF.GenerationSoftware,KiCad,Pcbnew,6.0.7-f9a2dced07~116~ubuntu20.04.1*%
%TF.CreationDate,2023-02-12T14:19:42-08:00*%
%TF.ProjectId,CAN_Controller,43414e5f-436f-46e7-9472-6f6c6c65722e,rev?*%
%TF.SameCoordinates,Original*%
%TF.FileFunction,Legend,Bot*%
%TF.FilePolarity,Positive*%
%FSLAX46Y46*%
G04 Gerber Fmt 4.6, Leading zero omitted, Abs format (unit mm)*
G04 Created by KiCad (PCBNEW 6.0.7-f9a2dced07~116~ubuntu20.04.1) date 2023-02-12 14:19:42*
%MOMM*%
%LPD*%
G01*
G04 APERTURE LIST*
%ADD10C,0.150000*%
%ADD11C,0.254000*%
%ADD12C,0.200000*%
%ADD13C,0.120000*%
G04 APERTURE END LIST*
D10*
X190523809Y-90202380D02*
X190190476Y-91202380D01*
X189857142Y-90202380D01*
X189523809Y-91202380D02*
X189523809Y-90535714D01*
X189523809Y-90202380D02*
X189571428Y-90250000D01*
X189523809Y-90297619D01*
X189476190Y-90250000D01*
X189523809Y-90202380D01*
X189523809Y-90297619D01*
X189047619Y-90535714D02*
X189047619Y-91202380D01*
X189047619Y-90630952D02*
X189000000Y-90583333D01*
X188904761Y-90535714D01*
X188761904Y-90535714D01*
X188666666Y-90583333D01*
X188619047Y-90678571D01*
X188619047Y-91202380D01*
X193011904Y-90250000D02*
X193107142Y-90202380D01*
X193250000Y-90202380D01*
X193392857Y-90250000D01*
X193488095Y-90345238D01*
X193535714Y-90440476D01*
X193583333Y-90630952D01*
X193583333Y-90773809D01*
X193535714Y-90964285D01*
X193488095Y-91059523D01*
X193392857Y-91154761D01*
X193250000Y-91202380D01*
X193154761Y-91202380D01*
X193011904Y-91154761D01*
X192964285Y-91107142D01*
X192964285Y-90773809D01*
X193154761Y-90773809D01*
X192535714Y-91202380D02*
X192535714Y-90202380D01*
X191964285Y-91202380D01*
X191964285Y-90202380D01*
X191488095Y-91202380D02*
X191488095Y-90202380D01*
X191250000Y-90202380D01*
X191107142Y-90250000D01*
X191011904Y-90345238D01*
X190964285Y-90440476D01*
X190916666Y-90630952D01*
X190916666Y-90773809D01*
X190964285Y-90964285D01*
X191011904Y-91059523D01*
X191107142Y-91154761D01*
X191250000Y-91202380D01*
X191488095Y-91202380D01*
X187142857Y-90202380D02*
X187619047Y-90202380D01*
X187666666Y-90678571D01*
X187619047Y-90630952D01*
X187523809Y-90583333D01*
X187285714Y-90583333D01*
X187190476Y-90630952D01*
X187142857Y-90678571D01*
X187095238Y-90773809D01*
X187095238Y-91011904D01*
X187142857Y-91107142D01*
X187190476Y-91154761D01*
X187285714Y-91202380D01*
X187523809Y-91202380D01*
X187619047Y-91154761D01*
X187666666Y-91107142D01*
X186761904Y-90535714D02*
X186523809Y-91202380D01*
X186285714Y-90535714D01*
D11*
%TO.C,C3*%
X195953571Y-94338333D02*
X196014047Y-94277857D01*
X196074523Y-94096428D01*
X196074523Y-93975476D01*
X196014047Y-93794047D01*
X195893095Y-93673095D01*
X195772142Y-93612619D01*
X195530238Y-93552142D01*
X195348809Y-93552142D01*
X195106904Y-93612619D01*
X194985952Y-93673095D01*
X194865000Y-93794047D01*
X194804523Y-93975476D01*
X194804523Y-94096428D01*
X194865000Y-94277857D01*
X194925476Y-94338333D01*
X194804523Y-94761666D02*
X194804523Y-95547857D01*
X195288333Y-95124523D01*
X195288333Y-95305952D01*
X195348809Y-95426904D01*
X195409285Y-95487380D01*
X195530238Y-95547857D01*
X195832619Y-95547857D01*
X195953571Y-95487380D01*
X196014047Y-95426904D01*
X196074523Y-95305952D01*
X196074523Y-94943095D01*
X196014047Y-94822142D01*
X195953571Y-94761666D01*
%TO.C,C7*%
X190203571Y-102538333D02*
X190264047Y-102477857D01*
X190324523Y-102296428D01*
X190324523Y-102175476D01*
X190264047Y-101994047D01*
X190143095Y-101873095D01*
X190022142Y-101812619D01*
X189780238Y-101752142D01*
X189598809Y-101752142D01*
X189356904Y-101812619D01*
X189235952Y-101873095D01*
X189115000Y-101994047D01*
X189054523Y-102175476D01*
X189054523Y-102296428D01*
X189115000Y-102477857D01*
X189175476Y-102538333D01*
X189054523Y-102961666D02*
X189054523Y-103808333D01*
X190324523Y-103264047D01*
D10*
%TO.C,U3*%
X179551904Y-96192380D02*
X179551904Y-97001904D01*
X179504285Y-97097142D01*
X179456666Y-97144761D01*
X179361428Y-97192380D01*
X179170952Y-97192380D01*
X179075714Y-97144761D01*
X179028095Y-97097142D01*
X178980476Y-97001904D01*
X178980476Y-96192380D01*
X178599523Y-96192380D02*
X177980476Y-96192380D01*
X178313809Y-96573333D01*
X178170952Y-96573333D01*
X178075714Y-96620952D01*
X178028095Y-96668571D01*
X177980476Y-96763809D01*
X177980476Y-97001904D01*
X178028095Y-97097142D01*
X178075714Y-97144761D01*
X178170952Y-97192380D01*
X178456666Y-97192380D01*
X178551904Y-97144761D01*
X178599523Y-97097142D01*
%TO.C,C2*%
X177666666Y-106107142D02*
X177714285Y-106154761D01*
X177857142Y-106202380D01*
X177952380Y-106202380D01*
X178095238Y-106154761D01*
X178190476Y-106059523D01*
X178238095Y-105964285D01*
X178285714Y-105773809D01*
X178285714Y-105630952D01*
X178238095Y-105440476D01*
X178190476Y-105345238D01*
X178095238Y-105250000D01*
X177952380Y-105202380D01*
X177857142Y-105202380D01*
X177714285Y-105250000D01*
X177666666Y-105297619D01*
X177285714Y-105297619D02*
X177238095Y-105250000D01*
X177142857Y-105202380D01*
X176904761Y-105202380D01*
X176809523Y-105250000D01*
X176761904Y-105297619D01*
X176714285Y-105392857D01*
X176714285Y-105488095D01*
X176761904Y-105630952D01*
X177333333Y-106202380D01*
X176714285Y-106202380D01*
D11*
%TO.C,C6*%
X196203571Y-102538333D02*
X196264047Y-102477857D01*
X196324523Y-102296428D01*
X196324523Y-102175476D01*
X196264047Y-101994047D01*
X196143095Y-101873095D01*
X196022142Y-101812619D01*
X195780238Y-101752142D01*
X195598809Y-101752142D01*
X195356904Y-101812619D01*
X195235952Y-101873095D01*
X195115000Y-101994047D01*
X195054523Y-102175476D01*
X195054523Y-102296428D01*
X195115000Y-102477857D01*
X195175476Y-102538333D01*
X195054523Y-103626904D02*
X195054523Y-103385000D01*
X195115000Y-103264047D01*
X195175476Y-103203571D01*
X195356904Y-103082619D01*
X195598809Y-103022142D01*
X196082619Y-103022142D01*
X196203571Y-103082619D01*
X196264047Y-103143095D01*
X196324523Y-103264047D01*
X196324523Y-103505952D01*
X196264047Y-103626904D01*
X196203571Y-103687380D01*
X196082619Y-103747857D01*
X195780238Y-103747857D01*
X195659285Y-103687380D01*
X195598809Y-103626904D01*
X195538333Y-103505952D01*
X195538333Y-103264047D01*
X195598809Y-103143095D01*
X195659285Y-103082619D01*
X195780238Y-103022142D01*
%TO.C,C4*%
X190703571Y-94288333D02*
X190764047Y-94227857D01*
X190824523Y-94046428D01*
X190824523Y-93925476D01*
X190764047Y-93744047D01*
X190643095Y-93623095D01*
X190522142Y-93562619D01*
X190280238Y-93502142D01*
X190098809Y-93502142D01*
X189856904Y-93562619D01*
X189735952Y-93623095D01*
X189615000Y-93744047D01*
X189554523Y-93925476D01*
X189554523Y-94046428D01*
X189615000Y-94227857D01*
X189675476Y-94288333D01*
X189977857Y-95376904D02*
X190824523Y-95376904D01*
X189494047Y-95074523D02*
X190401190Y-94772142D01*
X190401190Y-95558333D01*
%TO.C,D2*%
X192937380Y-85824523D02*
X192937380Y-84554523D01*
X192635000Y-84554523D01*
X192453571Y-84615000D01*
X192332619Y-84735952D01*
X192272142Y-84856904D01*
X192211666Y-85098809D01*
X192211666Y-85280238D01*
X192272142Y-85522142D01*
X192332619Y-85643095D01*
X192453571Y-85764047D01*
X192635000Y-85824523D01*
X192937380Y-85824523D01*
X191727857Y-84675476D02*
X191667380Y-84615000D01*
X191546428Y-84554523D01*
X191244047Y-84554523D01*
X191123095Y-84615000D01*
X191062619Y-84675476D01*
X191002142Y-84796428D01*
X191002142Y-84917380D01*
X191062619Y-85098809D01*
X191788333Y-85824523D01*
X191002142Y-85824523D01*
D10*
%TO.C,C1*%
X173166666Y-106107142D02*
X173214285Y-106154761D01*
X173357142Y-106202380D01*
X173452380Y-106202380D01*
X173595238Y-106154761D01*
X173690476Y-106059523D01*
X173738095Y-105964285D01*
X173785714Y-105773809D01*
X173785714Y-105630952D01*
X173738095Y-105440476D01*
X173690476Y-105345238D01*
X173595238Y-105250000D01*
X173452380Y-105202380D01*
X173357142Y-105202380D01*
X173214285Y-105250000D01*
X173166666Y-105297619D01*
X172214285Y-106202380D02*
X172785714Y-106202380D01*
X172500000Y-106202380D02*
X172500000Y-105202380D01*
X172595238Y-105345238D01*
X172690476Y-105440476D01*
X172785714Y-105488095D01*
%TO.C,U1*%
X179551904Y-88572380D02*
X179551904Y-89381904D01*
X179504285Y-89477142D01*
X179456666Y-89524761D01*
X179361428Y-89572380D01*
X179170952Y-89572380D01*
X179075714Y-89524761D01*
X179028095Y-89477142D01*
X178980476Y-89381904D01*
X178980476Y-88572380D01*
X177980476Y-89572380D02*
X178551904Y-89572380D01*
X178266190Y-89572380D02*
X178266190Y-88572380D01*
X178361428Y-88715238D01*
X178456666Y-88810476D01*
X178551904Y-88858095D01*
D12*
%TO.C,C3*%
X193380000Y-97550000D02*
G75*
G03*
X193380000Y-97550000I-50000J0D01*
G01*
%TO.C,C7*%
X187550000Y-105250000D02*
G75*
G03*
X187550000Y-105250000I-50000J0D01*
G01*
D13*
%TO.C,U3*%
X178790000Y-94180000D02*
X180740000Y-94180000D01*
X178790000Y-99300000D02*
X175340000Y-99300000D01*
X178790000Y-94180000D02*
X176840000Y-94180000D01*
X178790000Y-99300000D02*
X180740000Y-99300000D01*
%TO.C,C2*%
X176990000Y-103109420D02*
X176990000Y-103390580D01*
X178010000Y-103109420D02*
X178010000Y-103390580D01*
D12*
%TO.C,C6*%
X193800000Y-105250000D02*
G75*
G03*
X193800000Y-105250000I-50000J0D01*
G01*
%TO.C,C4*%
X188050000Y-97550000D02*
G75*
G03*
X188050000Y-97550000I-50000J0D01*
G01*
%TO.C,D2*%
X189275000Y-85975000D02*
X186575000Y-85975000D01*
X190225000Y-84425000D02*
X186575000Y-84425000D01*
D13*
%TO.C,C1*%
X173510000Y-103109420D02*
X173510000Y-103390580D01*
X172490000Y-103109420D02*
X172490000Y-103390580D01*
%TO.C,U1*%
X178790000Y-93555000D02*
X175340000Y-93555000D01*
X178790000Y-84685000D02*
X180740000Y-84685000D01*
X178790000Y-84685000D02*
X176840000Y-84685000D01*
X178790000Y-93555000D02*
X180740000Y-93555000D01*
%TD*%
M02*
