%TF.GenerationSoftware,KiCad,Pcbnew,6.0.7-f9a2dced07~116~ubuntu20.04.1*%
%TF.CreationDate,2023-02-12T14:19:42-08:00*%
%TF.ProjectId,CAN_Controller,43414e5f-436f-46e7-9472-6f6c6c65722e,rev?*%
%TF.SameCoordinates,Original*%
%TF.FileFunction,Soldermask,Bot*%
%TF.FilePolarity,Negative*%
%FSLAX46Y46*%
G04 Gerber Fmt 4.6, Leading zero omitted, Abs format (unit mm)*
G04 Created by KiCad (PCBNEW 6.0.7-f9a2dced07~116~ubuntu20.04.1) date 2023-02-12 14:19:42*
%MOMM*%
%LPD*%
G01*
G04 APERTURE LIST*
G04 Aperture macros list*
%AMRoundRect*
0 Rectangle with rounded corners*
0 $1 Rounding radius*
0 $2 $3 $4 $5 $6 $7 $8 $9 X,Y pos of 4 corners*
0 Add a 4 corners polygon primitive as box body*
4,1,4,$2,$3,$4,$5,$6,$7,$8,$9,$2,$3,0*
0 Add four circle primitives for the rounded corners*
1,1,$1+$1,$2,$3*
1,1,$1+$1,$4,$5*
1,1,$1+$1,$6,$7*
1,1,$1+$1,$8,$9*
0 Add four rect primitives between the rounded corners*
20,1,$1+$1,$2,$3,$4,$5,0*
20,1,$1+$1,$4,$5,$6,$7,0*
20,1,$1+$1,$6,$7,$8,$9,0*
20,1,$1+$1,$8,$9,$2,$3,0*%
G04 Aperture macros list end*
%ADD10R,1.700000X1.700000*%
%ADD11O,1.700000X1.700000*%
%ADD12R,2.200000X1.100000*%
%ADD13R,1.350000X1.100000*%
%ADD14RoundRect,0.150000X-0.825000X-0.150000X0.825000X-0.150000X0.825000X0.150000X-0.825000X0.150000X0*%
%ADD15RoundRect,0.225000X-0.250000X0.225000X-0.250000X-0.225000X0.250000X-0.225000X0.250000X0.225000X0*%
%ADD16R,1.200000X0.750000*%
G04 APERTURE END LIST*
D10*
%TO.C,J3*%
X183275000Y-103500000D03*
D11*
X180735000Y-103500000D03*
%TD*%
D10*
%TO.C,J1*%
X192250000Y-88750000D03*
D11*
X189710000Y-88750000D03*
X187170000Y-88750000D03*
%TD*%
D10*
%TO.C,J2*%
X169900000Y-103075000D03*
D11*
X169900000Y-100535000D03*
X169900000Y-97995000D03*
X169900000Y-95455000D03*
X169900000Y-92915000D03*
X169900000Y-90375000D03*
X169900000Y-87835000D03*
X169900000Y-85295000D03*
%TD*%
D12*
%TO.C,C3*%
X193330000Y-96200000D03*
X193330000Y-92900000D03*
%TD*%
D13*
%TO.C,C7*%
X187500000Y-103900000D03*
X187500000Y-100600000D03*
%TD*%
D14*
%TO.C,U3*%
X176315000Y-98645000D03*
X176315000Y-97375000D03*
X176315000Y-96105000D03*
X176315000Y-94835000D03*
X181265000Y-94835000D03*
X181265000Y-96105000D03*
X181265000Y-97375000D03*
X181265000Y-98645000D03*
%TD*%
D15*
%TO.C,C2*%
X177500000Y-102475000D03*
X177500000Y-104025000D03*
%TD*%
D13*
%TO.C,C6*%
X193750000Y-103900000D03*
X193750000Y-100600000D03*
%TD*%
D12*
%TO.C,C4*%
X188000000Y-96200000D03*
X188000000Y-92900000D03*
%TD*%
D16*
%TO.C,D2*%
X189625000Y-85200000D03*
X186225000Y-85200000D03*
%TD*%
D15*
%TO.C,C1*%
X173000000Y-102475000D03*
X173000000Y-104025000D03*
%TD*%
D14*
%TO.C,U1*%
X176315000Y-92930000D03*
X176315000Y-91660000D03*
X176315000Y-90390000D03*
X176315000Y-89120000D03*
X176315000Y-87850000D03*
X176315000Y-86580000D03*
X176315000Y-85310000D03*
X181265000Y-85310000D03*
X181265000Y-86580000D03*
X181265000Y-87850000D03*
X181265000Y-89120000D03*
X181265000Y-90390000D03*
X181265000Y-91660000D03*
X181265000Y-92930000D03*
%TD*%
M02*
