%TF.GenerationSoftware,KiCad,Pcbnew,7.0.1-3b83917a11~172~ubuntu22.04.1*%
%TF.CreationDate,2023-03-18T22:57:58-07:00*%
%TF.ProjectId,CAN_Controller,43414e5f-436f-46e7-9472-6f6c6c65722e,rev?*%
%TF.SameCoordinates,Original*%
%TF.FileFunction,Copper,L2,Bot*%
%TF.FilePolarity,Positive*%
%FSLAX46Y46*%
G04 Gerber Fmt 4.6, Leading zero omitted, Abs format (unit mm)*
G04 Created by KiCad (PCBNEW 7.0.1-3b83917a11~172~ubuntu22.04.1) date 2023-03-18 22:57:58*
%MOMM*%
%LPD*%
G01*
G04 APERTURE LIST*
G04 Aperture macros list*
%AMRoundRect*
0 Rectangle with rounded corners*
0 $1 Rounding radius*
0 $2 $3 $4 $5 $6 $7 $8 $9 X,Y pos of 4 corners*
0 Add a 4 corners polygon primitive as box body*
4,1,4,$2,$3,$4,$5,$6,$7,$8,$9,$2,$3,0*
0 Add four circle primitives for the rounded corners*
1,1,$1+$1,$2,$3*
1,1,$1+$1,$4,$5*
1,1,$1+$1,$6,$7*
1,1,$1+$1,$8,$9*
0 Add four rect primitives between the rounded corners*
20,1,$1+$1,$2,$3,$4,$5,0*
20,1,$1+$1,$4,$5,$6,$7,0*
20,1,$1+$1,$6,$7,$8,$9,0*
20,1,$1+$1,$8,$9,$2,$3,0*%
G04 Aperture macros list end*
%TA.AperFunction,ComponentPad*%
%ADD10R,1.350000X1.350000*%
%TD*%
%TA.AperFunction,ComponentPad*%
%ADD11O,1.350000X1.350000*%
%TD*%
%TA.AperFunction,SMDPad,CuDef*%
%ADD12R,2.200000X1.100000*%
%TD*%
%TA.AperFunction,SMDPad,CuDef*%
%ADD13R,1.820000X0.620000*%
%TD*%
%TA.AperFunction,SMDPad,CuDef*%
%ADD14RoundRect,0.200000X0.275000X-0.200000X0.275000X0.200000X-0.275000X0.200000X-0.275000X-0.200000X0*%
%TD*%
%TA.AperFunction,SMDPad,CuDef*%
%ADD15RoundRect,0.150000X-0.825000X-0.150000X0.825000X-0.150000X0.825000X0.150000X-0.825000X0.150000X0*%
%TD*%
%TA.AperFunction,SMDPad,CuDef*%
%ADD16RoundRect,0.200000X-0.200000X-0.275000X0.200000X-0.275000X0.200000X0.275000X-0.200000X0.275000X0*%
%TD*%
%TA.AperFunction,SMDPad,CuDef*%
%ADD17RoundRect,0.225000X-0.250000X0.225000X-0.250000X-0.225000X0.250000X-0.225000X0.250000X0.225000X0*%
%TD*%
%TA.AperFunction,SMDPad,CuDef*%
%ADD18R,0.990000X0.780000*%
%TD*%
%TA.AperFunction,SMDPad,CuDef*%
%ADD19R,1.200000X0.750000*%
%TD*%
%TA.AperFunction,ViaPad*%
%ADD20C,0.533400*%
%TD*%
%TA.AperFunction,ViaPad*%
%ADD21C,0.800000*%
%TD*%
%TA.AperFunction,Conductor*%
%ADD22C,0.508000*%
%TD*%
%TA.AperFunction,Conductor*%
%ADD23C,0.825500*%
%TD*%
%TA.AperFunction,Conductor*%
%ADD24C,0.254000*%
%TD*%
%TA.AperFunction,Conductor*%
%ADD25C,0.250000*%
%TD*%
G04 APERTURE END LIST*
D10*
%TO.P,J1,1,Pin_1*%
%TO.N,GND*%
X138584000Y-95729000D03*
D11*
%TO.P,J1,2,Pin_2*%
%TO.N,Vdd*%
X136584000Y-95729000D03*
%TO.P,J1,3,Pin_3*%
%TO.N,CAN L*%
X134584000Y-95729000D03*
%TO.P,J1,4,Pin_4*%
%TO.N,CAN H*%
X132584000Y-95729000D03*
%TD*%
D10*
%TO.P,J5,1,Pin_1*%
%TO.N,Net-(J5-Pin_1)*%
X122794000Y-75879000D03*
D11*
%TO.P,J5,2,Pin_2*%
%TO.N,Net-(J5-Pin_2)*%
X124794000Y-75879000D03*
%TO.P,J5,3,Pin_3*%
%TO.N,Net-(J5-Pin_3)*%
X126794000Y-75879000D03*
%TO.P,J5,4,Pin_4*%
%TO.N,Net-(J5-Pin_4)*%
X128794000Y-75879000D03*
%TO.P,J5,5,Pin_5*%
%TO.N,Net-(J5-Pin_5)*%
X130794000Y-75879000D03*
%TO.P,J5,6,Pin_6*%
%TO.N,Net-(J5-Pin_6)*%
X132794000Y-75879000D03*
%TO.P,J5,7,Pin_7*%
%TO.N,Net-(J5-Pin_7)*%
X134794000Y-75879000D03*
%TO.P,J5,8,Pin_8*%
%TO.N,Net-(J5-Pin_8)*%
X136794000Y-75879000D03*
%TO.P,J5,9,Pin_9*%
%TO.N,Vos*%
X138794000Y-75879000D03*
%TD*%
D12*
%TO.P,C3,1*%
%TO.N,GND*%
X136499000Y-84679000D03*
%TO.P,C3,2*%
%TO.N,Vdd*%
X136499000Y-87979000D03*
%TD*%
D13*
%TO.P,C7,1*%
%TO.N,GND*%
X143369000Y-81579000D03*
%TO.P,C7,2*%
%TO.N,Vos*%
X143369000Y-78379000D03*
%TD*%
D12*
%TO.P,C4,2*%
%TO.N,Vdd*%
X141969000Y-87979000D03*
%TO.P,C4,1*%
%TO.N,GND*%
X141969000Y-84679000D03*
%TD*%
D14*
%TO.P,R1,1*%
%TO.N,GND*%
X129850000Y-96050000D03*
%TO.P,R1,2*%
%TO.N,Net-(U3-Rs)*%
X129850000Y-94400000D03*
%TD*%
D15*
%TO.P,U3,1,TXD*%
%TO.N,Net-(U2-TXCAN)*%
X124844000Y-92624000D03*
%TO.P,U3,2,VSS*%
%TO.N,GND*%
X124844000Y-91354000D03*
%TO.P,U3,3,VDD*%
%TO.N,Vos*%
X124844000Y-90084000D03*
%TO.P,U3,4,RXD*%
%TO.N,Net-(U2-RXCAN)*%
X124844000Y-88814000D03*
%TO.P,U3,5,Vref*%
%TO.N,unconnected-(U3-Vref-Pad5)*%
X129794000Y-88814000D03*
%TO.P,U3,6,CANL*%
%TO.N,CAN L*%
X129794000Y-90084000D03*
%TO.P,U3,7,CANH*%
%TO.N,CAN H*%
X129794000Y-91354000D03*
%TO.P,U3,8,Rs*%
%TO.N,Net-(U3-Rs)*%
X129794000Y-92624000D03*
%TD*%
D16*
%TO.P,R3,1*%
%TO.N,Vos*%
X141319836Y-96565000D03*
%TO.P,R3,2*%
%TO.N,Net-(U4-VFB)*%
X142969836Y-96565000D03*
%TD*%
D17*
%TO.P,C2,1*%
%TO.N,Net-(U2-OSC2)*%
X127369000Y-94404000D03*
%TO.P,C2,2*%
%TO.N,GND*%
X127369000Y-95954000D03*
%TD*%
D13*
%TO.P,C6,1*%
%TO.N,GND*%
X135169000Y-81579000D03*
%TO.P,C6,2*%
%TO.N,Vos*%
X135169000Y-78379000D03*
%TD*%
D18*
%TO.P,C5,1,1*%
%TO.N,Net-(U4-BOOST)*%
X140219000Y-92779000D03*
%TO.P,C5,2,2*%
%TO.N,Net-(D2-K)*%
X140219000Y-91379000D03*
%TD*%
D16*
%TO.P,R2,1*%
%TO.N,GND*%
X141315000Y-94870000D03*
%TO.P,R2,2*%
%TO.N,Net-(U4-VFB)*%
X142965000Y-94870000D03*
%TD*%
D19*
%TO.P,D2,1,K*%
%TO.N,Net-(D2-K)*%
X138119000Y-91354000D03*
%TO.P,D2,2,A*%
%TO.N,Vos*%
X134719000Y-91354000D03*
%TD*%
D17*
%TO.P,C1,1*%
%TO.N,Net-(U2-OSC1)*%
X123169000Y-94379000D03*
%TO.P,C1,2*%
%TO.N,GND*%
X123169000Y-95929000D03*
%TD*%
D15*
%TO.P,U1,1,VCC*%
%TO.N,Vos*%
X124844000Y-86909000D03*
%TO.P,U1,2,PA4*%
%TO.N,Net-(J5-Pin_1)*%
X124844000Y-85639000D03*
%TO.P,U1,3,PA5*%
%TO.N,Net-(J5-Pin_2)*%
X124844000Y-84369000D03*
%TO.P,U1,4,PA6*%
%TO.N,Net-(J5-Pin_3)*%
X124844000Y-83099000D03*
%TO.P,U1,5,PA7*%
%TO.N,Net-(J5-Pin_4)*%
X124844000Y-81829000D03*
%TO.P,U1,6,PB3*%
%TO.N,Net-(J5-Pin_5)*%
X124844000Y-80559000D03*
%TO.P,U1,7,PB2*%
%TO.N,Net-(J5-Pin_6)*%
X124844000Y-79289000D03*
%TO.P,U1,8,PB1*%
%TO.N,Net-(J5-Pin_7)*%
X129794000Y-79289000D03*
%TO.P,U1,9,PB0*%
%TO.N,Net-(U1-PB0)*%
X129794000Y-80559000D03*
%TO.P,U1,10,~{RESET}/PA0*%
%TO.N,Net-(J5-Pin_8)*%
X129794000Y-81829000D03*
%TO.P,U1,11,PA1*%
%TO.N,Net-(U1-PA1)*%
X129794000Y-83099000D03*
%TO.P,U1,12,PA2*%
%TO.N,Net-(U1-PA2)*%
X129794000Y-84369000D03*
%TO.P,U1,13,PA3*%
%TO.N,Net-(U1-PA3)*%
X129794000Y-85639000D03*
%TO.P,U1,14,GND*%
%TO.N,GND*%
X129794000Y-86909000D03*
%TD*%
D20*
%TO.N,GND*%
X121150000Y-98300000D03*
X121150000Y-96760000D03*
X121150000Y-94220000D03*
X121150000Y-91680000D03*
X121150000Y-89140000D03*
X121150000Y-86600000D03*
X121150000Y-84060000D03*
X121150000Y-81520000D03*
X121150000Y-78980000D03*
X121150000Y-76440000D03*
D21*
X125150000Y-95600000D03*
D20*
X123730000Y-98300000D03*
X141610000Y-86400000D03*
X126230000Y-73900000D03*
X144150000Y-92200000D03*
X141610000Y-83300000D03*
X144050000Y-80600000D03*
X128810000Y-98300000D03*
X144150000Y-86400000D03*
X123690000Y-73900000D03*
X136390000Y-73900000D03*
X141510000Y-98300000D03*
X143990000Y-76440000D03*
X138970000Y-98300000D03*
X127850000Y-92100000D03*
X136530000Y-86400000D03*
X131310000Y-73900000D03*
X144050000Y-95600000D03*
X133990000Y-86400000D03*
X126270000Y-98300000D03*
X141470000Y-73900000D03*
X133950000Y-89500000D03*
X136530000Y-83300000D03*
X127250000Y-90500000D03*
X133850000Y-73900000D03*
X133890000Y-98300000D03*
X139070000Y-83300000D03*
X144150000Y-83300000D03*
X144050000Y-98300000D03*
X133990000Y-83300000D03*
X136430000Y-98300000D03*
X141510000Y-80600000D03*
X139070000Y-86400000D03*
X136430000Y-80600000D03*
X141450000Y-76440000D03*
X138930000Y-73900000D03*
X121150000Y-73900000D03*
X133890000Y-80600000D03*
X122750000Y-92600000D03*
X144150000Y-89100000D03*
X128770000Y-73900000D03*
X144010000Y-73900000D03*
X138970000Y-80600000D03*
X131350000Y-98300000D03*
D21*
%TO.N,Vdd*%
X141984000Y-89041500D03*
%TO.N,Vos*%
X141569000Y-78779000D03*
X136769000Y-78779000D03*
X126981701Y-80941701D03*
%TO.N,Net-(U2-OSC1)*%
X124769000Y-94379000D03*
D20*
%TO.N,Net-(U2-OSC2)*%
X125650000Y-94400000D03*
D21*
%TO.N,Net-(U4-BOOST)*%
X139010000Y-93120000D03*
%TO.N,Net-(J5-Pin_8)*%
X128061300Y-81911300D03*
D20*
%TO.N,Net-(U4-VFB)*%
X144310000Y-93690000D03*
D21*
%TO.N,Net-(U1-PB0)*%
X127550000Y-88100000D03*
%TO.N,Net-(U1-PA1)*%
X127774451Y-83249049D03*
%TO.N,Net-(U1-PA2)*%
X128279000Y-84369000D03*
%TO.N,Net-(U1-PA3)*%
X128053103Y-86372397D03*
%TO.N,Net-(U2-TXCAN)*%
X126440000Y-92624000D03*
%TO.N,Net-(U2-RXCAN)*%
X124979000Y-87829000D03*
%TD*%
D22*
%TO.N,Vdd*%
X136584000Y-88064000D02*
X136499000Y-87979000D01*
D23*
X136499000Y-87979000D02*
X141969000Y-87979000D01*
D22*
X141969000Y-87979000D02*
X141969000Y-89026500D01*
D24*
X141969000Y-89026500D02*
X141984000Y-89041500D01*
D23*
X136584000Y-95729000D02*
X136584000Y-88064000D01*
D22*
%TO.N,Vos*%
X141584000Y-78764000D02*
X141584000Y-78379000D01*
D25*
X141569000Y-78779000D02*
X141969000Y-78379000D01*
X135584000Y-94594000D02*
X135584000Y-96444000D01*
D22*
X136769000Y-78779000D02*
X136769000Y-78394000D01*
D24*
X124844000Y-86909000D02*
X126059000Y-86909000D01*
D25*
X136369000Y-78379000D02*
X136769000Y-78779000D01*
X126470000Y-86538000D02*
X126099000Y-86909000D01*
X126981701Y-80941701D02*
X126529000Y-81394402D01*
X126470000Y-85590000D02*
X126470000Y-86538000D01*
D22*
X141569000Y-78779000D02*
X141584000Y-78764000D01*
X136784000Y-78379000D02*
X138769000Y-78379000D01*
D25*
X135584000Y-96444000D02*
X136200000Y-97060000D01*
X126203000Y-89459000D02*
X126144000Y-89400000D01*
X125866000Y-90084000D02*
X126144000Y-89806000D01*
D22*
X135169000Y-78379000D02*
X136784000Y-78379000D01*
D25*
X136200000Y-97060000D02*
X140824836Y-97060000D01*
X141969000Y-78379000D02*
X143369000Y-78379000D01*
X131349000Y-89459000D02*
X126203000Y-89459000D01*
X126144000Y-86954000D02*
X126099000Y-86909000D01*
X124844000Y-90084000D02*
X125866000Y-90084000D01*
D23*
X138794000Y-75879000D02*
X138794000Y-78354000D01*
D25*
X140824836Y-97060000D02*
X141319836Y-96565000D01*
X133244000Y-91354000D02*
X131349000Y-89459000D01*
X126529000Y-81394402D02*
X126529000Y-85531000D01*
D24*
X134719000Y-91354000D02*
X134719000Y-93729000D01*
D25*
X126144000Y-89806000D02*
X126144000Y-89400000D01*
D22*
X141584000Y-78379000D02*
X143369000Y-78379000D01*
D25*
X126529000Y-85531000D02*
X126470000Y-85590000D01*
X135169000Y-78379000D02*
X136369000Y-78379000D01*
D22*
X136769000Y-78394000D02*
X136784000Y-78379000D01*
D25*
X126144000Y-89400000D02*
X126144000Y-86954000D01*
X134719000Y-91354000D02*
X133244000Y-91354000D01*
X138794000Y-78354000D02*
X138769000Y-78379000D01*
X134719000Y-93729000D02*
X135584000Y-94594000D01*
X126099000Y-86909000D02*
X124844000Y-86909000D01*
D22*
X138769000Y-78379000D02*
X141584000Y-78379000D01*
D24*
%TO.N,CAN L*%
X131059000Y-90084000D02*
X133790000Y-92815000D01*
X133790000Y-92815000D02*
X133790000Y-94847500D01*
X133790000Y-94847500D02*
X134584000Y-95641500D01*
X129794000Y-90084000D02*
X131059000Y-90084000D01*
%TO.N,CAN H*%
X132580000Y-95725000D02*
X132580000Y-93030000D01*
X132584000Y-95729000D02*
X132580000Y-95725000D01*
X132580000Y-93030000D02*
X130904000Y-91354000D01*
X130904000Y-91354000D02*
X129794000Y-91354000D01*
D25*
%TO.N,Net-(U2-OSC1)*%
X124769000Y-94379000D02*
X123169000Y-94379000D01*
%TO.N,Net-(U2-OSC2)*%
X125750000Y-94300000D02*
X127265000Y-94300000D01*
X125650000Y-94400000D02*
X125750000Y-94300000D01*
%TO.N,Net-(U4-BOOST)*%
X139010000Y-93120000D02*
X139351000Y-92779000D01*
X139351000Y-92779000D02*
X140219000Y-92779000D01*
D24*
%TO.N,Net-(D2-K)*%
X138144000Y-91379000D02*
X138119000Y-91354000D01*
X140219000Y-91379000D02*
X138144000Y-91379000D01*
D25*
%TO.N,Net-(J5-Pin_1)*%
X121744000Y-82282147D02*
X121744000Y-76929000D01*
X124844000Y-85639000D02*
X123819000Y-85639000D01*
X122820000Y-83358147D02*
X121744000Y-82282147D01*
X121744000Y-76929000D02*
X122794000Y-75879000D01*
X122820000Y-84640000D02*
X122820000Y-83358147D01*
X123819000Y-85639000D02*
X122820000Y-84640000D01*
%TO.N,Net-(J5-Pin_2)*%
X124467249Y-84369000D02*
X122194000Y-82095751D01*
X124844000Y-84369000D02*
X124467249Y-84369000D01*
X122194000Y-82095751D02*
X122194000Y-78379000D01*
X122194000Y-78379000D02*
X122198061Y-78379000D01*
X124698061Y-75879000D02*
X124794000Y-75879000D01*
X122198061Y-78379000D02*
X124698061Y-75879000D01*
%TO.N,Net-(J5-Pin_3)*%
X126794000Y-75954000D02*
X126794000Y-75879000D01*
X125469000Y-77279000D02*
X126794000Y-75954000D01*
X122644000Y-78569457D02*
X123934457Y-77279000D01*
X122644000Y-81740396D02*
X122644000Y-78569457D01*
X123934457Y-77279000D02*
X125469000Y-77279000D01*
X124844000Y-83099000D02*
X124002604Y-83099000D01*
X124002604Y-83099000D02*
X122644000Y-81740396D01*
%TO.N,Net-(J5-Pin_4)*%
X124120853Y-77729000D02*
X126944000Y-77729000D01*
X124844000Y-81829000D02*
X123369000Y-81829000D01*
X123094000Y-78755853D02*
X124120853Y-77729000D01*
X126944000Y-77729000D02*
X128794000Y-75879000D01*
X123369000Y-81829000D02*
X123094000Y-81554000D01*
X123094000Y-81554000D02*
X123094000Y-78755853D01*
%TO.N,Net-(J5-Pin_5)*%
X124844000Y-80559000D02*
X123899000Y-80559000D01*
X124307249Y-78179000D02*
X128069000Y-78179000D01*
X128069000Y-78179000D02*
X130369000Y-75879000D01*
X123544000Y-78942249D02*
X124307249Y-78179000D01*
X130369000Y-75879000D02*
X130794000Y-75879000D01*
X123544000Y-80204000D02*
X123544000Y-78942249D01*
X123899000Y-80559000D02*
X123544000Y-80204000D01*
%TO.N,Net-(J5-Pin_6)*%
X127909000Y-79289000D02*
X129308000Y-77890000D01*
X129308000Y-77890000D02*
X130783000Y-77890000D01*
X130783000Y-77890000D02*
X132794000Y-75879000D01*
X124844000Y-79289000D02*
X127909000Y-79289000D01*
%TO.N,Net-(J5-Pin_7)*%
X131384000Y-79289000D02*
X134794000Y-75879000D01*
X129794000Y-79289000D02*
X131384000Y-79289000D01*
%TO.N,Net-(J5-Pin_8)*%
X129794000Y-81829000D02*
X131369000Y-81829000D01*
X131369000Y-81829000D02*
X131369000Y-80301792D01*
X134291792Y-77379000D02*
X135294000Y-77379000D01*
X135294000Y-77379000D02*
X136794000Y-75879000D01*
X128143600Y-81829000D02*
X128061300Y-81911300D01*
X131369000Y-80301792D02*
X134291792Y-77379000D01*
X129794000Y-81829000D02*
X128143600Y-81829000D01*
%TO.N,Net-(U4-VFB)*%
X142969836Y-94874836D02*
X142965000Y-94870000D01*
X143100000Y-94870000D02*
X142965000Y-94870000D01*
X142969836Y-96565000D02*
X142969836Y-94874836D01*
X144410000Y-93560000D02*
X143100000Y-94870000D01*
%TO.N,Net-(U1-PB0)*%
X126979000Y-87529000D02*
X126979000Y-81969000D01*
X128389000Y-80559000D02*
X129794000Y-80559000D01*
X126979000Y-81969000D02*
X128389000Y-80559000D01*
X127550000Y-88100000D02*
X126979000Y-87529000D01*
%TO.N,Net-(U1-PA1)*%
X127924500Y-83099000D02*
X129794000Y-83099000D01*
X127774451Y-83249049D02*
X127924500Y-83099000D01*
%TO.N,Net-(U1-PA2)*%
X128279000Y-84369000D02*
X129794000Y-84369000D01*
%TO.N,Net-(U1-PA3)*%
X128221000Y-85639000D02*
X129794000Y-85639000D01*
X128053103Y-85806897D02*
X128221000Y-85639000D01*
X128053103Y-86372397D02*
X128053103Y-85806897D01*
%TO.N,Net-(U2-TXCAN)*%
X126440000Y-92624000D02*
X124844000Y-92624000D01*
%TO.N,Net-(U2-RXCAN)*%
X124979000Y-87829000D02*
X124979000Y-88679000D01*
X124979000Y-88679000D02*
X124844000Y-88814000D01*
%TO.N,Net-(U3-Rs)*%
X129850000Y-92680000D02*
X129794000Y-92624000D01*
X129850000Y-94400000D02*
X129850000Y-92680000D01*
%TD*%
%TA.AperFunction,Conductor*%
%TO.N,GND*%
G36*
X145627500Y-73017113D02*
G01*
X145672887Y-73062500D01*
X145689500Y-73124500D01*
X145689500Y-98855500D01*
X145672887Y-98917500D01*
X145627500Y-98962887D01*
X145565500Y-98979500D01*
X120604145Y-98979500D01*
X120542104Y-98962863D01*
X120496710Y-98917417D01*
X120480145Y-98855357D01*
X120483239Y-96179000D01*
X122194001Y-96179000D01*
X122194001Y-96202315D01*
X122204143Y-96301605D01*
X122257453Y-96462486D01*
X122346426Y-96606732D01*
X122466267Y-96726573D01*
X122610513Y-96815546D01*
X122771393Y-96868856D01*
X122870685Y-96879000D01*
X122919000Y-96879000D01*
X122919000Y-96179000D01*
X123419000Y-96179000D01*
X123419000Y-96878999D01*
X123467315Y-96878999D01*
X123566605Y-96868856D01*
X123727486Y-96815546D01*
X123871732Y-96726573D01*
X123991573Y-96606732D01*
X124080546Y-96462486D01*
X124133856Y-96301606D01*
X124143828Y-96204000D01*
X126394001Y-96204000D01*
X126394001Y-96227315D01*
X126404143Y-96326605D01*
X126457453Y-96487486D01*
X126546426Y-96631732D01*
X126666267Y-96751573D01*
X126810513Y-96840546D01*
X126971393Y-96893856D01*
X127070685Y-96904000D01*
X127119000Y-96904000D01*
X127119000Y-96204000D01*
X127619000Y-96204000D01*
X127619000Y-96903999D01*
X127667315Y-96903999D01*
X127766605Y-96893856D01*
X127927486Y-96840546D01*
X128071732Y-96751573D01*
X128191573Y-96631732D01*
X128280546Y-96487486D01*
X128333856Y-96326606D01*
X128336574Y-96300000D01*
X128875001Y-96300000D01*
X128875001Y-96306579D01*
X128881408Y-96377104D01*
X128931981Y-96539397D01*
X129019925Y-96684875D01*
X129140124Y-96805074D01*
X129285603Y-96893019D01*
X129447893Y-96943590D01*
X129518424Y-96950000D01*
X129600000Y-96950000D01*
X129600000Y-96300000D01*
X130100000Y-96300000D01*
X130100000Y-96949999D01*
X130181579Y-96949999D01*
X130252104Y-96943591D01*
X130414397Y-96893018D01*
X130559875Y-96805074D01*
X130680074Y-96684875D01*
X130768019Y-96539396D01*
X130818590Y-96377106D01*
X130825000Y-96306576D01*
X130825000Y-96300000D01*
X130100000Y-96300000D01*
X129600000Y-96300000D01*
X128875001Y-96300000D01*
X128336574Y-96300000D01*
X128344000Y-96227315D01*
X128344000Y-96204000D01*
X127619000Y-96204000D01*
X127119000Y-96204000D01*
X126394001Y-96204000D01*
X124143828Y-96204000D01*
X124144000Y-96202315D01*
X124144000Y-96179000D01*
X123419000Y-96179000D01*
X122919000Y-96179000D01*
X122194001Y-96179000D01*
X120483239Y-96179000D01*
X120485003Y-94652871D01*
X122185500Y-94652871D01*
X122195763Y-94753336D01*
X122249697Y-94916099D01*
X122339715Y-95062041D01*
X122350001Y-95072326D01*
X122382096Y-95127912D01*
X122382098Y-95192099D01*
X122350006Y-95247687D01*
X122346427Y-95251265D01*
X122257453Y-95395513D01*
X122204143Y-95556393D01*
X122194000Y-95655685D01*
X122194000Y-95679000D01*
X124143999Y-95679000D01*
X124143999Y-95655685D01*
X124133856Y-95556394D01*
X124080546Y-95395513D01*
X123991573Y-95251267D01*
X123987996Y-95247690D01*
X123955901Y-95192099D01*
X123955904Y-95127907D01*
X123988003Y-95072321D01*
X123992926Y-95067398D01*
X124042289Y-95037154D01*
X124100001Y-95032615D01*
X124153484Y-95054770D01*
X124312245Y-95170117D01*
X124486714Y-95247795D01*
X124673511Y-95287500D01*
X124673513Y-95287500D01*
X124864487Y-95287500D01*
X124864489Y-95287500D01*
X125051285Y-95247795D01*
X125051286Y-95247794D01*
X125051288Y-95247794D01*
X125225752Y-95170118D01*
X125263582Y-95142632D01*
X125318445Y-95120267D01*
X125377423Y-95125909D01*
X125476409Y-95160546D01*
X125650000Y-95180105D01*
X125823590Y-95160546D01*
X125988475Y-95102850D01*
X126136388Y-95009911D01*
X126176478Y-94969820D01*
X126216708Y-94942939D01*
X126264161Y-94933500D01*
X126375803Y-94933500D01*
X126436235Y-94949222D01*
X126481341Y-94992403D01*
X126539713Y-95087038D01*
X126550001Y-95097326D01*
X126582096Y-95152912D01*
X126582098Y-95217099D01*
X126550006Y-95272687D01*
X126546427Y-95276265D01*
X126457453Y-95420513D01*
X126404143Y-95581393D01*
X126394000Y-95680685D01*
X126394000Y-95704000D01*
X128343999Y-95704000D01*
X128343999Y-95680685D01*
X128333856Y-95581394D01*
X128280546Y-95420513D01*
X128191573Y-95276267D01*
X128187996Y-95272690D01*
X128155902Y-95217101D01*
X128155903Y-95152912D01*
X128187997Y-95097327D01*
X128198285Y-95087040D01*
X128288302Y-94941101D01*
X128342236Y-94778336D01*
X128352500Y-94677872D01*
X128352500Y-94130128D01*
X128342236Y-94029664D01*
X128341850Y-94028500D01*
X128297614Y-93895001D01*
X128288302Y-93866899D01*
X128198285Y-93720960D01*
X128198284Y-93720959D01*
X128198283Y-93720957D01*
X128077042Y-93599716D01*
X127957021Y-93525686D01*
X127931101Y-93509698D01*
X127931100Y-93509697D01*
X127931099Y-93509697D01*
X127768336Y-93455763D01*
X127677183Y-93446451D01*
X127667872Y-93445500D01*
X127201333Y-93445500D01*
X127146198Y-93432568D01*
X127102563Y-93396470D01*
X127079529Y-93344735D01*
X127081901Y-93288154D01*
X127109181Y-93238529D01*
X127179040Y-93160944D01*
X127192445Y-93137727D01*
X127274527Y-92995556D01*
X127297680Y-92924298D01*
X127333542Y-92813928D01*
X127353504Y-92624000D01*
X127333542Y-92434072D01*
X127289817Y-92299500D01*
X127274527Y-92252443D01*
X127179042Y-92087058D01*
X127129385Y-92031909D01*
X127051253Y-91945134D01*
X126896752Y-91832882D01*
X126896751Y-91832881D01*
X126722285Y-91755204D01*
X126535489Y-91715500D01*
X126535487Y-91715500D01*
X126441662Y-91715500D01*
X126376872Y-91697227D01*
X126331177Y-91647795D01*
X126324157Y-91612505D01*
X126316295Y-91604000D01*
X123371704Y-91604000D01*
X123371900Y-91606488D01*
X123417719Y-91764200D01*
X123509291Y-91919040D01*
X123505921Y-91921032D01*
X123523160Y-91950890D01*
X123523165Y-92015072D01*
X123501284Y-92052979D01*
X123502521Y-92053710D01*
X123409854Y-92210399D01*
X123363438Y-92370165D01*
X123360500Y-92407501D01*
X123360500Y-92840499D01*
X123363438Y-92877834D01*
X123409854Y-93037600D01*
X123494547Y-93180808D01*
X123522558Y-93208819D01*
X123552808Y-93258182D01*
X123557350Y-93315898D01*
X123535195Y-93369385D01*
X123491172Y-93406985D01*
X123434877Y-93420500D01*
X122870128Y-93420500D01*
X122861606Y-93421370D01*
X122769663Y-93430763D01*
X122606900Y-93484697D01*
X122460957Y-93574716D01*
X122339716Y-93695957D01*
X122249697Y-93841900D01*
X122195763Y-94004663D01*
X122185500Y-94105129D01*
X122185500Y-94652871D01*
X120485003Y-94652871D01*
X120505516Y-76908941D01*
X121105780Y-76908941D01*
X121109950Y-76953057D01*
X121110500Y-76964726D01*
X121110500Y-82198514D01*
X121108210Y-82219255D01*
X121110439Y-82290164D01*
X121110500Y-82294060D01*
X121110500Y-82322002D01*
X121111018Y-82326103D01*
X121111934Y-82337744D01*
X121113326Y-82382035D01*
X121119022Y-82401639D01*
X121122967Y-82420691D01*
X121125525Y-82440945D01*
X121141838Y-82482148D01*
X121145621Y-82493196D01*
X121157982Y-82535740D01*
X121168374Y-82553313D01*
X121176931Y-82570780D01*
X121184448Y-82589765D01*
X121210491Y-82625610D01*
X121216905Y-82635374D01*
X121239458Y-82673509D01*
X121253890Y-82687941D01*
X121266526Y-82702736D01*
X121278526Y-82719252D01*
X121312667Y-82747496D01*
X121321308Y-82755359D01*
X122150181Y-83584233D01*
X122177061Y-83624461D01*
X122186500Y-83671914D01*
X122186500Y-84556367D01*
X122184210Y-84577108D01*
X122186439Y-84648017D01*
X122186500Y-84651913D01*
X122186500Y-84679855D01*
X122187018Y-84683956D01*
X122187934Y-84695597D01*
X122189326Y-84739888D01*
X122195022Y-84759492D01*
X122198967Y-84778544D01*
X122201525Y-84798798D01*
X122217838Y-84840001D01*
X122221621Y-84851049D01*
X122233982Y-84893593D01*
X122244374Y-84911166D01*
X122252931Y-84928633D01*
X122260448Y-84947618D01*
X122286491Y-84983463D01*
X122292905Y-84993227D01*
X122315458Y-85031362D01*
X122329890Y-85045794D01*
X122342526Y-85060589D01*
X122354526Y-85077105D01*
X122388667Y-85105349D01*
X122397308Y-85113212D01*
X123311910Y-86027814D01*
X123324959Y-86044101D01*
X123326999Y-86046016D01*
X123327000Y-86046018D01*
X123376701Y-86092690D01*
X123379434Y-86095338D01*
X123399230Y-86115134D01*
X123402493Y-86117665D01*
X123411369Y-86125245D01*
X123443679Y-86155586D01*
X123454077Y-86161302D01*
X123480876Y-86187268D01*
X123483442Y-86184702D01*
X123485031Y-86186290D01*
X123491599Y-86197658D01*
X123501065Y-86206830D01*
X123502512Y-86209276D01*
X123499381Y-86211127D01*
X123517142Y-86241868D01*
X123517162Y-86306055D01*
X123499390Y-86336857D01*
X123502521Y-86338709D01*
X123409854Y-86495399D01*
X123363438Y-86655165D01*
X123360500Y-86692501D01*
X123360500Y-87125499D01*
X123363438Y-87162834D01*
X123409854Y-87322600D01*
X123494547Y-87465808D01*
X123612191Y-87583452D01*
X123755399Y-87668145D01*
X123915165Y-87714561D01*
X123915169Y-87714562D01*
X123951810Y-87717445D01*
X124005944Y-87734774D01*
X124046660Y-87774437D01*
X124065401Y-87828101D01*
X124069662Y-87868639D01*
X124059176Y-87933022D01*
X124017465Y-87983176D01*
X123956070Y-88005219D01*
X123952499Y-88005500D01*
X123952498Y-88005500D01*
X123943712Y-88006191D01*
X123915165Y-88008438D01*
X123755399Y-88054854D01*
X123612191Y-88139547D01*
X123494547Y-88257191D01*
X123409854Y-88400399D01*
X123363438Y-88560165D01*
X123363438Y-88560169D01*
X123360500Y-88597498D01*
X123360500Y-89030502D01*
X123361051Y-89037500D01*
X123363438Y-89067834D01*
X123409854Y-89227600D01*
X123502521Y-89384291D01*
X123499390Y-89386142D01*
X123517152Y-89416906D01*
X123517152Y-89481094D01*
X123499390Y-89511857D01*
X123502521Y-89513709D01*
X123409854Y-89670399D01*
X123363438Y-89830165D01*
X123360500Y-89867501D01*
X123360500Y-90300499D01*
X123363438Y-90337834D01*
X123409854Y-90497600D01*
X123502521Y-90654291D01*
X123501285Y-90655021D01*
X123523155Y-90692887D01*
X123523176Y-90757053D01*
X123505924Y-90786969D01*
X123509291Y-90788961D01*
X123417719Y-90943799D01*
X123371900Y-91101511D01*
X123371704Y-91103999D01*
X123371705Y-91104000D01*
X126316295Y-91104000D01*
X126316295Y-91103999D01*
X126316099Y-91101511D01*
X126270280Y-90943799D01*
X126178709Y-90788960D01*
X126182079Y-90786966D01*
X126164836Y-90757101D01*
X126164839Y-90692911D01*
X126186709Y-90655034D01*
X126185472Y-90654303D01*
X126190398Y-90645971D01*
X126194055Y-90642313D01*
X126196937Y-90637323D01*
X126204538Y-90629723D01*
X126205591Y-90630776D01*
X126234018Y-90602346D01*
X126257362Y-90588542D01*
X126271800Y-90574103D01*
X126286588Y-90561472D01*
X126303107Y-90549472D01*
X126331359Y-90515319D01*
X126339203Y-90506699D01*
X126532816Y-90313086D01*
X126549097Y-90300044D01*
X126551014Y-90298002D01*
X126551018Y-90298000D01*
X126597706Y-90248279D01*
X126600323Y-90245579D01*
X126620134Y-90225770D01*
X126622672Y-90222497D01*
X126630241Y-90213634D01*
X126660586Y-90181321D01*
X126670422Y-90163427D01*
X126681104Y-90147165D01*
X126686286Y-90140485D01*
X126729709Y-90105141D01*
X126784255Y-90092500D01*
X128186500Y-90092500D01*
X128248500Y-90109113D01*
X128293887Y-90154500D01*
X128310500Y-90216500D01*
X128310500Y-90300499D01*
X128313438Y-90337834D01*
X128359854Y-90497600D01*
X128452521Y-90654291D01*
X128449390Y-90656142D01*
X128467152Y-90686906D01*
X128467152Y-90751094D01*
X128449390Y-90781857D01*
X128452521Y-90783709D01*
X128359854Y-90940399D01*
X128313438Y-91100165D01*
X128310500Y-91137501D01*
X128310500Y-91570499D01*
X128313438Y-91607834D01*
X128359854Y-91767600D01*
X128452521Y-91924291D01*
X128449390Y-91926142D01*
X128467152Y-91956906D01*
X128467152Y-92021094D01*
X128449390Y-92051857D01*
X128452521Y-92053709D01*
X128359854Y-92210399D01*
X128313438Y-92370165D01*
X128310500Y-92407501D01*
X128310500Y-92840499D01*
X128313438Y-92877834D01*
X128359854Y-93037600D01*
X128444547Y-93180808D01*
X128562191Y-93298452D01*
X128705399Y-93383145D01*
X128865165Y-93429561D01*
X128865169Y-93429562D01*
X128902498Y-93432500D01*
X129041166Y-93432500D01*
X129097461Y-93446015D01*
X129141484Y-93483615D01*
X129163639Y-93537102D01*
X129159097Y-93594818D01*
X129128847Y-93644181D01*
X129013184Y-93759843D01*
X128931480Y-93895000D01*
X128924173Y-93907087D01*
X128912617Y-93944173D01*
X128872986Y-94071353D01*
X128866500Y-94142733D01*
X128866500Y-94657268D01*
X128872986Y-94728649D01*
X128924171Y-94892910D01*
X129013184Y-95040156D01*
X129116358Y-95143330D01*
X129148452Y-95198917D01*
X129148452Y-95263105D01*
X129116358Y-95318692D01*
X129019925Y-95415124D01*
X128931980Y-95560603D01*
X128881409Y-95722893D01*
X128875000Y-95793424D01*
X128875000Y-95800000D01*
X130824999Y-95800000D01*
X130824999Y-95793421D01*
X130818591Y-95722895D01*
X130768018Y-95560602D01*
X130680075Y-95415126D01*
X130583641Y-95318693D01*
X130551547Y-95263105D01*
X130551547Y-95198917D01*
X130583639Y-95143331D01*
X130686816Y-95040155D01*
X130775827Y-94892913D01*
X130827013Y-94728649D01*
X130833500Y-94657265D01*
X130833499Y-94142736D01*
X130832919Y-94136358D01*
X130827013Y-94071350D01*
X130775828Y-93907089D01*
X130772394Y-93901409D01*
X130710404Y-93798864D01*
X130686815Y-93759843D01*
X130571153Y-93644181D01*
X130540903Y-93594818D01*
X130536361Y-93537102D01*
X130558516Y-93483615D01*
X130602539Y-93446015D01*
X130658834Y-93432500D01*
X130685499Y-93432500D01*
X130685502Y-93432500D01*
X130722831Y-93429562D01*
X130882601Y-93383145D01*
X131025807Y-93298453D01*
X131143453Y-93180807D01*
X131228145Y-93037601D01*
X131273368Y-92881940D01*
X131306149Y-92827491D01*
X131361605Y-92796434D01*
X131425163Y-92796933D01*
X131480124Y-92828857D01*
X131908181Y-93256914D01*
X131935061Y-93297142D01*
X131944500Y-93344595D01*
X131944500Y-94663897D01*
X131928830Y-94724235D01*
X131885779Y-94769323D01*
X131867726Y-94780501D01*
X131705636Y-94928264D01*
X131573456Y-95103299D01*
X131475692Y-95299635D01*
X131415667Y-95510604D01*
X131395430Y-95728999D01*
X131415667Y-95947395D01*
X131415667Y-95947398D01*
X131415668Y-95947399D01*
X131419932Y-95962387D01*
X131475692Y-96158364D01*
X131573456Y-96354700D01*
X131705636Y-96529735D01*
X131867724Y-96677497D01*
X131867726Y-96677498D01*
X131867727Y-96677499D01*
X132054209Y-96792964D01*
X132258732Y-96872197D01*
X132474333Y-96912500D01*
X132693665Y-96912500D01*
X132693667Y-96912500D01*
X132909268Y-96872197D01*
X133113791Y-96792964D01*
X133300273Y-96677499D01*
X133462364Y-96529734D01*
X133462365Y-96529733D01*
X133485046Y-96499699D01*
X133528728Y-96463425D01*
X133584000Y-96450425D01*
X133639272Y-96463425D01*
X133682954Y-96499699D01*
X133705634Y-96529733D01*
X133867724Y-96677497D01*
X133867726Y-96677498D01*
X133867727Y-96677499D01*
X134054209Y-96792964D01*
X134258732Y-96872197D01*
X134474333Y-96912500D01*
X134693665Y-96912500D01*
X134693667Y-96912500D01*
X134909268Y-96872197D01*
X134978509Y-96845372D01*
X135031691Y-96837283D01*
X135083299Y-96852481D01*
X135105585Y-96872176D01*
X135106458Y-96871122D01*
X135152667Y-96909349D01*
X135161308Y-96917212D01*
X135692910Y-97448814D01*
X135705959Y-97465101D01*
X135707999Y-97467016D01*
X135708000Y-97467018D01*
X135757701Y-97513690D01*
X135760465Y-97516369D01*
X135780231Y-97536135D01*
X135783497Y-97538668D01*
X135792375Y-97546250D01*
X135824679Y-97576586D01*
X135842570Y-97586421D01*
X135858823Y-97597097D01*
X135870816Y-97606399D01*
X135874961Y-97609615D01*
X135915618Y-97627208D01*
X135926102Y-97632343D01*
X135964940Y-97653695D01*
X135984714Y-97658772D01*
X136003119Y-97665073D01*
X136021855Y-97673181D01*
X136065630Y-97680113D01*
X136077041Y-97682477D01*
X136119970Y-97693500D01*
X136140384Y-97693500D01*
X136159783Y-97695027D01*
X136179943Y-97698220D01*
X136224056Y-97694050D01*
X136235726Y-97693500D01*
X140741203Y-97693500D01*
X140761944Y-97695789D01*
X140764741Y-97695701D01*
X140764745Y-97695702D01*
X140832853Y-97693560D01*
X140836749Y-97693500D01*
X140864690Y-97693500D01*
X140864692Y-97693500D01*
X140868792Y-97692981D01*
X140880442Y-97692064D01*
X140924725Y-97690673D01*
X140944334Y-97684975D01*
X140963367Y-97681033D01*
X140983633Y-97678474D01*
X141024842Y-97662157D01*
X141035873Y-97658380D01*
X141078429Y-97646018D01*
X141095996Y-97635628D01*
X141113468Y-97627068D01*
X141132453Y-97619552D01*
X141168311Y-97593498D01*
X141178049Y-97587101D01*
X141214130Y-97565764D01*
X141277247Y-97548499D01*
X141577104Y-97548499D01*
X141648485Y-97542013D01*
X141812746Y-97490828D01*
X141812746Y-97490827D01*
X141812749Y-97490827D01*
X141959991Y-97401816D01*
X141959992Y-97401814D01*
X142057155Y-97304653D01*
X142112742Y-97272559D01*
X142176930Y-97272559D01*
X142232517Y-97304653D01*
X142329679Y-97401815D01*
X142329681Y-97401816D01*
X142476923Y-97490827D01*
X142641187Y-97542013D01*
X142712571Y-97548500D01*
X143227100Y-97548499D01*
X143227104Y-97548499D01*
X143298485Y-97542013D01*
X143462746Y-97490828D01*
X143462746Y-97490827D01*
X143462749Y-97490827D01*
X143609991Y-97401816D01*
X143731652Y-97280155D01*
X143820663Y-97132913D01*
X143871849Y-96968649D01*
X143878336Y-96897265D01*
X143878335Y-96232736D01*
X143877842Y-96227315D01*
X143871849Y-96161350D01*
X143820664Y-95997089D01*
X143790625Y-95947399D01*
X143772249Y-95917000D01*
X143731651Y-95849843D01*
X143684571Y-95802764D01*
X143652476Y-95747176D01*
X143652476Y-95682988D01*
X143684571Y-95627400D01*
X143726815Y-95585156D01*
X143729025Y-95581501D01*
X143815827Y-95437913D01*
X143867013Y-95273649D01*
X143873500Y-95202265D01*
X143873499Y-95043764D01*
X143882938Y-94996313D01*
X143909815Y-94956087D01*
X144376015Y-94489888D01*
X144409892Y-94465852D01*
X144449811Y-94454352D01*
X144462045Y-94452973D01*
X144483590Y-94450546D01*
X144648475Y-94392850D01*
X144796388Y-94299911D01*
X144919911Y-94176388D01*
X145012850Y-94028475D01*
X145070546Y-93863590D01*
X145090105Y-93690000D01*
X145089904Y-93688220D01*
X145070546Y-93516409D01*
X145023157Y-93380980D01*
X145012850Y-93351525D01*
X145009204Y-93345723D01*
X144997538Y-93321774D01*
X144978939Y-93270111D01*
X144888972Y-93137729D01*
X144768910Y-93031879D01*
X144626296Y-92959214D01*
X144470092Y-92924298D01*
X144470088Y-92924298D01*
X144453772Y-92924810D01*
X144436001Y-92924091D01*
X144310000Y-92909894D01*
X144136409Y-92929453D01*
X143971524Y-92987149D01*
X143823611Y-93080088D01*
X143700088Y-93203611D01*
X143607149Y-93351524D01*
X143554370Y-93502357D01*
X143525010Y-93549083D01*
X143223913Y-93850181D01*
X143183685Y-93877061D01*
X143136232Y-93886500D01*
X142707731Y-93886500D01*
X142636350Y-93892986D01*
X142472089Y-93944171D01*
X142324843Y-94033184D01*
X142221670Y-94136358D01*
X142166083Y-94168452D01*
X142101895Y-94168452D01*
X142046308Y-94136358D01*
X141949875Y-94039925D01*
X141804396Y-93951980D01*
X141642106Y-93901409D01*
X141571576Y-93895000D01*
X141565000Y-93895000D01*
X141565000Y-94996000D01*
X141548387Y-95058000D01*
X141503000Y-95103387D01*
X141441000Y-95120000D01*
X140415001Y-95120000D01*
X140415001Y-95201579D01*
X140421408Y-95272104D01*
X140471981Y-95434397D01*
X140559925Y-95579875D01*
X140606276Y-95626226D01*
X140638370Y-95681813D01*
X140638370Y-95746001D01*
X140606276Y-95801588D01*
X140558020Y-95849843D01*
X140479943Y-95979000D01*
X140469009Y-95997087D01*
X140443416Y-96079218D01*
X140417822Y-96161353D01*
X140411336Y-96232734D01*
X140411336Y-96302500D01*
X140394723Y-96364500D01*
X140349336Y-96409887D01*
X140287336Y-96426500D01*
X139883000Y-96426500D01*
X139821000Y-96409887D01*
X139775613Y-96364500D01*
X139759000Y-96302500D01*
X139759000Y-95979000D01*
X138458000Y-95979000D01*
X138396000Y-95962387D01*
X138350613Y-95917000D01*
X138334000Y-95855000D01*
X138334000Y-94554000D01*
X138834000Y-94554000D01*
X138834000Y-95479000D01*
X139759000Y-95479000D01*
X139759000Y-95006176D01*
X139752597Y-94946624D01*
X139702352Y-94811910D01*
X139616188Y-94696811D01*
X139513583Y-94620000D01*
X140415000Y-94620000D01*
X141065000Y-94620000D01*
X141065000Y-93895001D01*
X141058421Y-93895001D01*
X140987895Y-93901408D01*
X140825602Y-93951981D01*
X140680124Y-94039925D01*
X140559925Y-94160124D01*
X140471980Y-94305603D01*
X140421409Y-94467893D01*
X140415000Y-94538424D01*
X140415000Y-94620000D01*
X139513583Y-94620000D01*
X139501089Y-94610647D01*
X139366375Y-94560402D01*
X139306824Y-94554000D01*
X138834000Y-94554000D01*
X138334000Y-94554000D01*
X137861176Y-94554000D01*
X137801624Y-94560402D01*
X137672584Y-94608532D01*
X137613797Y-94615383D01*
X137558530Y-94594206D01*
X137519374Y-94549825D01*
X137505250Y-94492350D01*
X137505250Y-92361500D01*
X137521863Y-92299500D01*
X137567250Y-92254113D01*
X137629250Y-92237500D01*
X138303592Y-92237500D01*
X138358727Y-92250432D01*
X138402362Y-92286530D01*
X138425396Y-92338265D01*
X138423024Y-92394846D01*
X138395744Y-92444468D01*
X138327533Y-92520224D01*
X138270957Y-92583058D01*
X138175472Y-92748443D01*
X138116458Y-92930070D01*
X138096496Y-93120000D01*
X138116458Y-93309929D01*
X138175472Y-93491556D01*
X138270957Y-93656941D01*
X138270960Y-93656944D01*
X138398747Y-93798866D01*
X138519366Y-93886501D01*
X138553248Y-93911118D01*
X138727714Y-93988795D01*
X138914511Y-94028500D01*
X138914513Y-94028500D01*
X139105487Y-94028500D01*
X139105489Y-94028500D01*
X139292285Y-93988795D01*
X139292286Y-93988794D01*
X139292288Y-93988794D01*
X139466752Y-93911118D01*
X139621253Y-93798866D01*
X139693590Y-93718527D01*
X139735304Y-93688220D01*
X139785739Y-93677500D01*
X140762634Y-93677500D01*
X140762638Y-93677500D01*
X140823201Y-93670989D01*
X140823203Y-93670988D01*
X140823205Y-93670988D01*
X140911154Y-93638184D01*
X140960204Y-93619889D01*
X141077261Y-93532261D01*
X141164889Y-93415204D01*
X141191225Y-93344595D01*
X141215988Y-93278205D01*
X141215988Y-93278203D01*
X141215989Y-93278201D01*
X141222500Y-93217638D01*
X141222500Y-92340362D01*
X141215989Y-92279799D01*
X141164889Y-92142796D01*
X141164888Y-92142795D01*
X141158658Y-92126091D01*
X141160086Y-92125558D01*
X141150862Y-92105362D01*
X141150862Y-92052638D01*
X141160086Y-92032441D01*
X141158658Y-92031909D01*
X141164938Y-92015072D01*
X141215989Y-91878201D01*
X141222500Y-91817638D01*
X141222500Y-90940362D01*
X141215989Y-90879799D01*
X141215988Y-90879797D01*
X141215988Y-90879794D01*
X141164889Y-90742796D01*
X141077261Y-90625738D01*
X140960203Y-90538110D01*
X140823205Y-90487011D01*
X140792919Y-90483755D01*
X140762638Y-90480500D01*
X139675362Y-90480500D01*
X139648445Y-90483393D01*
X139614794Y-90487011D01*
X139477796Y-90538110D01*
X139360740Y-90625737D01*
X139324510Y-90674135D01*
X139280747Y-90710708D01*
X139225243Y-90723824D01*
X139169739Y-90710708D01*
X139125976Y-90674135D01*
X139101027Y-90640807D01*
X139082261Y-90615739D01*
X139082259Y-90615738D01*
X139082259Y-90615737D01*
X138965203Y-90528110D01*
X138828205Y-90477011D01*
X138797919Y-90473755D01*
X138767638Y-90470500D01*
X138767634Y-90470500D01*
X137629250Y-90470500D01*
X137567250Y-90453887D01*
X137521863Y-90408500D01*
X137505250Y-90346500D01*
X137505250Y-89161500D01*
X137521863Y-89099500D01*
X137567250Y-89054113D01*
X137629250Y-89037500D01*
X137647634Y-89037500D01*
X137647638Y-89037500D01*
X137708201Y-89030989D01*
X137708203Y-89030988D01*
X137708205Y-89030988D01*
X137786124Y-89001924D01*
X137845204Y-88979889D01*
X137918548Y-88924983D01*
X137953701Y-88906596D01*
X137992860Y-88900250D01*
X140475140Y-88900250D01*
X140514299Y-88906596D01*
X140549450Y-88924983D01*
X140622796Y-88979889D01*
X140759794Y-89030988D01*
X140759797Y-89030988D01*
X140759799Y-89030989D01*
X140820362Y-89037500D01*
X140958426Y-89037500D01*
X141016641Y-89052015D01*
X141061227Y-89092160D01*
X141081745Y-89148535D01*
X141089529Y-89222598D01*
X141090458Y-89231429D01*
X141149472Y-89413056D01*
X141244957Y-89578441D01*
X141244960Y-89578444D01*
X141372747Y-89720366D01*
X141523872Y-89830165D01*
X141527248Y-89832618D01*
X141701714Y-89910295D01*
X141888511Y-89950000D01*
X141888513Y-89950000D01*
X142079487Y-89950000D01*
X142079489Y-89950000D01*
X142266285Y-89910295D01*
X142266286Y-89910294D01*
X142266288Y-89910294D01*
X142440752Y-89832618D01*
X142595253Y-89720366D01*
X142723040Y-89578444D01*
X142818527Y-89413056D01*
X142877542Y-89231428D01*
X142886254Y-89148535D01*
X142906773Y-89092160D01*
X142951359Y-89052015D01*
X143009574Y-89037500D01*
X143117634Y-89037500D01*
X143117638Y-89037500D01*
X143178201Y-89030989D01*
X143178203Y-89030988D01*
X143178205Y-89030988D01*
X143256124Y-89001924D01*
X143315204Y-88979889D01*
X143432261Y-88892261D01*
X143519889Y-88775204D01*
X143570989Y-88638201D01*
X143577500Y-88577638D01*
X143577500Y-87380362D01*
X143570989Y-87319799D01*
X143570988Y-87319797D01*
X143570988Y-87319794D01*
X143519889Y-87182796D01*
X143432261Y-87065738D01*
X143315203Y-86978110D01*
X143178205Y-86927011D01*
X143147919Y-86923755D01*
X143117638Y-86920500D01*
X140820362Y-86920500D01*
X140793445Y-86923393D01*
X140759794Y-86927011D01*
X140622796Y-86978110D01*
X140549450Y-87033017D01*
X140514299Y-87051404D01*
X140475140Y-87057750D01*
X137992860Y-87057750D01*
X137953701Y-87051404D01*
X137918550Y-87033017D01*
X137845203Y-86978110D01*
X137708205Y-86927011D01*
X137677919Y-86923755D01*
X137647638Y-86920500D01*
X135350362Y-86920500D01*
X135323445Y-86923393D01*
X135289794Y-86927011D01*
X135152796Y-86978110D01*
X135035738Y-87065738D01*
X134948110Y-87182796D01*
X134897011Y-87319794D01*
X134893393Y-87353445D01*
X134890500Y-87380362D01*
X134890500Y-88577638D01*
X134892880Y-88599774D01*
X134897011Y-88638205D01*
X134948110Y-88775203D01*
X135035738Y-88892261D01*
X135152796Y-88979889D01*
X135289794Y-89030988D01*
X135289797Y-89030988D01*
X135289799Y-89030989D01*
X135350362Y-89037500D01*
X135538750Y-89037500D01*
X135600750Y-89054113D01*
X135646137Y-89099500D01*
X135662750Y-89161500D01*
X135662750Y-90385899D01*
X135648626Y-90443374D01*
X135609470Y-90487755D01*
X135554203Y-90508932D01*
X135495416Y-90502081D01*
X135428201Y-90477011D01*
X135428200Y-90477010D01*
X135367638Y-90470500D01*
X134070362Y-90470500D01*
X134043445Y-90473393D01*
X134009794Y-90477011D01*
X133872796Y-90528110D01*
X133755738Y-90615738D01*
X133714513Y-90670810D01*
X133670751Y-90707384D01*
X133615246Y-90720500D01*
X133557766Y-90720500D01*
X133510313Y-90711061D01*
X133470085Y-90684181D01*
X131856088Y-89070183D01*
X131843044Y-89053901D01*
X131791331Y-89005340D01*
X131788564Y-89002659D01*
X131768770Y-88982865D01*
X131768769Y-88982864D01*
X131768768Y-88982863D01*
X131765495Y-88980324D01*
X131756622Y-88972745D01*
X131724321Y-88942414D01*
X131706433Y-88932580D01*
X131690169Y-88921896D01*
X131674040Y-88909385D01*
X131633377Y-88891789D01*
X131622883Y-88886648D01*
X131584062Y-88865305D01*
X131572386Y-88862307D01*
X131564284Y-88860227D01*
X131545879Y-88853926D01*
X131527145Y-88845819D01*
X131527143Y-88845818D01*
X131527142Y-88845818D01*
X131483383Y-88838887D01*
X131471943Y-88836518D01*
X131429031Y-88825500D01*
X131429030Y-88825500D01*
X131408616Y-88825500D01*
X131389227Y-88823974D01*
X131382100Y-88822845D01*
X131328615Y-88800692D01*
X131291015Y-88756668D01*
X131277500Y-88700373D01*
X131277500Y-88597501D01*
X131276043Y-88578990D01*
X131274562Y-88560169D01*
X131228145Y-88400399D01*
X131143453Y-88257193D01*
X131143452Y-88257191D01*
X131025808Y-88139547D01*
X130882600Y-88054854D01*
X130722834Y-88008438D01*
X130704166Y-88006969D01*
X130685502Y-88005500D01*
X128902498Y-88005500D01*
X128886499Y-88006759D01*
X128865165Y-88008438D01*
X128705399Y-88054854D01*
X128639444Y-88093860D01*
X128580542Y-88111056D01*
X128520607Y-88097906D01*
X128474315Y-88057629D01*
X128453003Y-88000092D01*
X128443542Y-87910072D01*
X128384527Y-87728444D01*
X128384526Y-87728442D01*
X128381384Y-87718772D01*
X128377095Y-87659519D01*
X128400860Y-87605071D01*
X128447224Y-87567926D01*
X128505545Y-87556611D01*
X128562436Y-87573722D01*
X128708802Y-87660282D01*
X128866506Y-87706099D01*
X128903361Y-87709000D01*
X129544000Y-87709000D01*
X129544000Y-87159000D01*
X130044000Y-87159000D01*
X130044000Y-87709000D01*
X130684639Y-87709000D01*
X130721493Y-87706099D01*
X130879197Y-87660282D01*
X131020557Y-87576682D01*
X131136682Y-87460557D01*
X131220280Y-87319200D01*
X131266099Y-87161488D01*
X131266295Y-87159000D01*
X130044000Y-87159000D01*
X129544000Y-87159000D01*
X129544000Y-86783000D01*
X129560613Y-86721000D01*
X129606000Y-86675613D01*
X129668000Y-86659000D01*
X131266295Y-86659000D01*
X131266295Y-86658999D01*
X131266099Y-86656511D01*
X131220280Y-86498799D01*
X131128709Y-86343960D01*
X131132079Y-86341966D01*
X131114836Y-86312101D01*
X131114839Y-86247911D01*
X131136716Y-86210022D01*
X131135479Y-86209291D01*
X131185181Y-86125249D01*
X131228145Y-86052601D01*
X131274562Y-85892831D01*
X131277500Y-85855502D01*
X131277500Y-85422498D01*
X131274562Y-85385169D01*
X131252575Y-85309490D01*
X131228145Y-85225399D01*
X131135479Y-85068709D01*
X131138612Y-85066855D01*
X131120851Y-85036106D01*
X131120851Y-84971894D01*
X131138612Y-84941144D01*
X131135479Y-84939291D01*
X131141565Y-84929000D01*
X134899000Y-84929000D01*
X134899000Y-85276824D01*
X134905402Y-85336375D01*
X134955647Y-85471089D01*
X135041811Y-85586188D01*
X135156910Y-85672352D01*
X135291624Y-85722597D01*
X135351176Y-85729000D01*
X136249000Y-85729000D01*
X136249000Y-84929000D01*
X136749000Y-84929000D01*
X136749000Y-85729000D01*
X137646824Y-85729000D01*
X137706375Y-85722597D01*
X137841089Y-85672352D01*
X137956188Y-85586188D01*
X138042352Y-85471089D01*
X138092597Y-85336375D01*
X138099000Y-85276824D01*
X138099000Y-84929000D01*
X140369000Y-84929000D01*
X140369000Y-85276824D01*
X140375402Y-85336375D01*
X140425647Y-85471089D01*
X140511811Y-85586188D01*
X140626910Y-85672352D01*
X140761624Y-85722597D01*
X140821176Y-85729000D01*
X141719000Y-85729000D01*
X141719000Y-84929000D01*
X142219000Y-84929000D01*
X142219000Y-85729000D01*
X143116824Y-85729000D01*
X143176375Y-85722597D01*
X143311089Y-85672352D01*
X143426188Y-85586188D01*
X143512352Y-85471089D01*
X143562597Y-85336375D01*
X143569000Y-85276824D01*
X143569000Y-84929000D01*
X142219000Y-84929000D01*
X141719000Y-84929000D01*
X140369000Y-84929000D01*
X138099000Y-84929000D01*
X136749000Y-84929000D01*
X136249000Y-84929000D01*
X134899000Y-84929000D01*
X131141565Y-84929000D01*
X131190988Y-84845430D01*
X131228145Y-84782601D01*
X131274562Y-84622831D01*
X131277500Y-84585502D01*
X131277500Y-84429000D01*
X134899000Y-84429000D01*
X136249000Y-84429000D01*
X136249000Y-83629000D01*
X136749000Y-83629000D01*
X136749000Y-84429000D01*
X138099000Y-84429000D01*
X140369000Y-84429000D01*
X141719000Y-84429000D01*
X141719000Y-83629000D01*
X142219000Y-83629000D01*
X142219000Y-84429000D01*
X143569000Y-84429000D01*
X143569000Y-84081176D01*
X143562597Y-84021624D01*
X143512352Y-83886910D01*
X143426188Y-83771811D01*
X143311089Y-83685647D01*
X143176375Y-83635402D01*
X143116824Y-83629000D01*
X142219000Y-83629000D01*
X141719000Y-83629000D01*
X140821176Y-83629000D01*
X140761624Y-83635402D01*
X140626910Y-83685647D01*
X140511811Y-83771811D01*
X140425647Y-83886910D01*
X140375402Y-84021624D01*
X140369000Y-84081176D01*
X140369000Y-84429000D01*
X138099000Y-84429000D01*
X138099000Y-84081176D01*
X138092597Y-84021624D01*
X138042352Y-83886910D01*
X137956188Y-83771811D01*
X137841089Y-83685647D01*
X137706375Y-83635402D01*
X137646824Y-83629000D01*
X136749000Y-83629000D01*
X136249000Y-83629000D01*
X135351176Y-83629000D01*
X135291624Y-83635402D01*
X135156910Y-83685647D01*
X135041811Y-83771811D01*
X134955647Y-83886910D01*
X134905402Y-84021624D01*
X134899000Y-84081176D01*
X134899000Y-84429000D01*
X131277500Y-84429000D01*
X131277500Y-84152498D01*
X131274562Y-84115169D01*
X131228145Y-83955399D01*
X131143453Y-83812193D01*
X131135479Y-83798709D01*
X131138612Y-83796855D01*
X131120851Y-83766106D01*
X131120851Y-83701894D01*
X131138612Y-83671144D01*
X131135479Y-83669291D01*
X131185782Y-83584233D01*
X131228145Y-83512601D01*
X131274562Y-83352831D01*
X131277500Y-83315502D01*
X131277500Y-82882498D01*
X131274562Y-82845169D01*
X131248470Y-82755359D01*
X131228146Y-82685401D01*
X131221113Y-82673509D01*
X131209060Y-82653128D01*
X131192145Y-82599347D01*
X131200792Y-82543633D01*
X131233214Y-82497507D01*
X131282708Y-82470504D01*
X131313396Y-82469253D01*
X131313271Y-82467259D01*
X131376271Y-82463295D01*
X131385015Y-82462744D01*
X131392801Y-82462500D01*
X131408855Y-82462500D01*
X131408856Y-82462500D01*
X131424800Y-82460485D01*
X131432484Y-82459758D01*
X131488650Y-82456225D01*
X131496653Y-82453624D01*
X131519444Y-82448529D01*
X131520066Y-82448450D01*
X131527797Y-82447474D01*
X131548921Y-82439109D01*
X131580066Y-82426779D01*
X131587372Y-82424147D01*
X131640875Y-82406764D01*
X131647989Y-82402248D01*
X131668780Y-82391654D01*
X131676617Y-82388552D01*
X131722104Y-82355502D01*
X131728543Y-82351128D01*
X131749633Y-82337744D01*
X131776018Y-82321000D01*
X131781787Y-82314856D01*
X131799290Y-82299424D01*
X131806107Y-82294472D01*
X131841953Y-82251139D01*
X131847082Y-82245322D01*
X131885586Y-82204321D01*
X131889645Y-82196935D01*
X131902762Y-82177635D01*
X131908133Y-82171144D01*
X131932075Y-82120262D01*
X131935595Y-82113353D01*
X131962695Y-82064060D01*
X131964789Y-82055900D01*
X131972694Y-82033943D01*
X131976283Y-82026318D01*
X131986821Y-81971072D01*
X131988509Y-81963515D01*
X132002500Y-81909030D01*
X132002500Y-81900607D01*
X132004696Y-81877373D01*
X132006275Y-81869093D01*
X132003753Y-81829000D01*
X133759000Y-81829000D01*
X133759000Y-81936824D01*
X133765402Y-81996375D01*
X133815647Y-82131089D01*
X133901811Y-82246188D01*
X134016910Y-82332352D01*
X134151624Y-82382597D01*
X134211176Y-82389000D01*
X134919000Y-82389000D01*
X134919000Y-81829000D01*
X135419000Y-81829000D01*
X135419000Y-82389000D01*
X136126824Y-82389000D01*
X136186375Y-82382597D01*
X136321089Y-82332352D01*
X136436188Y-82246188D01*
X136522352Y-82131089D01*
X136572597Y-81996375D01*
X136579000Y-81936824D01*
X136579000Y-81829000D01*
X141959000Y-81829000D01*
X141959000Y-81936824D01*
X141965402Y-81996375D01*
X142015647Y-82131089D01*
X142101811Y-82246188D01*
X142216910Y-82332352D01*
X142351624Y-82382597D01*
X142411176Y-82389000D01*
X143119000Y-82389000D01*
X143119000Y-81829000D01*
X143619000Y-81829000D01*
X143619000Y-82389000D01*
X144326824Y-82389000D01*
X144386375Y-82382597D01*
X144521089Y-82332352D01*
X144636188Y-82246188D01*
X144722352Y-82131089D01*
X144772597Y-81996375D01*
X144779000Y-81936824D01*
X144779000Y-81829000D01*
X143619000Y-81829000D01*
X143119000Y-81829000D01*
X141959000Y-81829000D01*
X136579000Y-81829000D01*
X135419000Y-81829000D01*
X134919000Y-81829000D01*
X133759000Y-81829000D01*
X132003753Y-81829000D01*
X132002745Y-81812986D01*
X132002500Y-81805199D01*
X132002500Y-81329000D01*
X133759000Y-81329000D01*
X134919000Y-81329000D01*
X134919000Y-80769000D01*
X135419000Y-80769000D01*
X135419000Y-81329000D01*
X136579000Y-81329000D01*
X141959000Y-81329000D01*
X143119000Y-81329000D01*
X143119000Y-80769000D01*
X143619000Y-80769000D01*
X143619000Y-81329000D01*
X144779000Y-81329000D01*
X144779000Y-81221176D01*
X144772597Y-81161624D01*
X144722352Y-81026910D01*
X144636188Y-80911811D01*
X144521089Y-80825647D01*
X144386375Y-80775402D01*
X144326824Y-80769000D01*
X143619000Y-80769000D01*
X143119000Y-80769000D01*
X142411176Y-80769000D01*
X142351624Y-80775402D01*
X142216910Y-80825647D01*
X142101811Y-80911811D01*
X142015647Y-81026910D01*
X141965402Y-81161624D01*
X141959000Y-81221176D01*
X141959000Y-81329000D01*
X136579000Y-81329000D01*
X136579000Y-81221176D01*
X136572597Y-81161624D01*
X136522352Y-81026910D01*
X136436188Y-80911811D01*
X136321089Y-80825647D01*
X136186375Y-80775402D01*
X136126824Y-80769000D01*
X135419000Y-80769000D01*
X134919000Y-80769000D01*
X134211176Y-80769000D01*
X134151624Y-80775402D01*
X134016910Y-80825647D01*
X133901811Y-80911811D01*
X133815647Y-81026910D01*
X133765402Y-81161624D01*
X133759000Y-81221176D01*
X133759000Y-81329000D01*
X132002500Y-81329000D01*
X132002500Y-80615558D01*
X132011939Y-80568105D01*
X132038819Y-80527877D01*
X132434524Y-80132172D01*
X133631310Y-78935384D01*
X133692631Y-78901901D01*
X133762322Y-78906885D01*
X133818256Y-78948756D01*
X133895740Y-79052262D01*
X134012796Y-79139889D01*
X134149794Y-79190988D01*
X134149797Y-79190988D01*
X134149799Y-79190989D01*
X134210362Y-79197500D01*
X135889985Y-79197500D01*
X135951985Y-79214113D01*
X135997371Y-79259499D01*
X136029960Y-79315944D01*
X136157747Y-79457866D01*
X136312247Y-79570117D01*
X136312248Y-79570118D01*
X136486714Y-79647795D01*
X136673511Y-79687500D01*
X136673513Y-79687500D01*
X136864487Y-79687500D01*
X136864489Y-79687500D01*
X137051285Y-79647795D01*
X137051286Y-79647794D01*
X137051288Y-79647794D01*
X137225752Y-79570118D01*
X137380253Y-79457866D01*
X137508040Y-79315944D01*
X137531535Y-79275250D01*
X137572960Y-79203500D01*
X137618347Y-79158113D01*
X137680347Y-79141500D01*
X138271416Y-79141500D01*
X138321851Y-79152220D01*
X138507752Y-79234988D01*
X138697171Y-79275250D01*
X138697173Y-79275250D01*
X138890827Y-79275250D01*
X138890829Y-79275250D01*
X139080247Y-79234988D01*
X139080248Y-79234987D01*
X139080250Y-79234987D01*
X139257162Y-79156221D01*
X139257162Y-79156220D01*
X139266148Y-79152220D01*
X139316583Y-79141500D01*
X140657653Y-79141500D01*
X140719653Y-79158113D01*
X140765040Y-79203500D01*
X140829957Y-79315941D01*
X140829960Y-79315944D01*
X140957747Y-79457866D01*
X141112247Y-79570117D01*
X141112248Y-79570118D01*
X141286714Y-79647795D01*
X141473511Y-79687500D01*
X141473513Y-79687500D01*
X141664487Y-79687500D01*
X141664489Y-79687500D01*
X141851285Y-79647795D01*
X141851286Y-79647794D01*
X141851288Y-79647794D01*
X142025752Y-79570118D01*
X142180253Y-79457866D01*
X142308040Y-79315944D01*
X142340627Y-79259500D01*
X142386015Y-79214113D01*
X142448015Y-79197500D01*
X144327634Y-79197500D01*
X144327638Y-79197500D01*
X144388201Y-79190989D01*
X144388203Y-79190988D01*
X144388205Y-79190988D01*
X144476344Y-79158113D01*
X144525204Y-79139889D01*
X144642261Y-79052261D01*
X144729889Y-78935204D01*
X144751924Y-78876124D01*
X144780988Y-78798205D01*
X144780988Y-78798203D01*
X144780989Y-78798201D01*
X144787500Y-78737638D01*
X144787500Y-78020362D01*
X144780989Y-77959799D01*
X144780988Y-77959797D01*
X144780988Y-77959794D01*
X144729889Y-77822796D01*
X144642261Y-77705738D01*
X144525203Y-77618110D01*
X144388205Y-77567011D01*
X144357919Y-77563755D01*
X144327638Y-77560500D01*
X142410362Y-77560500D01*
X142361911Y-77565708D01*
X142349798Y-77567011D01*
X142238076Y-77608682D01*
X142194742Y-77616500D01*
X141673123Y-77616500D01*
X141609792Y-77616500D01*
X141602582Y-77616290D01*
X141539363Y-77612607D01*
X141527975Y-77614616D01*
X141506442Y-77616500D01*
X139839250Y-77616500D01*
X139777250Y-77599887D01*
X139731863Y-77554500D01*
X139715250Y-77492500D01*
X139715250Y-76664505D01*
X139721678Y-76625099D01*
X139740296Y-76589778D01*
X139754051Y-76571563D01*
X139804543Y-76504701D01*
X139902309Y-76308361D01*
X139962332Y-76097399D01*
X139982570Y-75879000D01*
X139962332Y-75660601D01*
X139902309Y-75449639D01*
X139804543Y-75253299D01*
X139793999Y-75239337D01*
X139672363Y-75078264D01*
X139510275Y-74930502D01*
X139323791Y-74815036D01*
X139323790Y-74815035D01*
X139119268Y-74735803D01*
X138903667Y-74695500D01*
X138684333Y-74695500D01*
X138468732Y-74735802D01*
X138468732Y-74735803D01*
X138264208Y-74815036D01*
X138077724Y-74930502D01*
X137915636Y-75078265D01*
X137892953Y-75108303D01*
X137849271Y-75144576D01*
X137794000Y-75157575D01*
X137738729Y-75144576D01*
X137695047Y-75108303D01*
X137672363Y-75078265D01*
X137510275Y-74930502D01*
X137323791Y-74815036D01*
X137323790Y-74815035D01*
X137119268Y-74735803D01*
X136903667Y-74695500D01*
X136684333Y-74695500D01*
X136468732Y-74735802D01*
X136468732Y-74735803D01*
X136264208Y-74815036D01*
X136077724Y-74930502D01*
X135915636Y-75078265D01*
X135892953Y-75108303D01*
X135849271Y-75144576D01*
X135794000Y-75157575D01*
X135738729Y-75144576D01*
X135695047Y-75108303D01*
X135672363Y-75078265D01*
X135510275Y-74930502D01*
X135323791Y-74815036D01*
X135323790Y-74815035D01*
X135119268Y-74735803D01*
X134903667Y-74695500D01*
X134684333Y-74695500D01*
X134468732Y-74735802D01*
X134468732Y-74735803D01*
X134264208Y-74815036D01*
X134077724Y-74930502D01*
X133915636Y-75078265D01*
X133892953Y-75108303D01*
X133849271Y-75144576D01*
X133794000Y-75157575D01*
X133738729Y-75144576D01*
X133695047Y-75108303D01*
X133672363Y-75078265D01*
X133510275Y-74930502D01*
X133323791Y-74815036D01*
X133323790Y-74815035D01*
X133119268Y-74735803D01*
X132903667Y-74695500D01*
X132684333Y-74695500D01*
X132468732Y-74735802D01*
X132468732Y-74735803D01*
X132264208Y-74815036D01*
X132077724Y-74930502D01*
X131915636Y-75078265D01*
X131892953Y-75108303D01*
X131849271Y-75144576D01*
X131794000Y-75157575D01*
X131738729Y-75144576D01*
X131695047Y-75108303D01*
X131672363Y-75078265D01*
X131510275Y-74930502D01*
X131323791Y-74815036D01*
X131323790Y-74815035D01*
X131119268Y-74735803D01*
X130903667Y-74695500D01*
X130684333Y-74695500D01*
X130468732Y-74735802D01*
X130468732Y-74735803D01*
X130264208Y-74815036D01*
X130077724Y-74930502D01*
X129915636Y-75078265D01*
X129892953Y-75108303D01*
X129849271Y-75144576D01*
X129794000Y-75157575D01*
X129738729Y-75144576D01*
X129695047Y-75108303D01*
X129672363Y-75078265D01*
X129510275Y-74930502D01*
X129323791Y-74815036D01*
X129323790Y-74815035D01*
X129119268Y-74735803D01*
X128903667Y-74695500D01*
X128684333Y-74695500D01*
X128468732Y-74735802D01*
X128468732Y-74735803D01*
X128264208Y-74815036D01*
X128077724Y-74930502D01*
X127915636Y-75078265D01*
X127892953Y-75108303D01*
X127849271Y-75144576D01*
X127794000Y-75157575D01*
X127738729Y-75144576D01*
X127695047Y-75108303D01*
X127672363Y-75078265D01*
X127510275Y-74930502D01*
X127323791Y-74815036D01*
X127323790Y-74815035D01*
X127119268Y-74735803D01*
X126903667Y-74695500D01*
X126684333Y-74695500D01*
X126468732Y-74735802D01*
X126468732Y-74735803D01*
X126264208Y-74815036D01*
X126077724Y-74930502D01*
X125915636Y-75078265D01*
X125892953Y-75108303D01*
X125849271Y-75144576D01*
X125794000Y-75157575D01*
X125738729Y-75144576D01*
X125695047Y-75108303D01*
X125672363Y-75078265D01*
X125510275Y-74930502D01*
X125323791Y-74815036D01*
X125323790Y-74815035D01*
X125119268Y-74735803D01*
X124903667Y-74695500D01*
X124684333Y-74695500D01*
X124468732Y-74735802D01*
X124468732Y-74735803D01*
X124264208Y-74815036D01*
X124077723Y-74930503D01*
X124072707Y-74935076D01*
X124011784Y-74965355D01*
X123944054Y-74958934D01*
X123889907Y-74917745D01*
X123832261Y-74840739D01*
X123832259Y-74840738D01*
X123832259Y-74840737D01*
X123715203Y-74753110D01*
X123578205Y-74702011D01*
X123547919Y-74698755D01*
X123517638Y-74695500D01*
X122070362Y-74695500D01*
X122043445Y-74698393D01*
X122009794Y-74702011D01*
X121872796Y-74753110D01*
X121755738Y-74840738D01*
X121668110Y-74957796D01*
X121617011Y-75094794D01*
X121610500Y-75155366D01*
X121610500Y-76115233D01*
X121601061Y-76162686D01*
X121574183Y-76202911D01*
X121361995Y-76415098D01*
X121355180Y-76421914D01*
X121338895Y-76434962D01*
X121290339Y-76486668D01*
X121287633Y-76489461D01*
X121267861Y-76509233D01*
X121265321Y-76512508D01*
X121257752Y-76521369D01*
X121227414Y-76553677D01*
X121217582Y-76571563D01*
X121206901Y-76587823D01*
X121194385Y-76603959D01*
X121176786Y-76644628D01*
X121171648Y-76655117D01*
X121150303Y-76693943D01*
X121145226Y-76713718D01*
X121138925Y-76732123D01*
X121130818Y-76750856D01*
X121123888Y-76794610D01*
X121121520Y-76806046D01*
X121110500Y-76848970D01*
X121110500Y-76869384D01*
X121108973Y-76888783D01*
X121105780Y-76908941D01*
X120505516Y-76908941D01*
X120509857Y-73153660D01*
X120526485Y-73091777D01*
X120571785Y-73046458D01*
X120633657Y-73029803D01*
X139080250Y-73000500D01*
X145565500Y-73000500D01*
X145627500Y-73017113D01*
G37*
%TD.AperFunction*%
%TD*%
M02*
