%TF.GenerationSoftware,KiCad,Pcbnew,7.0.1-3b83917a11~172~ubuntu22.04.1*%
%TF.CreationDate,2023-03-18T22:57:58-07:00*%
%TF.ProjectId,CAN_Controller,43414e5f-436f-46e7-9472-6f6c6c65722e,rev?*%
%TF.SameCoordinates,Original*%
%TF.FileFunction,Legend,Bot*%
%TF.FilePolarity,Positive*%
%FSLAX46Y46*%
G04 Gerber Fmt 4.6, Leading zero omitted, Abs format (unit mm)*
G04 Created by KiCad (PCBNEW 7.0.1-3b83917a11~172~ubuntu22.04.1) date 2023-03-18 22:57:58*
%MOMM*%
%LPD*%
G01*
G04 APERTURE LIST*
%ADD10C,0.254000*%
%ADD11C,0.150000*%
%ADD12C,0.127000*%
%ADD13C,0.200000*%
%ADD14C,0.120000*%
G04 APERTURE END LIST*
D10*
%TO.C,C3*%
X136710666Y-86795573D02*
X136771142Y-86856050D01*
X136771142Y-86856050D02*
X136952571Y-86916526D01*
X136952571Y-86916526D02*
X137073523Y-86916526D01*
X137073523Y-86916526D02*
X137254952Y-86856050D01*
X137254952Y-86856050D02*
X137375904Y-86735097D01*
X137375904Y-86735097D02*
X137436381Y-86614145D01*
X137436381Y-86614145D02*
X137496857Y-86372240D01*
X137496857Y-86372240D02*
X137496857Y-86190811D01*
X137496857Y-86190811D02*
X137436381Y-85948907D01*
X137436381Y-85948907D02*
X137375904Y-85827954D01*
X137375904Y-85827954D02*
X137254952Y-85707002D01*
X137254952Y-85707002D02*
X137073523Y-85646526D01*
X137073523Y-85646526D02*
X136952571Y-85646526D01*
X136952571Y-85646526D02*
X136771142Y-85707002D01*
X136771142Y-85707002D02*
X136710666Y-85767478D01*
X136287333Y-85646526D02*
X135501142Y-85646526D01*
X135501142Y-85646526D02*
X135924476Y-86130335D01*
X135924476Y-86130335D02*
X135743047Y-86130335D01*
X135743047Y-86130335D02*
X135622095Y-86190811D01*
X135622095Y-86190811D02*
X135561619Y-86251288D01*
X135561619Y-86251288D02*
X135501142Y-86372240D01*
X135501142Y-86372240D02*
X135501142Y-86674621D01*
X135501142Y-86674621D02*
X135561619Y-86795573D01*
X135561619Y-86795573D02*
X135622095Y-86856050D01*
X135622095Y-86856050D02*
X135743047Y-86916526D01*
X135743047Y-86916526D02*
X136105904Y-86916526D01*
X136105904Y-86916526D02*
X136226857Y-86856050D01*
X136226857Y-86856050D02*
X136287333Y-86795573D01*
%TO.C,C7*%
X143561666Y-83666573D02*
X143622142Y-83727050D01*
X143622142Y-83727050D02*
X143803571Y-83787526D01*
X143803571Y-83787526D02*
X143924523Y-83787526D01*
X143924523Y-83787526D02*
X144105952Y-83727050D01*
X144105952Y-83727050D02*
X144226904Y-83606097D01*
X144226904Y-83606097D02*
X144287381Y-83485145D01*
X144287381Y-83485145D02*
X144347857Y-83243240D01*
X144347857Y-83243240D02*
X144347857Y-83061811D01*
X144347857Y-83061811D02*
X144287381Y-82819907D01*
X144287381Y-82819907D02*
X144226904Y-82698954D01*
X144226904Y-82698954D02*
X144105952Y-82578002D01*
X144105952Y-82578002D02*
X143924523Y-82517526D01*
X143924523Y-82517526D02*
X143803571Y-82517526D01*
X143803571Y-82517526D02*
X143622142Y-82578002D01*
X143622142Y-82578002D02*
X143561666Y-82638478D01*
X143138333Y-82517526D02*
X142291666Y-82517526D01*
X142291666Y-82517526D02*
X142835952Y-83787526D01*
%TO.C,C4*%
X142180666Y-86795573D02*
X142241142Y-86856050D01*
X142241142Y-86856050D02*
X142422571Y-86916526D01*
X142422571Y-86916526D02*
X142543523Y-86916526D01*
X142543523Y-86916526D02*
X142724952Y-86856050D01*
X142724952Y-86856050D02*
X142845904Y-86735097D01*
X142845904Y-86735097D02*
X142906381Y-86614145D01*
X142906381Y-86614145D02*
X142966857Y-86372240D01*
X142966857Y-86372240D02*
X142966857Y-86190811D01*
X142966857Y-86190811D02*
X142906381Y-85948907D01*
X142906381Y-85948907D02*
X142845904Y-85827954D01*
X142845904Y-85827954D02*
X142724952Y-85707002D01*
X142724952Y-85707002D02*
X142543523Y-85646526D01*
X142543523Y-85646526D02*
X142422571Y-85646526D01*
X142422571Y-85646526D02*
X142241142Y-85707002D01*
X142241142Y-85707002D02*
X142180666Y-85767478D01*
X141092095Y-86069859D02*
X141092095Y-86916526D01*
X141394476Y-85586050D02*
X141696857Y-86493192D01*
X141696857Y-86493192D02*
X140910666Y-86493192D01*
D11*
%TO.C,R1*%
X129983350Y-97870142D02*
X130250050Y-97489142D01*
X130440550Y-97870142D02*
X130440550Y-97070042D01*
X130440550Y-97070042D02*
X130135750Y-97070042D01*
X130135750Y-97070042D02*
X130059550Y-97108142D01*
X130059550Y-97108142D02*
X130021450Y-97146242D01*
X130021450Y-97146242D02*
X129983350Y-97222442D01*
X129983350Y-97222442D02*
X129983350Y-97336742D01*
X129983350Y-97336742D02*
X130021450Y-97412942D01*
X130021450Y-97412942D02*
X130059550Y-97451042D01*
X130059550Y-97451042D02*
X130135750Y-97489142D01*
X130135750Y-97489142D02*
X130440550Y-97489142D01*
X129221350Y-97870142D02*
X129678550Y-97870142D01*
X129449950Y-97870142D02*
X129449950Y-97070042D01*
X129449950Y-97070042D02*
X129526150Y-97184342D01*
X129526150Y-97184342D02*
X129602350Y-97260542D01*
X129602350Y-97260542D02*
X129678550Y-97298642D01*
%TO.C,U3*%
X128080904Y-90181619D02*
X128080904Y-90991142D01*
X128080904Y-90991142D02*
X128033285Y-91086380D01*
X128033285Y-91086380D02*
X127985666Y-91134000D01*
X127985666Y-91134000D02*
X127890428Y-91181619D01*
X127890428Y-91181619D02*
X127699952Y-91181619D01*
X127699952Y-91181619D02*
X127604714Y-91134000D01*
X127604714Y-91134000D02*
X127557095Y-91086380D01*
X127557095Y-91086380D02*
X127509476Y-90991142D01*
X127509476Y-90991142D02*
X127509476Y-90181619D01*
X127128523Y-90181619D02*
X126509476Y-90181619D01*
X126509476Y-90181619D02*
X126842809Y-90562571D01*
X126842809Y-90562571D02*
X126699952Y-90562571D01*
X126699952Y-90562571D02*
X126604714Y-90610190D01*
X126604714Y-90610190D02*
X126557095Y-90657809D01*
X126557095Y-90657809D02*
X126509476Y-90753047D01*
X126509476Y-90753047D02*
X126509476Y-90991142D01*
X126509476Y-90991142D02*
X126557095Y-91086380D01*
X126557095Y-91086380D02*
X126604714Y-91134000D01*
X126604714Y-91134000D02*
X126699952Y-91181619D01*
X126699952Y-91181619D02*
X126985666Y-91181619D01*
X126985666Y-91181619D02*
X127080904Y-91134000D01*
X127080904Y-91134000D02*
X127128523Y-91086380D01*
D12*
%TO.C,R3*%
X144461835Y-96972642D02*
X144715835Y-96591642D01*
X144897264Y-96972642D02*
X144897264Y-96172542D01*
X144897264Y-96172542D02*
X144606978Y-96172542D01*
X144606978Y-96172542D02*
X144534407Y-96210642D01*
X144534407Y-96210642D02*
X144498121Y-96248742D01*
X144498121Y-96248742D02*
X144461835Y-96324942D01*
X144461835Y-96324942D02*
X144461835Y-96439242D01*
X144461835Y-96439242D02*
X144498121Y-96515442D01*
X144498121Y-96515442D02*
X144534407Y-96553542D01*
X144534407Y-96553542D02*
X144606978Y-96591642D01*
X144606978Y-96591642D02*
X144897264Y-96591642D01*
X144207835Y-96172542D02*
X143736121Y-96172542D01*
X143736121Y-96172542D02*
X143990121Y-96477342D01*
X143990121Y-96477342D02*
X143881264Y-96477342D01*
X143881264Y-96477342D02*
X143808693Y-96515442D01*
X143808693Y-96515442D02*
X143772407Y-96553542D01*
X143772407Y-96553542D02*
X143736121Y-96629742D01*
X143736121Y-96629742D02*
X143736121Y-96820242D01*
X143736121Y-96820242D02*
X143772407Y-96896442D01*
X143772407Y-96896442D02*
X143808693Y-96934542D01*
X143808693Y-96934542D02*
X143881264Y-96972642D01*
X143881264Y-96972642D02*
X144098978Y-96972642D01*
X144098978Y-96972642D02*
X144171550Y-96934542D01*
X144171550Y-96934542D02*
X144207835Y-96896442D01*
D11*
%TO.C,C2*%
X127376999Y-97793942D02*
X127413285Y-97832042D01*
X127413285Y-97832042D02*
X127522142Y-97870142D01*
X127522142Y-97870142D02*
X127594714Y-97870142D01*
X127594714Y-97870142D02*
X127703571Y-97832042D01*
X127703571Y-97832042D02*
X127776142Y-97755842D01*
X127776142Y-97755842D02*
X127812428Y-97679642D01*
X127812428Y-97679642D02*
X127848714Y-97527242D01*
X127848714Y-97527242D02*
X127848714Y-97412942D01*
X127848714Y-97412942D02*
X127812428Y-97260542D01*
X127812428Y-97260542D02*
X127776142Y-97184342D01*
X127776142Y-97184342D02*
X127703571Y-97108142D01*
X127703571Y-97108142D02*
X127594714Y-97070042D01*
X127594714Y-97070042D02*
X127522142Y-97070042D01*
X127522142Y-97070042D02*
X127413285Y-97108142D01*
X127413285Y-97108142D02*
X127376999Y-97146242D01*
X127086714Y-97146242D02*
X127050428Y-97108142D01*
X127050428Y-97108142D02*
X126977857Y-97070042D01*
X126977857Y-97070042D02*
X126796428Y-97070042D01*
X126796428Y-97070042D02*
X126723857Y-97108142D01*
X126723857Y-97108142D02*
X126687571Y-97146242D01*
X126687571Y-97146242D02*
X126651285Y-97222442D01*
X126651285Y-97222442D02*
X126651285Y-97298642D01*
X126651285Y-97298642D02*
X126687571Y-97412942D01*
X126687571Y-97412942D02*
X127122999Y-97870142D01*
X127122999Y-97870142D02*
X126651285Y-97870142D01*
D10*
%TO.C,C6*%
X135361666Y-83766573D02*
X135422142Y-83827050D01*
X135422142Y-83827050D02*
X135603571Y-83887526D01*
X135603571Y-83887526D02*
X135724523Y-83887526D01*
X135724523Y-83887526D02*
X135905952Y-83827050D01*
X135905952Y-83827050D02*
X136026904Y-83706097D01*
X136026904Y-83706097D02*
X136087381Y-83585145D01*
X136087381Y-83585145D02*
X136147857Y-83343240D01*
X136147857Y-83343240D02*
X136147857Y-83161811D01*
X136147857Y-83161811D02*
X136087381Y-82919907D01*
X136087381Y-82919907D02*
X136026904Y-82798954D01*
X136026904Y-82798954D02*
X135905952Y-82678002D01*
X135905952Y-82678002D02*
X135724523Y-82617526D01*
X135724523Y-82617526D02*
X135603571Y-82617526D01*
X135603571Y-82617526D02*
X135422142Y-82678002D01*
X135422142Y-82678002D02*
X135361666Y-82738478D01*
X134273095Y-82617526D02*
X134515000Y-82617526D01*
X134515000Y-82617526D02*
X134635952Y-82678002D01*
X134635952Y-82678002D02*
X134696428Y-82738478D01*
X134696428Y-82738478D02*
X134817381Y-82919907D01*
X134817381Y-82919907D02*
X134877857Y-83161811D01*
X134877857Y-83161811D02*
X134877857Y-83645621D01*
X134877857Y-83645621D02*
X134817381Y-83766573D01*
X134817381Y-83766573D02*
X134756904Y-83827050D01*
X134756904Y-83827050D02*
X134635952Y-83887526D01*
X134635952Y-83887526D02*
X134394047Y-83887526D01*
X134394047Y-83887526D02*
X134273095Y-83827050D01*
X134273095Y-83827050D02*
X134212619Y-83766573D01*
X134212619Y-83766573D02*
X134152142Y-83645621D01*
X134152142Y-83645621D02*
X134152142Y-83343240D01*
X134152142Y-83343240D02*
X134212619Y-83222288D01*
X134212619Y-83222288D02*
X134273095Y-83161811D01*
X134273095Y-83161811D02*
X134394047Y-83101335D01*
X134394047Y-83101335D02*
X134635952Y-83101335D01*
X134635952Y-83101335D02*
X134756904Y-83161811D01*
X134756904Y-83161811D02*
X134817381Y-83222288D01*
X134817381Y-83222288D02*
X134877857Y-83343240D01*
%TO.C,C5*%
X142661666Y-92566573D02*
X142722142Y-92627050D01*
X142722142Y-92627050D02*
X142903571Y-92687526D01*
X142903571Y-92687526D02*
X143024523Y-92687526D01*
X143024523Y-92687526D02*
X143205952Y-92627050D01*
X143205952Y-92627050D02*
X143326904Y-92506097D01*
X143326904Y-92506097D02*
X143387381Y-92385145D01*
X143387381Y-92385145D02*
X143447857Y-92143240D01*
X143447857Y-92143240D02*
X143447857Y-91961811D01*
X143447857Y-91961811D02*
X143387381Y-91719907D01*
X143387381Y-91719907D02*
X143326904Y-91598954D01*
X143326904Y-91598954D02*
X143205952Y-91478002D01*
X143205952Y-91478002D02*
X143024523Y-91417526D01*
X143024523Y-91417526D02*
X142903571Y-91417526D01*
X142903571Y-91417526D02*
X142722142Y-91478002D01*
X142722142Y-91478002D02*
X142661666Y-91538478D01*
X141512619Y-91417526D02*
X142117381Y-91417526D01*
X142117381Y-91417526D02*
X142177857Y-92022288D01*
X142177857Y-92022288D02*
X142117381Y-91961811D01*
X142117381Y-91961811D02*
X141996428Y-91901335D01*
X141996428Y-91901335D02*
X141694047Y-91901335D01*
X141694047Y-91901335D02*
X141573095Y-91961811D01*
X141573095Y-91961811D02*
X141512619Y-92022288D01*
X141512619Y-92022288D02*
X141452142Y-92143240D01*
X141452142Y-92143240D02*
X141452142Y-92445621D01*
X141452142Y-92445621D02*
X141512619Y-92566573D01*
X141512619Y-92566573D02*
X141573095Y-92627050D01*
X141573095Y-92627050D02*
X141694047Y-92687526D01*
X141694047Y-92687526D02*
X141996428Y-92687526D01*
X141996428Y-92687526D02*
X142117381Y-92627050D01*
X142117381Y-92627050D02*
X142177857Y-92566573D01*
D12*
%TO.C,R2*%
X144471999Y-95257642D02*
X144725999Y-94876642D01*
X144907428Y-95257642D02*
X144907428Y-94457542D01*
X144907428Y-94457542D02*
X144617142Y-94457542D01*
X144617142Y-94457542D02*
X144544571Y-94495642D01*
X144544571Y-94495642D02*
X144508285Y-94533742D01*
X144508285Y-94533742D02*
X144471999Y-94609942D01*
X144471999Y-94609942D02*
X144471999Y-94724242D01*
X144471999Y-94724242D02*
X144508285Y-94800442D01*
X144508285Y-94800442D02*
X144544571Y-94838542D01*
X144544571Y-94838542D02*
X144617142Y-94876642D01*
X144617142Y-94876642D02*
X144907428Y-94876642D01*
X144181714Y-94533742D02*
X144145428Y-94495642D01*
X144145428Y-94495642D02*
X144072857Y-94457542D01*
X144072857Y-94457542D02*
X143891428Y-94457542D01*
X143891428Y-94457542D02*
X143818857Y-94495642D01*
X143818857Y-94495642D02*
X143782571Y-94533742D01*
X143782571Y-94533742D02*
X143746285Y-94609942D01*
X143746285Y-94609942D02*
X143746285Y-94686142D01*
X143746285Y-94686142D02*
X143782571Y-94800442D01*
X143782571Y-94800442D02*
X144217999Y-95257642D01*
X144217999Y-95257642D02*
X143746285Y-95257642D01*
D10*
%TO.C,D2*%
X137387381Y-94187526D02*
X137387381Y-92917526D01*
X137387381Y-92917526D02*
X137085000Y-92917526D01*
X137085000Y-92917526D02*
X136903571Y-92978002D01*
X136903571Y-92978002D02*
X136782619Y-93098954D01*
X136782619Y-93098954D02*
X136722142Y-93219907D01*
X136722142Y-93219907D02*
X136661666Y-93461811D01*
X136661666Y-93461811D02*
X136661666Y-93643240D01*
X136661666Y-93643240D02*
X136722142Y-93885145D01*
X136722142Y-93885145D02*
X136782619Y-94006097D01*
X136782619Y-94006097D02*
X136903571Y-94127050D01*
X136903571Y-94127050D02*
X137085000Y-94187526D01*
X137085000Y-94187526D02*
X137387381Y-94187526D01*
X136177857Y-93038478D02*
X136117381Y-92978002D01*
X136117381Y-92978002D02*
X135996428Y-92917526D01*
X135996428Y-92917526D02*
X135694047Y-92917526D01*
X135694047Y-92917526D02*
X135573095Y-92978002D01*
X135573095Y-92978002D02*
X135512619Y-93038478D01*
X135512619Y-93038478D02*
X135452142Y-93159430D01*
X135452142Y-93159430D02*
X135452142Y-93280383D01*
X135452142Y-93280383D02*
X135512619Y-93461811D01*
X135512619Y-93461811D02*
X136238333Y-94187526D01*
X136238333Y-94187526D02*
X135452142Y-94187526D01*
D11*
%TO.C,C1*%
X123276999Y-97793942D02*
X123313285Y-97832042D01*
X123313285Y-97832042D02*
X123422142Y-97870142D01*
X123422142Y-97870142D02*
X123494714Y-97870142D01*
X123494714Y-97870142D02*
X123603571Y-97832042D01*
X123603571Y-97832042D02*
X123676142Y-97755842D01*
X123676142Y-97755842D02*
X123712428Y-97679642D01*
X123712428Y-97679642D02*
X123748714Y-97527242D01*
X123748714Y-97527242D02*
X123748714Y-97412942D01*
X123748714Y-97412942D02*
X123712428Y-97260542D01*
X123712428Y-97260542D02*
X123676142Y-97184342D01*
X123676142Y-97184342D02*
X123603571Y-97108142D01*
X123603571Y-97108142D02*
X123494714Y-97070042D01*
X123494714Y-97070042D02*
X123422142Y-97070042D01*
X123422142Y-97070042D02*
X123313285Y-97108142D01*
X123313285Y-97108142D02*
X123276999Y-97146242D01*
X122551285Y-97870142D02*
X122986714Y-97870142D01*
X122768999Y-97870142D02*
X122768999Y-97070042D01*
X122768999Y-97070042D02*
X122841571Y-97184342D01*
X122841571Y-97184342D02*
X122914142Y-97260542D01*
X122914142Y-97260542D02*
X122986714Y-97298642D01*
%TO.C,U1*%
X128080904Y-82561619D02*
X128080904Y-83371142D01*
X128080904Y-83371142D02*
X128033285Y-83466380D01*
X128033285Y-83466380D02*
X127985666Y-83514000D01*
X127985666Y-83514000D02*
X127890428Y-83561619D01*
X127890428Y-83561619D02*
X127699952Y-83561619D01*
X127699952Y-83561619D02*
X127604714Y-83514000D01*
X127604714Y-83514000D02*
X127557095Y-83466380D01*
X127557095Y-83466380D02*
X127509476Y-83371142D01*
X127509476Y-83371142D02*
X127509476Y-82561619D01*
X126509476Y-83561619D02*
X127080904Y-83561619D01*
X126795190Y-83561619D02*
X126795190Y-82561619D01*
X126795190Y-82561619D02*
X126890428Y-82704476D01*
X126890428Y-82704476D02*
X126985666Y-82799714D01*
X126985666Y-82799714D02*
X127080904Y-82847333D01*
D13*
%TO.C,C3*%
X136549000Y-83329000D02*
G75*
G03*
X136549000Y-83329000I-50000J0D01*
G01*
%TO.C,C7*%
X144069000Y-79979000D02*
X142669000Y-79979000D01*
%TO.C,C4*%
X142019000Y-83329000D02*
G75*
G03*
X142019000Y-83329000I-50000J0D01*
G01*
D14*
%TO.C,R1*%
X129327500Y-95462258D02*
X129327500Y-94987742D01*
X130372500Y-95462258D02*
X130372500Y-94987742D01*
%TO.C,U3*%
X127319000Y-88159000D02*
X125369000Y-88159000D01*
X127319000Y-88159000D02*
X129269000Y-88159000D01*
X127319000Y-93279000D02*
X123869000Y-93279000D01*
X127319000Y-93279000D02*
X129269000Y-93279000D01*
%TO.C,R3*%
X141907578Y-96042500D02*
X142382094Y-96042500D01*
X141907578Y-97087500D02*
X142382094Y-97087500D01*
%TO.C,C2*%
X127879000Y-95038420D02*
X127879000Y-95319580D01*
X126859000Y-95038420D02*
X126859000Y-95319580D01*
D13*
%TO.C,C6*%
X135869000Y-79979000D02*
X134469000Y-79979000D01*
D14*
%TO.C,R2*%
X141902742Y-94347500D02*
X142377258Y-94347500D01*
X141902742Y-95392500D02*
X142377258Y-95392500D01*
D13*
%TO.C,D2*%
X138719000Y-90579000D02*
X135069000Y-90579000D01*
X137769000Y-92129000D02*
X135069000Y-92129000D01*
D14*
%TO.C,C1*%
X123679000Y-95013420D02*
X123679000Y-95294580D01*
X122659000Y-95013420D02*
X122659000Y-95294580D01*
%TO.C,U1*%
X127319000Y-78664000D02*
X125369000Y-78664000D01*
X127319000Y-78664000D02*
X129269000Y-78664000D01*
X127319000Y-87534000D02*
X123869000Y-87534000D01*
X127319000Y-87534000D02*
X129269000Y-87534000D01*
%TD*%
M02*
